{"glyphs":{"0":{"ha":919,"x_min":44,"x_max":878,"o":"m 44 504 q 147 141 44 276 q 461 6 250 6 q 775 141 672 6 q 878 504 878 276 q 775 866 878 731 q 461 1001 672 1001 q 147 867 250 1001 q 44 504 44 732 m 574 504 q 551 351 574 406 q 461 297 529 297 q 369 351 392 297 q 347 504 347 406 q 369 656 347 603 q 461 710 392 710 q 551 656 529 710 q 574 504 574 603 z "},"1":{"ha":554,"x_min":14,"x_max":485,"o":"m 14 694 l 14 983 l 485 983 l 485 0 l 161 0 l 161 694 l 14 694 z "},"2":{"ha":786,"x_min":35,"x_max":757,"o":"m 39 246 q 327 490 221 383 q 433 682 433 597 q 385 751 433 751 q 345 727 357 751 q 333 636 333 703 l 35 636 q 91 849 39 765 q 226 971 143 932 q 410 1010 310 1010 q 666 924 585 1010 q 747 713 747 838 q 660 464 747 581 q 439 263 572 347 l 757 263 l 757 14 l 39 14 l 39 246 z "},"3":{"ha":854,"x_min":51,"x_max":783,"o":"m 421 1038 q 608 1000 531 1038 q 726 899 686 963 q 765 754 765 835 q 719 602 765 657 q 617 528 674 547 l 617 522 q 783 290 783 460 q 742 133 783 201 q 623 28 700 65 q 440 -10 546 -10 q 157 76 260 -10 q 51 346 54 163 l 351 346 q 366 270 349 296 q 426 244 383 244 q 468 263 451 244 q 485 313 485 282 q 459 372 485 351 q 372 392 433 392 l 321 392 l 321 640 l 371 640 q 465 715 465 635 q 451 767 465 750 q 414 783 436 783 q 363 697 363 783 l 63 697 q 159 950 67 863 q 421 1038 251 1038 z "},"4":{"ha":978,"x_min":72,"x_max":918,"o":"m 72 153 l 72 410 l 486 1000 l 818 1000 l 818 419 l 918 419 l 918 153 l 818 153 l 818 0 l 507 0 l 507 153 l 72 153 m 532 649 l 382 419 l 532 419 l 532 649 z "},"5":{"ha":917,"x_min":126,"x_max":861,"o":"m 811 744 l 408 744 l 408 628 q 477 665 435 651 q 572 679 519 679 q 732 635 667 679 q 829 516 797 590 q 861 351 861 442 q 767 92 861 185 q 510 0 674 0 q 303 42 390 0 q 172 157 217 83 q 129 325 126 231 l 429 325 q 444 283 429 303 q 494 264 460 264 q 546 289 529 264 q 563 357 563 314 q 544 418 563 397 q 490 439 525 439 q 446 425 461 439 q 431 393 431 411 l 131 393 l 131 1015 l 811 1015 l 811 744 z "},"6":{"ha":879,"x_min":72,"x_max":818,"o":"m 507 707 q 483 768 499 749 q 433 788 467 788 q 363 734 381 788 q 346 568 346 681 q 418 629 371 607 q 525 651 465 651 q 738 569 658 651 q 818 332 818 488 q 774 151 818 228 q 650 32 731 74 q 460 -10 569 -10 q 157 124 242 -10 q 72 500 72 258 q 111 806 72 689 q 234 978 150 922 q 453 1033 318 1033 q 702 939 618 1033 q 794 707 786 844 l 507 707 m 367 336 q 388 274 367 294 q 449 254 410 254 q 509 274 488 254 q 531 336 531 294 q 508 394 531 374 q 449 415 486 415 q 389 394 411 415 q 367 336 367 374 z "},"7":{"ha":711,"x_min":28,"x_max":697,"o":"m 697 769 l 358 0 l 42 0 l 383 732 l 28 732 l 28 996 l 697 996 l 697 769 z "},"8":{"ha":913,"x_min":67,"x_max":844,"o":"m 89 768 q 130 902 89 838 q 253 1008 171 967 q 456 1050 336 1050 q 658 1008 575 1050 q 781 902 740 967 q 822 768 822 838 q 791 642 822 694 q 704 558 760 590 q 844 313 844 476 q 792 133 844 207 q 650 22 739 60 q 456 -15 561 -15 q 261 22 350 -15 q 119 133 172 60 q 67 313 67 207 q 207 558 67 476 q 120 642 151 590 q 89 768 89 694 m 392 715 q 410 654 392 675 q 456 633 428 633 q 501 654 483 633 q 519 715 519 675 q 501 777 519 754 q 456 800 483 800 q 410 777 428 800 q 392 715 392 754 m 365 331 q 389 263 365 289 q 456 236 413 236 q 522 263 499 236 q 546 331 546 289 q 522 399 546 372 q 456 426 497 426 q 390 399 414 426 q 365 331 365 372 z "},"9":{"ha":829,"x_min":42,"x_max":788,"o":"m 353 317 q 378 256 360 276 q 431 236 397 236 q 498 288 482 236 q 514 456 514 340 q 442 394 489 417 q 335 372 394 372 q 122 454 201 372 q 42 692 42 536 q 85 873 42 796 q 210 992 129 950 q 400 1033 290 1033 q 635 972 550 1033 q 754 801 721 910 q 788 538 788 693 q 706 128 788 265 q 431 -10 625 -10 q 236 36 317 -10 q 113 156 156 82 q 65 317 71 231 l 353 317 m 493 688 q 472 749 493 729 q 411 769 450 769 q 351 749 372 769 q 329 688 329 729 q 351 629 329 650 q 411 608 374 608 q 471 629 449 608 q 493 688 493 650 z "},"\u0000":{"ha":0,"x_min":0,"x_max":0,"o":""},"\r":{"ha":236,"x_min":0,"x_max":0,"o":""}," ":{"ha":236,"x_min":0,"x_max":0,"o":""},"अ":{"ha":1176,"x_min":71,"x_max":1190,"o":"m 1190 1028 l 1190 793 l 1083 793 l 1083 0 l 801 0 l 801 308 l 699 308 q 605 147 682 206 q 410 88 528 88 q 231 125 307 88 q 113 231 154 163 q 71 388 71 299 l 335 388 q 349 347 335 364 q 392 329 364 329 q 433 346 418 329 q 447 389 447 363 q 425 440 447 421 q 360 458 403 458 l 292 458 l 292 685 l 360 685 q 417 700 394 685 q 440 746 440 715 q 426 786 440 771 q 390 801 413 801 q 353 786 367 801 q 339 749 339 771 l 79 749 q 117 900 79 833 q 226 1003 156 967 q 390 1040 296 1040 q 610 971 529 1040 q 690 783 690 901 q 656 659 690 711 q 558 581 621 607 l 558 575 q 625 540 599 563 l 801 540 l 801 1028 l 1190 1028 z "},"आ":{"ha":1640,"x_min":71,"x_max":1656,"o":"m 1190 1028 l 1190 793 l 1083 793 l 1083 0 l 801 0 l 801 308 l 699 308 q 605 147 682 206 q 410 88 528 88 q 231 125 307 88 q 113 231 154 163 q 71 388 71 299 l 335 388 q 349 347 335 364 q 392 329 364 329 q 433 346 418 329 q 447 389 447 363 q 425 440 447 421 q 360 458 403 458 l 292 458 l 292 685 l 360 685 q 417 700 394 685 q 440 746 440 715 q 426 786 440 771 q 390 801 413 801 q 353 786 367 801 q 339 749 339 771 l 79 749 q 117 900 79 833 q 226 1003 156 967 q 390 1040 296 1040 q 610 971 529 1040 q 690 783 690 901 q 656 659 690 711 q 558 581 621 607 l 558 575 q 625 540 599 563 l 801 540 l 801 1028 l 1190 1028 m 1267 793 l 1160 793 l 1160 1028 l 1656 1028 l 1656 793 l 1550 793 l 1550 0 l 1267 0 l 1267 793 z "},"इ":{"ha":801,"x_min":-17,"x_max":818,"o":"m 390 533 q 360 525 371 533 q 349 501 349 517 q 392 471 349 471 l 451 471 q 657 411 575 471 q 739 215 739 351 q 675 39 739 107 q 503 -29 611 -29 q 427 -19 463 -29 q 368 7 392 -8 l 368 -124 l 100 -124 l 100 235 l 354 235 q 372 192 356 206 q 417 178 389 178 q 457 190 443 178 q 471 224 471 203 q 396 274 471 274 q 300 276 339 274 q 135 338 206 282 q 64 504 64 394 q 134 675 64 617 q 319 733 204 733 l 382 733 l 382 793 l -17 793 l -17 1028 l 818 1028 l 818 793 l 656 793 l 656 533 l 390 533 z "},"ई":{"ha":801,"x_min":-17,"x_max":996,"o":"m 390 533 q 360 525 371 533 q 349 501 349 517 q 392 471 349 471 l 451 471 q 657 411 575 471 q 739 215 739 351 q 675 39 739 107 q 503 -29 611 -29 q 427 -19 463 -29 q 368 7 392 -8 l 368 -124 l 100 -124 l 100 235 l 354 235 q 372 192 356 206 q 417 178 389 178 q 457 190 443 178 q 471 224 471 203 q 396 274 471 274 q 300 276 339 274 q 135 338 206 282 q 64 504 64 394 q 134 675 64 617 q 319 733 204 733 l 382 733 l 382 793 l -17 793 l -17 1028 l 818 1028 l 818 793 l 656 793 l 656 533 l 390 533 m 386 1108 q 454 1335 386 1240 q 690 1431 522 1431 q 918 1347 840 1431 q 988 1114 996 1263 l 740 1114 q 731 1176 743 1156 q 696 1197 719 1197 q 658 1177 668 1197 q 647 1113 647 1157 l 647 985 l 386 985 l 386 1108 z "},"उ":{"ha":776,"x_min":-15,"x_max":792,"o":"m 700 747 q 669 613 700 665 q 589 546 639 560 l 589 542 q 691 457 651 519 q 731 310 731 394 q 644 90 731 172 q 406 7 557 7 q 144 95 243 7 q 46 340 46 183 l 315 340 q 336 281 315 303 q 392 258 357 258 q 444 278 425 258 q 464 333 464 299 q 442 391 464 368 q 381 414 421 414 l 285 414 l 285 660 l 339 660 q 402 683 376 660 q 428 760 428 706 l 428 792 l -15 792 l -15 1028 l 792 1028 l 792 792 l 700 792 l 700 747 z "},"ऊ":{"ha":1174,"x_min":-15,"x_max":1186,"o":"m 700 747 q 669 613 700 665 q 589 546 639 560 l 589 542 l 811 542 q 1051 473 965 542 q 1138 269 1138 404 q 1069 90 1138 161 q 875 19 1001 19 q 783 29 831 19 l 783 240 l 824 240 q 856 251 844 240 q 867 279 867 261 q 854 308 867 297 q 815 319 842 319 l 725 319 q 726 293 726 311 q 688 147 726 211 q 577 44 650 82 q 406 7 504 7 q 144 95 243 7 q 46 340 46 183 l 315 340 q 336 281 315 303 q 392 258 357 258 q 444 278 425 258 q 464 333 464 299 q 442 391 464 368 q 381 414 421 414 l 285 414 l 285 660 l 339 660 q 402 683 376 660 q 428 760 428 706 l 428 793 l -15 793 l -15 1028 l 1186 1028 l 1186 793 l 700 793 l 700 747 z "},"ऋ":{"ha":1488,"x_min":-15,"x_max":1503,"o":"m 903 793 l 903 638 l 1075 638 q 1126 651 1107 638 q 1144 694 1144 665 l 1144 726 l 1386 726 l 1386 244 l 1343 244 q 1277 226 1299 244 q 1256 176 1256 207 q 1283 127 1256 143 q 1358 111 1311 111 q 1438 121 1394 111 l 1438 -103 q 1319 -112 1376 -112 q 1077 -42 1169 -112 q 985 150 985 28 q 1027 295 985 236 q 1144 385 1069 354 l 1144 431 q 1032 415 1093 415 l 903 415 l 903 0 l 643 0 l 643 153 l 460 0 l 97 0 l 97 11 l 632 410 q 585 455 615 439 q 514 471 554 471 q 401 428 440 471 q 363 315 363 385 l 79 315 q 119 519 79 431 q 238 658 160 608 q 428 708 317 708 q 643 631 561 708 l 643 793 l -15 793 l -15 1028 l 1503 1028 l 1503 793 l 903 793 z "},"ॠ":{"ha":1488,"x_min":-15,"x_max":1507,"o":"m 903 793 l 903 638 l 1075 638 q 1126 651 1107 638 q 1144 694 1144 665 l 1144 726 l 1386 726 l 1386 238 l 1340 238 q 1282 228 1303 238 q 1261 192 1261 218 q 1340 147 1261 147 l 1429 147 l 1429 -61 l 1357 -61 q 1285 -71 1311 -61 q 1260 -111 1260 -81 q 1288 -151 1260 -142 q 1358 -161 1315 -161 q 1503 -140 1431 -161 l 1503 -347 q 1416 -370 1468 -362 q 1314 -378 1364 -378 q 1084 -320 1179 -378 q 989 -142 989 -262 q 1029 -28 989 -76 q 1136 36 1069 21 l 1136 42 q 1031 95 1071 56 q 990 207 990 135 q 1034 320 990 278 q 1144 379 1078 363 l 1144 431 q 1032 415 1093 415 l 903 415 l 903 0 l 643 0 l 643 153 l 460 0 l 97 0 l 97 11 l 632 410 q 585 455 615 439 q 514 471 554 471 q 401 428 440 471 q 363 315 363 385 l 79 315 q 119 519 79 431 q 238 658 160 608 q 428 708 317 708 q 643 631 561 708 l 643 793 l -15 793 l -15 1028 l 1507 1028 l 1507 793 l 903 793 z "},"ऌ":{"ha":1263,"x_min":-15,"x_max":1278,"o":"m 1033 793 l 1033 689 q 1158 573 1111 651 q 1206 376 1206 494 q 1183 238 1206 304 l 1175 238 q 1077 219 1104 238 q 1050 167 1050 201 q 1081 122 1050 138 q 1160 106 1111 106 q 1240 114 1207 106 l 1240 -110 q 1122 -118 1176 -118 q 874 -47 967 -118 q 781 153 781 24 q 821 281 781 225 q 924 367 861 338 l 924 378 q 902 447 924 422 q 843 472 881 472 q 776 440 797 472 q 756 365 756 408 l 756 315 l 522 315 l 522 365 q 501 440 522 408 q 435 472 481 472 q 369 445 393 472 q 346 372 346 418 q 449 261 346 261 q 485 263 471 261 l 485 18 q 436 17 463 17 q 157 113 256 17 q 58 376 58 208 q 106 570 58 493 q 228 684 153 647 q 392 721 304 721 q 632 589 563 721 l 638 589 q 760 697 676 664 l 760 793 l -15 793 l -15 1028 l 1278 1028 l 1278 793 l 1033 793 z "},"ॡ":{"ha":1279,"x_min":-15,"x_max":1311,"o":"m 1167 -161 q 1311 -140 1239 -161 l 1311 -347 q 1224 -370 1276 -362 q 1122 -378 1172 -378 q 892 -320 988 -378 q 797 -142 797 -262 q 838 -28 797 -76 q 944 36 878 21 l 944 42 q 839 95 879 56 q 799 207 799 135 q 833 310 799 269 q 924 369 868 350 l 924 378 q 902 447 924 422 q 843 472 881 472 q 776 440 797 472 q 756 365 756 408 l 756 315 l 522 315 l 522 365 q 501 440 522 408 q 435 472 481 472 q 369 445 393 472 q 346 372 346 418 q 449 261 346 261 q 485 263 471 261 l 485 18 q 436 17 463 17 q 157 113 256 17 q 58 376 58 208 q 106 570 58 493 q 228 684 153 647 q 392 721 304 721 q 632 589 563 721 l 638 589 q 760 697 676 664 l 760 793 l -15 793 l -15 1028 l 1294 1028 l 1294 793 l 1033 793 l 1033 689 q 1158 573 1111 651 q 1206 376 1206 494 q 1183 238 1206 304 l 1149 238 q 1090 228 1111 238 q 1068 192 1068 218 q 1149 147 1068 147 l 1238 147 l 1238 -61 l 1165 -61 q 1092 -71 1118 -61 q 1067 -111 1067 -81 q 1095 -151 1067 -142 q 1167 -161 1124 -161 z "},"ए":{"ha":907,"x_min":-15,"x_max":922,"o":"m 922 793 l 824 793 l 824 715 q 761 487 824 567 q 557 407 699 407 q 468 414 521 407 l 468 667 q 493 664 485 664 q 535 679 521 664 q 549 722 549 694 l 549 793 l 379 793 l 379 358 q 402 290 379 313 q 457 267 425 267 q 510 286 489 267 q 531 338 531 306 l 807 338 q 713 108 807 190 q 461 26 618 26 q 192 120 286 26 q 97 369 97 214 l 96 793 l -15 793 l -15 1028 l 922 1028 l 922 793 z "},"ऐ":{"ha":907,"x_min":-15,"x_max":922,"o":"m 922 793 l 824 793 l 824 715 q 761 487 824 567 q 557 407 699 407 q 468 414 521 407 l 468 667 q 493 664 485 664 q 535 679 521 664 q 549 722 549 694 l 549 793 l 379 793 l 379 358 q 402 290 379 313 q 457 267 425 267 q 510 286 489 267 q 531 338 531 306 l 807 338 q 713 108 807 190 q 461 26 618 26 q 192 120 286 26 q 97 369 97 214 l 96 793 l -15 793 l -15 1028 l 922 1028 l 922 793 m 547 1021 q 472 1124 500 1093 q 411 1167 444 1156 q 319 1179 378 1179 l 238 1179 l 238 1406 l 315 1406 q 515 1378 442 1404 q 653 1272 588 1351 q 811 1021 719 1193 l 547 1021 z "},"ओ":{"ha":1640,"x_min":71,"x_max":1656,"o":"m 1275 1021 q 1200 1124 1228 1093 q 1139 1167 1172 1156 q 1047 1179 1106 1179 l 965 1179 l 965 1406 l 1043 1406 q 1242 1378 1169 1404 q 1381 1272 1315 1351 q 1539 1021 1447 1193 l 1275 1021 m 1190 1028 l 1190 793 l 1083 793 l 1083 0 l 801 0 l 801 308 l 699 308 q 605 147 682 206 q 410 88 528 88 q 231 125 307 88 q 113 231 154 163 q 71 388 71 299 l 335 388 q 349 347 335 364 q 392 329 364 329 q 433 346 418 329 q 447 389 447 363 q 425 440 447 421 q 360 458 403 458 l 292 458 l 292 685 l 360 685 q 417 700 394 685 q 440 746 440 715 q 426 786 440 771 q 390 801 413 801 q 353 786 367 801 q 339 749 339 771 l 79 749 q 117 900 79 833 q 226 1003 156 967 q 390 1040 296 1040 q 610 971 529 1040 q 690 783 690 901 q 656 659 690 711 q 558 581 621 607 l 558 575 q 625 540 599 563 l 801 540 l 801 1028 l 1190 1028 m 1267 793 l 1160 793 l 1160 1028 l 1656 1028 l 1656 793 l 1550 793 l 1550 0 l 1267 0 l 1267 793 z "},"औ":{"ha":1640,"x_min":71,"x_max":1656,"o":"m 1024 1515 q 1213 1489 1150 1515 q 1340 1367 1275 1463 q 1535 1024 1406 1271 l 1293 1024 q 1236 1054 1282 1029 q 1168 1087 1189 1079 q 1122 1097 1147 1094 q 1025 1099 1096 1099 l 940 1099 l 940 1272 l 1018 1272 q 1121 1269 1089 1272 q 1182 1256 1153 1267 q 1249 1218 1211 1244 q 1177 1302 1211 1276 q 1113 1334 1143 1328 q 1031 1340 1082 1340 l 940 1340 l 940 1515 l 1024 1515 m 1190 1028 l 1190 793 l 1083 793 l 1083 0 l 801 0 l 801 308 l 699 308 q 605 147 682 206 q 410 88 528 88 q 231 125 307 88 q 113 231 154 163 q 71 388 71 299 l 335 388 q 349 347 335 364 q 392 329 364 329 q 433 346 418 329 q 447 389 447 363 q 425 440 447 421 q 360 458 403 458 l 292 458 l 292 685 l 360 685 q 417 700 394 685 q 440 746 440 715 q 426 786 440 771 q 390 801 413 801 q 353 786 367 801 q 339 749 339 771 l 79 749 q 117 900 79 833 q 226 1003 156 967 q 390 1040 296 1040 q 610 971 529 1040 q 690 783 690 901 q 656 659 690 711 q 558 581 621 607 l 558 575 q 625 540 599 563 l 801 540 l 801 1028 l 1190 1028 m 1267 793 l 1160 793 l 1160 1028 l 1656 1028 l 1656 793 l 1550 793 l 1550 0 l 1267 0 l 1267 793 z "},"ऍ":{"ha":907,"x_min":-15,"x_max":922,"o":"m 922 793 l 824 793 l 824 715 q 761 487 824 567 q 557 407 699 407 q 468 414 521 407 l 468 667 q 493 664 485 664 q 535 679 521 664 q 549 722 549 694 l 549 793 l 379 793 l 379 358 q 402 290 379 313 q 457 267 425 267 q 510 286 489 267 q 531 338 531 306 l 807 338 q 713 108 807 190 q 461 26 618 26 q 192 120 286 26 q 97 369 97 214 l 96 793 l -15 793 l -15 1028 l 922 1028 l 922 793 m 454 1122 q 181 1208 271 1122 q 90 1446 90 1293 l 332 1446 q 362 1360 332 1392 q 454 1329 392 1329 q 547 1360 517 1329 q 576 1446 576 1392 l 818 1446 q 728 1208 818 1293 q 454 1122 638 1122 z "},"ॲ":{"ha":1183,"x_min":71,"x_max":1317,"o":"m 1190 1028 l 1190 793 l 1083 793 l 1083 0 l 801 0 l 801 308 l 699 308 q 605 147 682 206 q 410 88 528 88 q 231 125 307 88 q 113 231 154 163 q 71 388 71 299 l 335 388 q 349 347 335 364 q 392 329 364 329 q 433 346 418 329 q 447 389 447 363 q 425 440 447 421 q 360 458 403 458 l 292 458 l 292 685 l 360 685 q 417 700 394 685 q 440 746 440 715 q 426 786 440 771 q 390 801 413 801 q 353 786 367 801 q 339 749 339 771 l 79 749 q 117 900 79 833 q 226 1003 156 967 q 390 1040 296 1040 q 610 971 529 1040 q 690 783 690 901 q 656 659 690 711 q 558 581 621 607 l 558 575 q 625 540 599 563 l 801 540 l 801 1028 l 1190 1028 m 953 1131 q 679 1216 769 1131 q 589 1454 589 1301 l 831 1454 q 860 1369 831 1400 q 953 1338 890 1338 q 1045 1369 1015 1338 q 1075 1454 1075 1400 l 1317 1454 q 1226 1216 1317 1301 q 953 1131 1136 1131 z "},"ऑ":{"ha":1640,"x_min":71,"x_max":1656,"o":"m 1190 1028 l 1190 793 l 1083 793 l 1083 0 l 801 0 l 801 308 l 699 308 q 605 147 682 206 q 410 88 528 88 q 231 125 307 88 q 113 231 154 163 q 71 388 71 299 l 335 388 q 349 347 335 364 q 392 329 364 329 q 433 346 418 329 q 447 389 447 363 q 425 440 447 421 q 360 458 403 458 l 292 458 l 292 685 l 360 685 q 417 700 394 685 q 440 746 440 715 q 426 786 440 771 q 390 801 413 801 q 353 786 367 801 q 339 749 339 771 l 79 749 q 117 900 79 833 q 226 1003 156 967 q 390 1040 296 1040 q 610 971 529 1040 q 690 783 690 901 q 656 659 690 711 q 558 581 621 607 l 558 575 q 625 540 599 563 l 801 540 l 801 1028 l 1190 1028 m 1267 793 l 1160 793 l 1160 1028 l 1656 1028 l 1656 793 l 1550 793 l 1550 0 l 1267 0 l 1267 793 m 1182 1122 q 908 1208 999 1122 q 818 1446 818 1293 l 1060 1446 q 1090 1360 1060 1392 q 1182 1329 1119 1329 q 1274 1360 1244 1329 q 1304 1446 1304 1392 l 1546 1446 q 1456 1208 1546 1293 q 1182 1122 1365 1122 z "},"ा":{"ha":465,"x_min":-15,"x_max":481,"o":"m 92 793 l -15 793 l -15 1028 l 481 1028 l 481 793 l 375 793 l 375 0 l 92 0 l 92 793 z "},"ि":{"ha":465,"x_min":-15,"x_max":1310,"o":"m 700 1463 q 1031 1399 893 1463 q 1240 1229 1169 1336 q 1310 992 1310 1122 l 1310 967 l 1026 967 l 1026 986 q 984 1118 1026 1063 q 867 1203 942 1174 q 700 1233 793 1233 q 476 1178 567 1233 q 374 1028 386 1124 l 481 1028 l 481 793 l 375 793 l 375 0 l 92 0 l 92 793 l -15 793 l -15 1028 l 93 1028 q 174 1249 101 1150 q 380 1405 246 1347 q 700 1463 514 1463 z "},"ी":{"ha":465,"x_min":-375,"x_max":481,"o":"m 481 1028 l 481 793 l 375 793 l 375 0 l 92 0 l 92 793 l -15 793 l -15 1028 l 100 1028 l 100 1076 q 81 1181 100 1138 q 3 1225 63 1225 q -81 1181 -61 1225 q -100 1076 -100 1138 l -100 967 l -375 967 l -375 1063 q -285 1356 -375 1250 q 3 1463 -196 1463 q 375 1063 375 1463 l 375 1028 l 481 1028 z "},"ु":{"ha":0,"x_min":-690,"x_max":19,"o":"m -306 -507 q -494 -473 -407 -507 q -635 -362 -581 -439 q -690 -164 -690 -286 l -440 -164 q -407 -258 -442 -228 q -312 -287 -372 -287 q -243 -269 -267 -287 q -219 -218 -219 -251 q -244 -165 -219 -185 q -315 -146 -268 -146 l -375 -146 l -375 72 l -315 72 q -65 -3 -150 72 q 19 -221 19 -79 q -69 -430 19 -353 q -306 -507 -157 -507 z "},"ू":{"ha":0,"x_min":-567,"x_max":149,"o":"m -278 -481 q -422 -451 -357 -481 q -527 -362 -487 -422 q -567 -214 -567 -301 q -476 -10 -567 -83 q -242 63 -386 63 q 64 -63 -21 63 q 149 -375 149 -189 q 146 -474 149 -410 l -83 -474 l -83 -367 q -121 -201 -83 -256 q -247 -146 -158 -146 q -313 -162 -285 -146 q -342 -215 -342 -179 q -317 -265 -342 -249 q -258 -281 -293 -281 l -226 -281 l -226 -481 l -278 -481 z "},"ृ":{"ha":0,"x_min":-521,"x_max":-18,"o":"m -189 -489 q -350 -461 -275 -489 q -473 -370 -425 -433 q -521 -207 -521 -307 q -434 -8 -521 -82 q -193 67 -347 67 q -92 64 -122 67 l -92 -125 l -168 -125 q -228 -144 -207 -125 q -249 -196 -249 -164 q -219 -249 -249 -233 q -142 -265 -189 -265 q -18 -246 -87 -265 l -18 -464 q -189 -489 -99 -489 z "},"ॄ":{"ha":0,"x_min":-460,"x_max":54,"o":"m -135 -699 q -365 -642 -271 -699 q -460 -464 -460 -585 q -419 -350 -460 -399 q -312 -286 -379 -301 l -312 -281 q -458 -115 -458 -247 q -422 -9 -458 -50 q -331 49 -385 32 q -222 67 -276 67 l -92 67 l -92 -83 l -108 -83 q -167 -93 -146 -83 q -187 -129 -187 -103 q -108 -175 -187 -175 l -19 -175 l -19 -382 l -90 -382 q -163 -392 -137 -382 q -189 -433 -189 -403 q -161 -472 -189 -462 q -90 -482 -133 -482 q 54 -461 -18 -482 l 54 -669 q -33 -691 19 -683 q -135 -699 -86 -699 z "},"ॢ":{"ha":0,"x_min":-674,"x_max":232,"o":"m 169 -503 q 232 -496 206 -503 l 232 -668 q 140 -675 179 -675 q -49 -619 22 -675 q -121 -465 -121 -564 q -90 -367 -121 -410 q -11 -301 -58 -324 l -11 -296 q -28 -242 -11 -262 q -72 -222 -44 -222 q -122 -247 -107 -222 q -137 -304 -137 -271 l -137 -342 l -318 -342 l -318 -304 q -333 -247 -318 -271 q -383 -222 -349 -222 q -435 -242 -417 -222 q -453 -299 -453 -262 q -374 -383 -453 -383 q -347 -381 -357 -383 l -347 -571 l -383 -571 q -597 -497 -521 -571 q -674 -296 -674 -424 q -637 -147 -674 -207 q -543 -60 -601 -87 q -418 -32 -485 -32 q -235 -132 -289 -32 l -231 -132 q -156 -59 -206 -86 q -39 -32 -107 -32 q 83 -60 26 -32 q 176 -147 140 -87 q 211 -296 211 -207 q 194 -401 211 -347 l 186 -401 q 109 -415 131 -401 q 88 -456 88 -428 q 110 -490 88 -478 q 169 -503 133 -503 z "},"ॣ":{"ha":0,"x_min":-674,"x_max":285,"o":"m 175 -706 q 285 -690 229 -706 l 285 -850 q 218 -865 258 -860 q 139 -871 178 -871 q -36 -828 35 -871 q -107 -693 -107 -786 q -76 -603 -107 -640 q 4 -556 -46 -567 l 4 -553 q -76 -510 -46 -542 q -107 -424 -107 -478 q -81 -344 -107 -375 q -11 -299 -54 -312 l -11 -296 q -28 -242 -11 -262 q -72 -222 -44 -222 q -122 -247 -107 -222 q -137 -304 -137 -271 l -137 -342 l -318 -342 l -318 -304 q -333 -247 -318 -271 q -383 -222 -349 -222 q -435 -242 -417 -222 q -453 -299 -453 -262 q -374 -383 -453 -383 q -347 -381 -357 -383 l -347 -571 l -383 -571 q -597 -497 -521 -571 q -674 -296 -674 -424 q -637 -147 -674 -207 q -543 -60 -601 -87 q -418 -32 -485 -32 q -235 -132 -289 -32 l -231 -132 q -156 -59 -206 -86 q -39 -32 -107 -32 q 83 -60 26 -32 q 176 -147 140 -87 q 211 -296 211 -207 q 194 -401 211 -347 l 163 -401 q 116 -409 132 -401 q 100 -436 100 -417 q 164 -469 100 -469 l 229 -469 l 229 -629 l 175 -629 q 118 -637 138 -629 q 99 -669 99 -644 q 119 -699 99 -692 q 175 -706 140 -706 z "},"े":{"ha":0,"x_min":-668,"x_max":-94,"o":"m -358 1021 q -433 1124 -406 1093 q -494 1167 -461 1156 q -586 1179 -528 1179 l -668 1179 l -668 1406 l -590 1406 q -391 1378 -464 1404 q -252 1272 -318 1351 q -94 1021 -186 1193 l -358 1021 z "},"ै":{"ha":0,"x_min":-690,"x_max":-96,"o":"m -607 1515 q -418 1489 -481 1515 q -290 1367 -356 1463 q -96 1024 -225 1271 l -337 1024 q -394 1054 -349 1029 q -462 1087 -442 1079 q -509 1097 -483 1094 q -606 1099 -535 1099 l -690 1099 l -690 1272 l -612 1272 q -510 1269 -542 1272 q -449 1256 -478 1267 q -382 1218 -419 1244 q -453 1302 -419 1276 q -518 1334 -487 1328 q -600 1340 -549 1340 l -690 1340 l -690 1515 l -607 1515 z "},"ो":{"ha":467,"x_min":-201,"x_max":481,"o":"m 92 793 l -15 793 l -15 1028 l 481 1028 l 481 793 l 375 793 l 375 0 l 92 0 l 92 793 m 108 1021 q 33 1124 61 1093 q -28 1167 6 1156 q -119 1179 -61 1179 l -201 1179 l -201 1406 l -124 1406 q 76 1378 3 1404 q 215 1272 149 1351 q 372 1021 281 1193 l 108 1021 z "},"ौ":{"ha":465,"x_min":-233,"x_max":481,"o":"m 92 793 l -15 793 l -15 1028 l 481 1028 l 481 793 l 375 793 l 375 0 l 92 0 l 92 793 m -150 1515 q 39 1489 -24 1515 q 167 1367 101 1463 q 361 1024 232 1271 l 119 1024 q 63 1054 108 1029 q -6 1087 15 1079 q -52 1097 -26 1094 q -149 1099 -78 1099 l -233 1099 l -233 1272 l -156 1272 q -53 1269 -85 1272 q 8 1256 -21 1267 q 75 1218 38 1244 q 3 1302 38 1276 q -61 1334 -31 1328 q -143 1340 -92 1340 l -233 1340 l -233 1515 l -150 1515 z "},"ॅ":{"ha":0,"x_min":-611,"x_max":117,"o":"m -247 1121 q -521 1206 -431 1121 q -611 1444 -611 1292 l -369 1444 q -340 1359 -369 1390 q -247 1328 -310 1328 q -155 1359 -185 1328 q -125 1444 -125 1390 l 117 1444 q 26 1206 117 1292 q -247 1121 -64 1121 z "},"ॉ":{"ha":468,"x_min":-131,"x_max":597,"o":"m 93 793 l -14 793 l -14 1028 l 482 1028 l 482 793 l 376 793 l 376 0 l 93 0 l 93 793 m 233 1121 q -40 1206 50 1121 q -131 1444 -131 1292 l 111 1444 q 141 1359 111 1390 q 233 1328 171 1328 q 326 1359 296 1328 q 356 1444 356 1390 l 597 1444 q 507 1206 597 1292 q 233 1121 417 1121 z "},"क":{"ha":1314,"x_min":-15,"x_max":1329,"o":"m 806 793 l 806 640 q 981 713 867 713 q 1131 669 1069 713 q 1224 553 1193 626 q 1256 393 1256 481 q 1219 224 1256 296 q 1119 115 1183 153 q 971 78 1054 78 q 872 90 921 78 l 872 310 q 893 307 881 307 q 947 328 926 307 q 968 386 968 350 q 948 447 968 422 q 888 472 928 472 q 827 446 849 472 q 806 371 806 419 l 806 0 l 533 0 l 533 139 q 339 60 468 60 q 188 102 251 60 q 92 218 125 144 q 58 386 58 292 q 135 623 58 533 q 350 713 211 713 q 533 640 472 713 l 533 793 l -15 793 l -15 1028 l 1329 1028 l 1329 793 l 806 793 m 439 297 q 506 323 479 297 q 533 388 533 349 q 508 449 533 425 q 440 474 482 474 q 372 449 399 474 q 346 385 346 424 q 371 322 346 346 q 439 297 396 297 z "},"ख":{"ha":1357,"x_min":-15,"x_max":1372,"o":"m 1372 1028 l 1372 793 l 1267 793 l 1267 0 l 985 0 l 985 174 q 850 132 936 132 q 808 135 833 132 q 676 27 756 67 q 494 -12 596 -12 q 187 98 299 -12 q 75 413 75 208 l 75 564 l 101 564 q 240 604 199 564 q 282 726 282 644 l 282 793 l -15 793 l -15 1028 l 1372 1028 m 501 231 q 619 275 581 231 q 588 421 588 342 q 621 567 588 501 q 714 669 654 632 q 850 707 774 707 q 985 663 933 707 l 985 793 l 567 793 l 567 686 q 510 475 567 557 q 356 372 454 393 q 396 270 358 310 q 501 231 433 231 m 914 346 q 965 366 946 346 q 985 421 985 386 q 967 474 985 453 q 914 494 949 494 q 860 475 881 494 q 839 421 839 456 q 860 365 839 385 q 914 346 881 346 z "},"ग":{"ha":1193,"x_min":-15,"x_max":1208,"o":"m 1208 1028 l 1208 793 l 1101 793 l 1101 0 l 818 0 l 818 793 l 689 793 l 689 518 q 609 278 689 368 q 369 188 529 188 q 126 267 213 188 q 39 504 39 347 q 40 550 39 535 l 314 550 l 314 506 q 324 448 314 468 q 361 428 335 428 q 397 449 388 428 q 406 506 406 471 l 406 793 l -15 793 l -15 1028 l 1208 1028 z "},"घ":{"ha":960,"x_min":-15,"x_max":975,"o":"m 975 793 l 871 793 l 871 0 l 586 0 l 586 199 q 369 121 507 121 q 222 150 289 121 q 116 236 156 179 q 76 374 76 293 q 113 495 76 444 q 203 567 150 546 l 203 572 q 119 635 150 590 q 89 753 89 679 l 89 793 l -15 793 l -15 1028 l 975 1028 l 975 793 m 586 793 l 372 793 l 372 767 q 391 707 372 728 q 456 686 410 686 l 504 686 l 504 460 l 433 460 q 382 444 400 460 q 364 404 364 429 q 385 364 364 378 q 440 350 406 350 q 545 388 504 350 q 586 492 586 426 l 586 793 z "},"ङ":{"ha":1011,"x_min":-15,"x_max":1026,"o":"m 1026 1028 l 1026 793 l 663 793 l 663 533 l 399 533 q 367 525 379 533 q 356 503 356 517 q 397 471 356 471 l 458 471 q 664 411 581 471 q 747 222 747 351 q 662 35 747 103 q 421 -33 576 -33 q 164 36 267 -33 q 53 235 61 106 l 335 235 q 361 190 338 203 q 413 178 385 178 q 460 190 442 178 q 479 225 479 201 q 406 274 479 274 l 361 274 q 162 323 251 274 q 72 513 72 372 q 143 674 72 617 q 328 731 214 731 l 390 731 l 390 793 l -15 793 l -15 1028 l 1026 1028 m 864 632 q 965 591 924 632 q 1006 490 1006 550 q 965 392 1006 433 q 864 351 924 351 q 765 392 806 351 q 724 490 724 433 q 765 591 724 550 q 864 632 806 632 z "},"च":{"ha":1063,"x_min":-15,"x_max":1078,"o":"m 1078 793 l 971 793 l 971 0 l 688 0 l 688 186 q 590 122 649 143 q 461 100 532 100 q 261 169 339 100 q 183 354 183 238 q 224 478 183 426 l 71 478 l 71 699 l 590 699 l 590 478 l 526 478 q 472 460 494 478 q 449 407 449 442 q 475 352 449 371 q 546 333 501 333 q 653 383 618 333 q 688 526 688 433 l 688 793 l -15 793 l -15 1028 l 1078 1028 l 1078 793 z "},"छ":{"ha":1150,"x_min":-15,"x_max":1165,"o":"m 932 793 l 932 714 q 1052 610 1010 682 q 1094 438 1094 538 q 1033 219 1094 313 q 852 74 972 125 q 561 22 732 22 q 207 100 339 22 q 75 332 75 178 q 201 538 75 476 l 201 543 q 119 604 150 560 q 89 724 89 649 l 89 793 l -15 793 l -15 1028 l 1165 1028 l 1165 793 l 932 793 m 671 793 l 372 793 l 372 736 q 438 656 372 656 l 464 656 l 464 431 l 443 431 q 384 410 406 431 q 363 360 363 390 q 408 288 363 314 q 564 263 453 263 q 778 308 710 263 q 847 451 847 354 q 835 508 847 485 q 800 532 824 532 q 763 510 775 532 q 750 454 750 489 q 764 361 750 410 l 533 361 q 517 486 517 414 q 558 633 517 575 q 671 717 599 690 l 671 793 z "},"ज":{"ha":1211,"x_min":-15,"x_max":1226,"o":"m 1226 793 l 1121 793 l 1121 0 l 838 0 l 838 428 l 743 428 q 697 263 739 335 q 580 151 656 192 q 403 111 504 111 q 142 201 232 111 q 51 443 51 292 l 51 668 l 336 668 l 336 451 q 403 358 336 358 q 467 451 467 358 l 467 668 l 838 668 l 838 793 l -15 793 l -15 1028 l 1226 1028 l 1226 793 z "},"झ":{"ha":1225,"x_min":-15,"x_max":1240,"o":"m 1240 793 l 1133 793 l 1133 0 l 856 0 l 856 260 l 722 260 q 731 183 731 225 q 671 31 731 89 q 510 -28 611 -28 q 429 -18 467 -28 q 368 7 392 -8 l 368 -124 l 101 -124 l 101 233 l 356 233 q 372 192 356 206 q 417 178 389 178 q 457 190 443 178 q 471 224 471 203 q 396 274 471 274 q 300 276 339 274 q 135 338 206 282 q 64 504 64 394 q 134 675 64 617 q 319 733 204 733 l 382 733 l 382 793 l -15 793 l -15 1028 l 1240 1028 l 1240 793 m 856 471 l 856 793 l 656 793 l 656 533 l 390 533 q 360 525 371 533 q 349 501 349 517 q 392 471 349 471 l 451 471 l 856 471 z "},"ञ":{"ha":1182,"x_min":-15,"x_max":1197,"o":"m 1197 793 l 1092 793 l 1092 0 l 808 0 l 808 272 l 715 272 q 600 103 686 163 q 394 43 514 43 q 228 76 303 43 q 108 176 153 110 q 58 333 63 242 l 325 333 q 354 292 333 304 q 397 281 375 281 q 454 308 433 281 q 475 381 475 336 q 454 451 475 422 q 397 479 433 479 q 354 467 375 479 q 325 428 333 456 l 58 428 q 108 585 63 519 q 228 685 153 651 q 394 719 303 719 q 592 665 508 719 q 710 510 676 611 l 808 510 l 808 793 l -15 793 l -15 1028 l 1197 1028 l 1197 793 z "},"ट":{"ha":893,"x_min":-15,"x_max":908,"o":"m 481 485 q 381 453 421 485 q 342 365 342 421 q 375 283 342 314 q 467 251 408 251 q 563 285 528 251 q 597 375 597 319 l 867 375 q 819 181 867 264 q 682 52 771 97 q 474 7 593 7 q 257 51 351 7 q 110 178 163 96 q 58 368 58 260 q 101 542 58 465 q 227 666 144 619 q 425 719 310 713 l 425 793 l -15 793 l -15 1028 l 908 1028 l 908 793 l 703 793 l 703 485 l 481 485 z "},"ठ":{"ha":928,"x_min":-15,"x_max":943,"o":"m 601 793 l 601 724 q 796 605 721 692 q 871 383 871 518 q 817 192 871 274 q 672 69 764 111 q 464 26 579 26 q 257 69 349 26 q 112 192 165 111 q 58 383 58 274 q 131 603 58 517 q 322 722 204 689 l 322 793 l -15 793 l -15 1028 l 943 1028 l 943 793 l 601 793 m 464 261 q 556 295 522 261 q 589 383 589 329 q 556 471 589 438 q 464 504 524 504 q 374 471 407 504 q 340 383 340 438 q 374 295 340 329 q 464 261 407 261 z "},"ड":{"ha":778,"x_min":-15,"x_max":793,"o":"m 399 533 q 367 525 379 533 q 356 503 356 517 q 397 471 356 471 l 458 471 q 664 411 581 471 q 747 222 747 351 q 662 35 747 103 q 421 -33 576 -33 q 164 36 267 -33 q 53 235 61 106 l 335 235 q 361 190 338 203 q 413 178 385 178 q 460 190 442 178 q 479 225 479 201 q 406 274 479 274 l 361 274 q 162 323 251 274 q 72 513 72 372 q 143 674 72 617 q 328 731 214 731 l 389 731 l 389 793 l -15 793 l -15 1028 l 793 1028 l 793 793 l 663 793 l 663 533 l 399 533 z "},"ढ":{"ha":922,"x_min":-15,"x_max":938,"o":"m 551 544 q 394 494 456 544 q 332 356 332 444 q 379 225 332 275 q 529 175 426 175 q 634 197 594 175 q 674 263 674 218 q 664 291 674 281 q 638 301 654 301 q 613 292 622 301 q 603 268 603 282 q 607 249 603 257 l 408 249 q 401 308 401 283 q 469 450 401 400 q 650 500 536 500 q 844 435 775 500 q 914 263 914 371 q 814 49 914 124 q 524 -26 714 -26 q 286 19 392 -26 q 119 154 181 65 q 58 368 58 243 q 110 565 58 482 q 252 692 161 649 q 458 736 343 736 l 467 736 l 467 793 l -15 793 l -15 1028 l 938 1028 l 938 793 l 732 793 l 732 544 l 551 544 z "},"ण":{"ha":1279,"x_min":-15,"x_max":1294,"o":"m 1294 793 l 1188 793 l 1188 0 l 904 0 l 904 793 l 772 793 l 772 492 q 687 257 772 347 q 439 167 601 167 q 253 210 328 167 q 141 326 178 253 q 104 492 104 400 l 104 793 l -15 793 l -15 1028 l 1294 1028 l 1294 793 m 494 793 l 381 793 l 381 465 q 397 421 381 438 q 439 404 413 404 q 481 421 467 404 q 494 465 494 438 l 494 793 z "},"त":{"ha":996,"x_min":-15,"x_max":1011,"o":"m 1011 793 l 904 793 l 904 0 l 621 0 l 621 436 l 467 436 q 378 407 413 436 q 344 331 344 378 q 374 252 344 282 q 465 222 404 222 l 488 222 l 488 1 l 419 1 q 161 83 264 1 q 58 338 58 165 q 112 528 58 451 q 255 641 165 604 q 453 678 344 678 l 621 678 l 621 793 l -15 793 l -15 1028 l 1011 1028 l 1011 793 z "},"थ":{"ha":1128,"x_min":56,"x_max":1143,"o":"m 1143 1028 l 1143 793 l 1036 793 l 1036 0 l 753 0 l 753 229 q 640 137 717 174 q 461 100 564 100 q 250 149 342 100 q 107 289 158 197 q 56 506 56 381 q 64 622 56 574 l 175 622 q 353 651 292 622 q 414 749 414 681 q 402 785 414 771 q 372 800 390 800 q 339 786 351 800 q 326 744 326 772 q 332 703 326 728 l 78 703 q 72 751 72 739 q 114 911 72 846 q 224 1008 156 976 q 375 1040 293 1040 q 533 1004 464 1040 q 640 900 601 968 q 679 740 679 832 q 594 521 679 608 q 335 424 508 433 q 389 360 349 386 q 504 333 429 333 q 683 406 614 333 q 753 617 753 478 l 753 1028 l 1143 1028 z "},"द":{"ha":851,"x_min":-15,"x_max":867,"o":"m 460 467 q 378 440 407 467 q 349 369 349 414 q 371 306 349 329 q 432 283 393 283 q 492 308 471 283 q 513 371 513 332 l 775 371 l 775 -61 l 499 -61 l 499 110 q 349 61 446 61 q 207 95 274 61 q 99 200 140 129 q 58 376 58 271 q 105 555 58 481 q 235 669 151 629 q 429 708 319 708 l 450 708 l 450 793 l -15 793 l -15 1028 l 867 1028 l 865 793 l 735 793 l 735 467 l 460 467 z "},"ध":{"ha":1033,"x_min":72,"x_max":1063,"o":"m 1063 793 l 963 793 l 963 0 l 679 0 l 679 189 q 406 90 588 90 q 244 120 317 90 q 128 208 171 150 q 85 349 85 267 q 131 479 85 429 q 239 547 178 529 l 239 553 q 120 635 168 576 q 72 786 72 694 q 108 922 72 865 q 206 1010 143 979 q 346 1040 268 1040 q 540 973 471 1040 q 608 796 608 906 q 606 733 608 761 l 399 733 l 400 758 q 388 792 400 781 q 357 804 375 804 q 324 790 336 804 q 311 754 311 776 q 357 687 311 706 q 463 668 403 668 l 549 668 l 549 442 l 476 442 q 372 381 372 442 q 399 336 372 351 q 479 321 426 321 q 626 378 574 321 q 679 535 679 436 l 679 1028 l 1063 1028 l 1063 793 z "},"न":{"ha":1172,"x_min":-15,"x_max":1188,"o":"m 1188 793 l 1081 793 l 1081 0 l 797 0 l 797 447 l 671 447 q 693 329 693 394 q 651 177 693 239 q 540 85 610 115 q 388 54 471 54 q 226 91 301 54 q 103 199 150 128 q 57 368 57 271 q 105 543 57 472 q 233 648 153 614 q 411 682 314 682 l 797 682 l 797 793 l -15 793 l -15 1028 l 1188 1028 l 1188 793 m 392 292 q 448 313 426 292 q 469 369 469 335 q 448 425 469 403 q 392 447 426 447 q 334 425 357 447 q 311 369 311 403 q 333 313 311 335 q 392 292 356 292 z "},"प":{"ha":960,"x_min":-15,"x_max":975,"o":"m 975 793 l 869 793 l 869 0 l 586 0 l 586 251 q 397 189 515 189 q 224 237 296 189 q 115 369 151 285 q 79 557 79 453 l 79 793 l -15 793 l -15 1028 l 975 1028 l 975 793 m 586 793 l 363 793 l 363 557 q 390 463 363 499 q 472 426 418 426 q 557 463 528 426 q 586 556 586 499 l 586 793 z "},"फ":{"ha":1367,"x_min":-15,"x_max":1382,"o":"m 847 793 l 847 642 q 1036 713 915 713 q 1185 670 1124 713 q 1279 557 1247 628 q 1311 400 1311 486 q 1275 227 1311 300 q 1174 116 1239 154 q 1026 78 1110 78 q 917 94 967 78 l 917 310 q 949 306 933 306 q 1004 328 985 306 q 1024 386 1024 351 q 1003 447 1024 422 q 943 472 983 472 q 872 438 897 472 q 847 340 847 404 l 847 0 l 564 0 l 564 249 q 386 189 497 189 q 219 235 289 189 q 115 362 150 282 q 79 542 79 442 l 79 793 l -15 793 l -15 1028 l 1382 1028 l 1382 793 l 847 793 m 564 793 l 363 793 l 363 542 q 388 458 363 490 q 461 426 413 426 q 538 459 511 426 q 564 542 564 492 l 564 793 z "},"ब":{"ha":954,"x_min":-15,"x_max":969,"o":"m 969 1028 l 969 793 l 864 793 l 864 0 l 592 0 l 592 118 q 397 54 526 54 q 223 99 300 54 q 102 222 146 143 q 58 400 58 300 q 102 569 58 494 q 223 686 146 644 q 397 728 300 728 q 592 679 513 728 l 592 793 l -15 793 l -15 1028 l 969 1028 m 458 549 q 374 525 413 549 l 606 368 q 608 400 608 388 q 566 507 608 465 q 458 549 524 549 m 304 400 q 349 294 304 335 q 458 253 394 253 q 542 275 504 253 l 308 433 q 304 400 304 417 z "},"भ":{"ha":1236,"x_min":58,"x_max":1251,"o":"m 1251 1028 l 1251 793 l 1143 793 l 1143 0 l 860 0 l 860 424 l 724 424 l 724 385 q 640 140 724 229 q 394 50 556 50 q 218 88 294 50 q 100 194 142 125 q 58 354 58 263 q 155 578 58 503 q 400 654 251 654 l 460 654 l 460 742 q 417 800 460 800 q 385 785 396 800 q 374 746 374 769 q 378 707 374 728 l 94 707 q 89 757 89 735 q 169 961 89 882 q 406 1040 250 1040 q 650 944 576 1040 q 724 689 724 847 l 724 654 l 860 654 l 860 1028 l 1251 1028 m 460 424 l 408 424 q 344 406 368 424 q 321 356 321 389 q 340 306 321 322 q 389 289 358 289 q 442 311 425 289 q 460 369 460 333 l 460 424 z "},"म":{"ha":1221,"x_min":-15,"x_max":1236,"o":"m 1236 793 l 1129 793 l 1129 0 l 844 0 l 844 424 l 714 424 l 714 385 q 629 140 714 229 q 383 50 544 50 q 208 88 283 50 q 90 194 132 125 q 49 354 49 263 q 145 578 49 503 q 389 654 242 654 l 450 654 l 450 793 l -15 793 l -15 1028 l 1236 1028 l 1236 793 m 844 793 l 714 793 l 714 654 l 844 654 l 844 793 m 450 424 l 397 424 q 335 406 358 424 q 311 356 311 389 q 330 306 311 322 q 378 289 349 289 q 432 311 414 289 q 450 369 450 333 l 450 424 z "},"य":{"ha":1068,"x_min":-15,"x_max":1083,"o":"m 1083 793 l 976 793 l 976 0 l 693 0 l 693 168 q 446 88 601 88 q 165 193 265 88 q 64 479 64 299 q 71 575 64 519 l 82 575 q 225 621 190 575 q 260 750 260 667 l 260 793 l -15 793 l -15 1028 l 1083 1028 l 1083 793 m 693 793 l 539 793 l 539 697 q 495 526 539 596 q 347 436 451 456 q 395 355 353 388 q 508 322 438 322 q 646 378 599 322 q 693 521 693 433 l 693 793 z "},"र":{"ha":733,"x_min":-15,"x_max":749,"o":"m 661 757 q 592 493 661 593 q 350 383 524 393 l 350 276 q 388 228 350 228 q 415 242 406 228 q 424 276 424 256 l 424 322 l 694 322 q 696 286 696 306 q 616 68 696 149 q 393 -12 536 -12 q 217 27 290 -12 q 107 135 144 67 q 69 290 69 204 l 69 608 l 206 608 q 342 647 306 608 q 378 757 378 685 l 378 793 l -15 793 l -15 1028 l 749 1028 l 749 793 l 661 793 l 661 757 z "},"ल":{"ha":1278,"x_min":-15,"x_max":1293,"o":"m 1071 793 l 1071 663 q 1179 548 1139 622 q 1219 367 1219 474 q 1175 180 1219 261 q 1046 53 1131 99 q 842 7 961 7 q 793 8 815 7 l 793 254 l 829 251 q 903 280 874 251 q 932 363 932 308 q 908 435 932 408 q 843 463 885 463 q 776 431 797 463 q 756 356 756 399 l 756 315 l 522 315 l 522 356 q 501 431 522 399 q 435 463 481 463 q 369 435 393 463 q 346 363 346 408 q 375 280 346 308 q 449 251 404 251 l 485 254 l 485 8 q 436 7 463 7 q 232 53 317 7 q 103 180 147 99 q 58 367 58 261 q 106 560 58 483 q 228 674 153 638 q 392 711 304 711 q 636 581 563 711 l 640 581 q 793 700 692 672 l 793 793 l -15 793 l -15 1028 l 1293 1028 l 1293 793 l 1071 793 z "},"व":{"ha":919,"x_min":-15,"x_max":935,"o":"m 935 1028 l 935 793 l 829 793 l 829 0 l 553 0 l 553 132 q 365 57 485 57 q 199 101 268 57 q 94 222 129 146 q 58 394 58 299 q 94 560 58 486 q 199 676 129 633 q 365 718 268 718 q 553 646 483 718 l 553 793 l -15 793 l -15 1028 l 935 1028 m 446 282 q 523 313 493 282 q 553 389 553 343 q 523 464 553 435 q 446 493 493 493 q 366 463 396 493 q 336 388 336 432 q 366 313 336 343 q 446 282 396 282 z "},"श":{"ha":1225,"x_min":72,"x_max":1240,"o":"m 358 371 l 358 308 q 422 233 358 233 q 465 252 450 233 q 481 300 481 271 l 481 324 l 756 324 l 757 296 q 669 72 757 151 q 429 -8 581 -8 q 168 81 264 -8 q 72 325 72 171 l 72 607 l 260 607 q 420 634 358 607 q 482 736 482 661 q 470 779 482 763 q 433 796 458 796 q 394 778 407 796 q 382 732 382 761 l 382 694 l 100 694 q 97 742 97 725 q 138 896 97 828 q 255 1002 179 964 q 433 1040 331 1040 q 678 956 586 1040 q 769 718 769 871 q 657 458 769 544 q 368 371 544 371 l 358 371 m 1240 1028 l 1240 793 l 1135 793 l 1135 0 l 847 0 l 847 1028 l 1240 1028 z "},"ष":{"ha":986,"x_min":-15,"x_max":1001,"o":"m 1001 793 l 894 793 l 894 0 l 617 0 l 617 235 q 415 167 546 167 q 233 218 308 167 q 118 358 157 269 q 79 557 79 446 l 79 793 l -15 793 l -15 1028 l 1001 1028 l 1001 793 m 617 793 l 356 793 l 617 642 l 617 793 m 476 404 q 553 423 522 404 q 601 475 585 442 l 353 615 l 353 549 q 384 445 353 486 q 476 404 415 404 z "},"स":{"ha":1158,"x_min":-15,"x_max":1174,"o":"m 1174 793 l 1067 793 l 1067 0 l 783 0 l 783 374 l 350 374 l 350 279 q 361 242 350 257 q 394 228 372 228 q 426 242 415 228 q 436 276 436 256 l 436 294 l 708 294 q 710 260 710 279 q 628 61 710 135 q 400 -12 546 -12 q 220 28 294 -12 q 108 138 146 68 q 69 293 69 207 l 69 574 l 157 574 q 293 612 257 574 q 329 722 329 650 l 329 793 l -15 793 l -15 1028 l 1174 1028 l 1174 793 m 783 793 l 613 793 l 613 722 q 597 604 613 656 l 783 604 l 783 793 z "},"ह":{"ha":811,"x_min":-15,"x_max":826,"o":"m 428 539 q 394 529 407 539 q 381 500 381 519 q 389 476 381 488 q 429 478 403 478 q 669 403 585 478 q 765 200 753 329 l 494 200 q 471 240 490 225 q 422 256 451 256 q 368 232 392 256 q 344 164 344 208 q 368 93 344 117 q 422 69 392 69 q 469 83 449 69 q 494 119 489 97 l 765 119 q 663 -87 757 -12 q 422 -162 568 -162 q 238 -123 318 -162 q 113 -8 157 -83 q 68 168 68 67 q 97 305 68 246 q 181 404 126 364 q 100 558 100 460 q 159 688 100 638 q 324 738 218 738 l 390 738 l 390 793 l -15 793 l -15 1028 l 826 1028 l 826 793 l 660 793 l 660 539 l 428 539 z "},"ळ":{"ha":1303,"x_min":-15,"x_max":1318,"o":"m 1090 793 l 1090 649 q 1203 534 1161 607 q 1244 365 1244 461 q 1201 190 1244 265 q 1083 76 1157 115 q 921 36 1010 36 q 766 71 836 36 q 656 176 696 106 l 647 176 q 537 71 607 106 q 382 36 467 36 q 219 76 293 36 q 102 190 146 115 q 58 365 58 265 q 102 538 58 464 q 219 653 146 613 q 382 693 293 693 q 529 663 461 693 q 649 554 597 633 l 654 554 q 817 679 715 650 l 817 793 l -15 793 l -15 1028 l 1318 1028 l 1318 793 l 1090 793 m 425 276 q 489 301 464 276 q 514 365 514 325 q 488 429 514 404 q 425 454 463 454 q 360 429 385 454 q 335 364 335 404 q 360 300 335 324 q 425 276 385 276 m 878 276 q 943 300 918 276 q 968 364 968 324 q 943 429 968 404 q 878 454 918 454 q 814 429 839 454 q 789 365 789 404 q 814 301 789 325 q 878 276 839 276 z "},"क़":{"ha":1314,"x_min":-15,"x_max":1329,"o":"m 806 793 l 806 640 q 981 713 867 713 q 1131 669 1069 713 q 1224 553 1193 626 q 1256 393 1256 481 q 1219 224 1256 296 q 1119 115 1183 153 q 971 78 1054 78 q 872 90 921 78 l 872 310 q 893 307 881 307 q 947 328 926 307 q 968 386 968 350 q 948 447 968 422 q 888 472 928 472 q 827 446 849 472 q 806 371 806 419 l 806 0 l 533 0 l 533 139 q 339 60 468 60 q 188 102 251 60 q 92 218 125 144 q 58 386 58 292 q 135 623 58 533 q 350 713 211 713 q 533 640 472 713 l 533 793 l -15 793 l -15 1028 l 1329 1028 l 1329 793 l 806 793 m 439 297 q 506 323 479 297 q 533 388 533 349 q 508 449 533 425 q 440 474 482 474 q 372 449 399 474 q 346 385 346 424 q 371 322 346 346 q 439 297 396 297 m 301 -315 q 190 -270 236 -315 q 144 -160 144 -225 q 190 -47 144 -93 q 301 0 236 0 q 414 -47 368 0 q 460 -160 460 -93 q 414 -270 460 -225 q 301 -315 368 -315 z "},"ख़":{"ha":1357,"x_min":-15,"x_max":1372,"o":"m 1372 1028 l 1372 793 l 1267 793 l 1267 0 l 985 0 l 985 174 q 850 132 936 132 q 808 135 833 132 q 676 27 756 67 q 494 -12 596 -12 q 187 98 299 -12 q 75 413 75 208 l 75 564 l 101 564 q 240 604 199 564 q 282 726 282 644 l 282 793 l -15 793 l -15 1028 l 1372 1028 m 501 231 q 619 275 581 231 q 588 421 588 342 q 621 567 588 501 q 714 669 654 632 q 850 707 774 707 q 985 663 933 707 l 985 793 l 567 793 l 567 686 q 510 475 567 557 q 356 372 454 393 q 396 270 358 310 q 501 231 433 231 m 914 346 q 965 366 946 346 q 985 421 985 386 q 967 474 985 453 q 914 494 949 494 q 860 475 881 494 q 839 421 839 456 q 860 365 839 385 q 914 346 881 346 m 458 -382 q 347 -337 393 -382 q 301 -226 301 -292 q 347 -113 301 -160 q 458 -67 393 -67 q 571 -113 525 -67 q 617 -226 617 -160 q 571 -337 617 -292 q 458 -382 525 -382 z "},"ग़":{"ha":1192,"x_min":-15,"x_max":1208,"o":"m 1208 1028 l 1208 793 l 1101 793 l 1101 0 l 818 0 l 818 793 l 689 793 l 689 518 q 609 278 689 368 q 369 188 529 188 q 126 267 213 188 q 39 504 39 347 q 40 550 39 535 l 314 550 l 314 506 q 324 448 314 468 q 361 428 335 428 q 397 449 388 428 q 406 506 406 471 l 406 793 l -15 793 l -15 1028 l 1208 1028 m 368 -187 q 257 -142 303 -187 q 211 -32 211 -97 q 257 81 211 35 q 368 128 303 128 q 481 81 435 128 q 526 -32 526 35 q 481 -142 526 -97 q 368 -187 435 -187 z "},"ज़":{"ha":1211,"x_min":-15,"x_max":1226,"o":"m 1226 793 l 1121 793 l 1121 0 l 838 0 l 838 428 l 743 428 q 697 263 739 335 q 580 151 656 192 q 403 111 504 111 q 142 201 232 111 q 51 443 51 292 l 51 668 l 336 668 l 336 451 q 403 358 336 358 q 467 451 467 358 l 467 668 l 838 668 l 838 793 l -15 793 l -15 1028 l 1226 1028 l 1226 793 m 401 -262 q 290 -217 336 -262 q 244 -107 244 -172 q 290 6 244 -40 q 401 53 336 53 q 514 6 468 53 q 560 -107 560 -40 q 514 -217 560 -172 q 401 -262 468 -262 z "},"ड़":{"ha":778,"x_min":-15,"x_max":793,"o":"m 399 533 q 367 525 379 533 q 356 503 356 517 q 397 471 356 471 l 458 471 q 664 411 581 471 q 747 222 747 351 q 662 35 747 103 q 421 -33 576 -33 q 164 36 267 -33 q 53 235 61 106 l 335 235 q 361 190 338 203 q 413 178 385 178 q 460 190 442 178 q 479 225 479 201 q 406 274 479 274 l 361 274 q 162 323 251 274 q 72 513 72 372 q 143 674 72 617 q 328 731 214 731 l 389 731 l 389 793 l -15 793 l -15 1028 l 793 1028 l 793 793 l 663 793 l 663 533 l 399 533 m 421 -407 q 310 -362 356 -407 q 264 -251 264 -317 q 310 -138 264 -185 q 421 -92 356 -92 q 533 -138 488 -92 q 579 -251 579 -185 q 533 -362 579 -317 q 421 -407 488 -407 z "},"ढ़":{"ha":922,"x_min":-15,"x_max":938,"o":"m 551 544 q 394 494 456 544 q 332 356 332 444 q 379 225 332 275 q 529 175 426 175 q 634 197 594 175 q 674 263 674 218 q 664 291 674 281 q 638 301 654 301 q 613 292 622 301 q 603 268 603 282 q 607 249 603 257 l 408 249 q 401 308 401 283 q 469 450 401 400 q 650 500 536 500 q 844 435 775 500 q 914 263 914 371 q 814 49 914 124 q 524 -26 714 -26 q 286 19 392 -26 q 119 154 181 65 q 58 368 58 243 q 110 565 58 482 q 252 692 161 649 q 458 736 343 736 l 467 736 l 467 793 l -15 793 l -15 1028 l 938 1028 l 938 793 l 732 793 l 732 544 l 551 544 m 500 -399 q 389 -353 435 -399 q 343 -243 343 -308 q 389 -130 343 -176 q 500 -83 435 -83 q 613 -130 567 -83 q 658 -243 658 -176 q 613 -353 658 -308 q 500 -399 567 -399 z "},"फ़":{"ha":1367,"x_min":-15,"x_max":1382,"o":"m 847 793 l 847 642 q 1036 713 915 713 q 1185 670 1124 713 q 1279 557 1247 628 q 1311 400 1311 486 q 1275 227 1311 300 q 1174 116 1239 154 q 1026 78 1110 78 q 917 94 967 78 l 917 310 q 949 306 933 306 q 1004 328 985 306 q 1024 386 1024 351 q 1003 447 1024 422 q 943 472 983 472 q 872 438 897 472 q 847 340 847 404 l 847 0 l 564 0 l 564 249 q 386 189 497 189 q 219 235 289 189 q 115 362 150 282 q 79 542 79 442 l 79 793 l -15 793 l -15 1028 l 1382 1028 l 1382 793 l 847 793 m 564 793 l 363 793 l 363 542 q 388 458 363 490 q 461 426 413 426 q 538 459 511 426 q 564 542 564 492 l 564 793 m 286 -176 q 175 -131 221 -176 q 129 -21 129 -86 q 175 92 129 46 q 286 139 221 139 q 399 92 353 139 q 444 -21 444 46 q 399 -131 444 -86 q 286 -176 353 -176 z "},"ऱ":{"ha":733,"x_min":-15,"x_max":749,"o":"m 661 757 q 592 493 661 593 q 350 383 524 393 l 350 276 q 388 228 350 228 q 415 242 406 228 q 424 276 424 256 l 424 322 l 694 322 q 696 286 696 306 q 616 68 696 149 q 393 -12 536 -12 q 217 27 290 -12 q 107 135 144 67 q 69 290 69 204 l 69 608 l 206 608 q 342 647 306 608 q 378 757 378 685 l 378 793 l -15 793 l -15 1028 l 749 1028 l 749 793 l 661 793 l 661 757 m 144 -342 q 33 -297 79 -342 q -12 -186 -12 -251 q 33 -73 -12 -119 q 144 -26 79 -26 q 257 -73 211 -26 q 303 -186 303 -119 q 257 -297 303 -251 q 144 -342 211 -342 z "},"ं":{"ha":0,"x_min":-393,"x_max":-76,"o":"m -236 1110 q -347 1156 -301 1110 q -393 1267 -393 1201 q -347 1379 -393 1333 q -236 1425 -301 1425 q -123 1379 -169 1425 q -76 1267 -76 1333 q -123 1156 -76 1201 q -236 1110 -169 1110 z "},"ँ":{"ha":0,"x_min":-611,"x_max":117,"o":"m -250 1374 q -321 1403 -292 1374 q -350 1475 -350 1433 q -320 1547 -350 1517 q -250 1576 -290 1576 q -176 1547 -206 1576 q -147 1475 -147 1517 q -176 1403 -147 1432 q -250 1374 -206 1374 m -247 1121 q -517 1203 -424 1121 q -611 1444 -611 1286 l -387 1444 q -349 1354 -387 1389 q -247 1319 -311 1319 q -147 1354 -183 1319 q -110 1444 -110 1389 l 117 1444 q 23 1203 117 1286 q -247 1121 -71 1121 z "},"ः":{"ha":431,"x_min":57,"x_max":374,"o":"m 215 472 q 103 518 150 472 q 57 629 57 564 q 103 741 57 694 q 215 788 150 788 q 327 741 281 788 q 374 629 374 694 q 327 518 374 564 q 215 472 281 472 m 215 82 q 103 128 150 82 q 57 238 57 174 q 103 350 57 304 q 215 396 150 396 q 327 350 281 396 q 374 238 374 304 q 327 128 374 174 q 215 82 281 82 z "},"ऽ":{"ha":847,"x_min":63,"x_max":742,"o":"m 63 288 l 392 288 q 427 295 415 288 q 439 319 439 303 q 419 358 439 339 q 354 410 400 376 q 253 491 293 454 q 184 585 214 528 q 154 715 154 642 q 222 876 154 819 q 404 933 290 933 l 742 933 l 742 696 l 476 696 q 443 671 443 696 q 462 635 443 653 q 525 585 481 618 q 626 505 585 542 q 697 410 667 468 q 728 276 728 353 q 654 110 728 169 q 467 51 581 51 l 63 51 l 63 288 z "},"्":{"ha":0,"x_min":-369,"x_max":104,"o":"m -369 -71 l -89 -71 l 104 -401 l -183 -401 l -369 -71 z "},"़":{"ha":0,"x_min":-483,"x_max":-168,"o":"m -326 -465 q -437 -420 -392 -465 q -483 -310 -483 -375 q -437 -197 -483 -243 q -326 -150 -392 -150 q -214 -197 -260 -150 q -168 -310 -168 -243 q -214 -420 -168 -375 q -326 -465 -260 -465 z "},"०":{"ha":919,"x_min":44,"x_max":878,"o":"m 44 504 q 147 141 44 276 q 461 6 250 6 q 775 141 672 6 q 878 504 878 276 q 775 866 878 731 q 461 1001 672 1001 q 147 867 250 1001 q 44 504 44 732 m 574 504 q 551 351 574 406 q 461 297 529 297 q 369 351 392 297 q 347 504 347 406 q 369 656 347 603 q 461 710 392 710 q 551 656 529 710 q 574 504 574 603 z "},"१":{"ha":554,"x_min":14,"x_max":485,"o":"m 14 694 l 14 983 l 485 983 l 485 0 l 161 0 l 161 694 l 14 694 z "},"२":{"ha":786,"x_min":35,"x_max":757,"o":"m 39 246 q 327 490 221 383 q 433 682 433 597 q 385 751 433 751 q 345 727 357 751 q 333 636 333 703 l 35 636 q 91 849 39 765 q 226 971 143 932 q 410 1010 310 1010 q 666 924 585 1010 q 747 713 747 838 q 660 464 747 581 q 439 263 572 347 l 757 263 l 757 14 l 39 14 l 39 246 z "},"३":{"ha":854,"x_min":51,"x_max":783,"o":"m 421 1038 q 608 1000 531 1038 q 726 899 686 963 q 765 754 765 835 q 719 602 765 657 q 617 528 674 547 l 617 522 q 783 290 783 460 q 742 133 783 201 q 623 28 700 65 q 440 -10 546 -10 q 157 76 260 -10 q 51 346 54 163 l 351 346 q 366 270 349 296 q 426 244 383 244 q 468 263 451 244 q 485 313 485 282 q 459 372 485 351 q 372 392 433 392 l 321 392 l 321 640 l 371 640 q 465 715 465 635 q 451 767 465 750 q 414 783 436 783 q 363 697 363 783 l 63 697 q 159 950 67 863 q 421 1038 251 1038 z "},"४":{"ha":978,"x_min":72,"x_max":918,"o":"m 72 153 l 72 410 l 486 1000 l 818 1000 l 818 419 l 918 419 l 918 153 l 818 153 l 818 0 l 507 0 l 507 153 l 72 153 m 532 649 l 382 419 l 532 419 l 532 649 z "},"५":{"ha":917,"x_min":126,"x_max":861,"o":"m 811 744 l 408 744 l 408 628 q 477 665 435 651 q 572 679 519 679 q 732 635 667 679 q 829 516 797 590 q 861 351 861 442 q 767 92 861 185 q 510 0 674 0 q 303 42 390 0 q 172 157 217 83 q 129 325 126 231 l 429 325 q 444 283 429 303 q 494 264 460 264 q 546 289 529 264 q 563 357 563 314 q 544 418 563 397 q 490 439 525 439 q 446 425 461 439 q 431 393 431 411 l 131 393 l 131 1015 l 811 1015 l 811 744 z "},"६":{"ha":879,"x_min":72,"x_max":818,"o":"m 507 707 q 483 768 499 749 q 433 788 467 788 q 363 734 381 788 q 346 568 346 681 q 418 629 371 607 q 525 651 465 651 q 738 569 658 651 q 818 332 818 488 q 774 151 818 228 q 650 32 731 74 q 460 -10 569 -10 q 157 124 242 -10 q 72 500 72 258 q 111 806 72 689 q 234 978 150 922 q 453 1033 318 1033 q 702 939 618 1033 q 794 707 786 844 l 507 707 m 367 336 q 388 274 367 294 q 449 254 410 254 q 509 274 488 254 q 531 336 531 294 q 508 394 531 374 q 449 415 486 415 q 389 394 411 415 q 367 336 367 374 z "},"७":{"ha":711,"x_min":28,"x_max":697,"o":"m 697 769 l 358 0 l 42 0 l 383 732 l 28 732 l 28 996 l 697 996 l 697 769 z "},"८":{"ha":913,"x_min":67,"x_max":844,"o":"m 89 768 q 130 902 89 838 q 253 1008 171 967 q 456 1050 336 1050 q 658 1008 575 1050 q 781 902 740 967 q 822 768 822 838 q 791 642 822 694 q 704 558 760 590 q 844 313 844 476 q 792 133 844 207 q 650 22 739 60 q 456 -15 561 -15 q 261 22 350 -15 q 119 133 172 60 q 67 313 67 207 q 207 558 67 476 q 120 642 151 590 q 89 768 89 694 m 392 715 q 410 654 392 675 q 456 633 428 633 q 501 654 483 633 q 519 715 519 675 q 501 777 519 754 q 456 800 483 800 q 410 777 428 800 q 392 715 392 754 m 365 331 q 389 263 365 289 q 456 236 413 236 q 522 263 499 236 q 546 331 546 289 q 522 399 546 372 q 456 426 497 426 q 390 399 414 426 q 365 331 365 372 z "},"९":{"ha":829,"x_min":42,"x_max":788,"o":"m 353 317 q 378 256 360 276 q 431 236 397 236 q 498 288 482 236 q 514 456 514 340 q 442 394 489 417 q 335 372 394 372 q 122 454 201 372 q 42 692 42 536 q 85 873 42 796 q 210 992 129 950 q 400 1033 290 1033 q 635 972 550 1033 q 754 801 721 910 q 788 538 788 693 q 706 128 788 265 q 431 -10 625 -10 q 236 36 317 -10 q 113 156 156 82 q 65 317 71 231 l 353 317 m 493 688 q 472 749 493 729 q 411 769 450 769 q 351 749 372 769 q 329 688 329 729 q 351 629 329 650 q 411 608 374 608 q 471 629 449 608 q 493 688 493 650 z "},"ॐ":{"ha":1503,"x_min":85,"x_max":1418,"o":"m 767 1244 q 697 1274 726 1244 q 667 1346 667 1304 q 697 1419 667 1389 q 767 1449 726 1449 q 839 1419 810 1449 q 868 1346 868 1389 q 839 1274 868 1303 q 767 1244 810 1244 m 768 992 q 498 1074 592 992 q 404 1315 404 1157 l 628 1315 q 666 1226 628 1261 q 768 1192 704 1192 q 869 1226 832 1192 q 907 1315 907 1260 l 1133 1315 q 1039 1074 1133 1157 q 768 992 944 992 m 1093 944 q 1340 858 1261 944 q 1418 601 1418 771 l 1418 446 q 1315 126 1418 238 q 1028 14 1211 14 q 883 28 958 14 l 883 261 q 975 253 953 253 q 1106 305 1069 253 q 1143 456 1143 357 l 1143 640 q 1093 706 1143 706 q 1053 684 1065 706 q 1042 624 1042 663 q 1013 431 1042 501 q 916 325 985 360 q 721 289 847 290 l 721 285 q 683 141 721 203 q 576 46 644 79 q 421 13 508 13 q 242 50 318 13 q 125 155 165 88 q 85 311 85 222 l 349 311 q 363 272 349 289 q 404 254 378 254 q 447 271 432 254 q 461 314 461 288 q 439 365 461 346 q 374 385 417 385 l 306 385 l 306 622 l 374 622 q 431 638 408 622 q 454 685 454 653 q 440 724 454 708 q 404 739 426 739 q 367 724 381 739 q 353 686 353 710 l 92 686 q 131 839 92 772 q 242 942 169 906 q 410 979 314 979 q 629 909 549 979 q 710 721 710 839 q 674 595 710 649 q 576 515 639 542 l 576 510 l 581 508 l 657 508 q 730 518 704 508 q 767 553 756 528 q 778 626 778 578 q 851 865 778 786 q 1093 944 924 944 z "},"॰":{"ha":646,"x_min":79,"x_max":567,"o":"m 567 456 q 536 333 567 386 q 451 249 506 279 q 325 218 396 218 q 198 249 254 218 q 110 333 142 279 q 79 456 79 388 q 110 579 79 525 q 198 664 142 633 q 325 694 254 694 q 499 628 432 694 q 567 456 567 561 m 247 456 q 269 403 247 424 q 325 383 292 383 q 377 403 357 383 q 397 456 397 424 q 377 508 397 488 q 325 529 357 529 q 269 508 292 529 q 247 456 247 488 z "},"।":{"ha":532,"x_min":196,"x_max":476,"o":"m 476 0 l 196 0 l 196 1028 l 476 1028 l 476 0 z "},"॥":{"ha":965,"x_min":196,"x_max":910,"o":"m 476 0 l 196 0 l 196 1028 l 476 1028 l 476 0 m 910 0 l 628 0 l 628 1028 l 910 1028 l 910 0 z "},"₨":{"ha":1707,"x_min":69,"x_max":1678,"o":"m 901 661 q 847 486 901 563 q 689 376 792 410 l 903 0 l 564 0 l 378 353 l 378 0 l 69 0 l 69 983 l 528 983 q 732 941 647 983 q 859 826 817 899 q 901 661 901 753 m 1208 535 q 1239 504 1208 514 q 1343 481 1269 494 q 1508 443 1440 464 q 1627 373 1576 422 q 1678 240 1678 324 q 1640 113 1678 169 q 1527 23 1601 56 q 1350 -10 1453 -10 q 1072 63 1178 -10 q 944 271 967 135 l 1246 271 q 1346 217 1253 217 q 1400 247 1400 217 q 1369 280 1400 269 q 1263 304 1338 290 q 1101 340 1167 319 q 985 410 1035 361 q 936 546 936 460 q 975 670 936 614 q 1090 760 1014 726 q 1274 793 1167 793 q 1544 716 1444 793 q 1669 513 1644 639 l 1368 513 q 1269 565 1354 565 q 1208 535 1208 565 m 378 558 l 500 558 q 567 578 544 558 q 589 642 589 599 q 566 703 589 681 q 500 725 543 725 l 378 725 l 378 558 z "},"₹":{"ha":801,"x_min":42,"x_max":760,"o":"m 679 782 l 679 736 l 760 736 l 760 564 l 672 564 q 564 381 650 451 q 329 310 478 310 l 329 283 q 340 233 329 250 q 376 215 350 215 q 413 233 403 215 q 422 293 422 250 l 707 293 q 619 69 699 153 q 390 -14 540 -14 q 131 70 221 -14 q 42 336 42 154 l 42 507 q 241 510 176 507 q 339 526 306 514 q 383 564 372 538 l 42 564 l 42 736 l 392 736 l 392 782 l 42 782 l 42 983 l 760 983 l 760 782 l 679 782 z "},"‌":{"ha":0,"x_min":-32,"x_max":33,"o":"m -32 1126 l 33 1126 l 33 -319 l -32 -319 l -32 1126 z "},"‍":{"ha":0,"x_min":-178,"x_max":178,"o":"m 32 882 l 32 -319 l -33 -319 l -33 882 l -129 781 l -175 826 l -46 956 l -178 1088 l -132 1133 l 0 1001 l 133 1133 l 178 1089 l 44 956 l 178 824 l 132 778 l 32 882 z "},"◌":{"ha":904,"x_min":69,"x_max":835,"o":"m 418 633 q 375 649 392 633 q 358 692 358 665 q 375 734 358 718 q 418 750 392 750 q 461 734 444 750 q 478 692 478 718 q 461 649 478 665 q 418 633 444 633 m 586 613 q 543 628 560 613 q 526 671 526 644 q 543 713 526 697 q 586 729 560 729 q 629 713 613 729 q 646 671 646 697 q 629 628 646 644 q 586 613 613 613 m 256 575 q 213 591 229 575 q 196 633 196 607 q 213 676 196 660 q 256 692 229 692 q 299 676 282 692 q 315 633 315 660 q 299 591 315 607 q 256 575 282 575 m 714 510 q 671 526 688 510 q 654 568 654 542 q 671 610 654 594 q 714 626 688 626 q 757 610 740 626 q 774 568 774 594 q 757 526 774 542 q 714 510 740 510 m 150 438 q 107 453 124 438 q 90 496 90 469 q 107 538 90 522 q 150 554 124 554 q 193 538 176 554 q 210 496 210 522 q 193 453 210 469 q 150 438 176 438 m 775 351 q 732 367 749 351 q 715 410 715 383 q 732 452 715 436 q 775 468 749 468 q 818 452 801 468 q 835 410 835 436 q 818 367 835 383 q 775 351 801 351 m 129 269 q 86 285 103 269 q 69 328 69 301 q 86 370 69 354 q 129 386 103 386 q 172 370 156 386 q 189 328 189 354 q 172 285 189 301 q 129 269 156 269 m 761 185 q 718 201 735 185 q 701 243 701 217 q 718 285 701 269 q 761 301 735 301 q 804 285 788 301 q 821 243 821 269 q 804 201 821 217 q 761 185 788 185 m 192 113 q 149 128 165 113 q 132 171 132 144 q 149 213 132 197 q 192 229 165 229 q 235 213 218 229 q 251 171 251 197 q 235 128 251 144 q 192 113 218 113 m 660 51 q 617 67 633 51 q 600 110 600 83 q 617 152 600 136 q 660 168 633 168 q 703 152 686 168 q 719 110 719 136 q 703 67 719 83 q 660 51 686 51 m 328 7 q 285 23 301 7 q 268 65 268 39 q 285 108 268 92 q 328 124 301 124 q 371 108 354 124 q 388 65 388 92 q 371 23 388 39 q 328 7 354 7 m 500 -12 q 457 3 474 -12 q 440 46 440 19 q 457 88 440 72 q 500 104 474 104 q 543 88 526 104 q 560 46 560 72 q 543 3 560 19 q 500 -12 526 -12 z "},"!":{"ha":604,"x_min":150,"x_max":486,"o":"m 486 1049 l 450 390 l 186 390 l 150 1049 l 486 1049 m 471 294 l 471 0 l 165 0 l 165 294 l 471 294 z "},"\"":{"ha":681,"x_min":63,"x_max":618,"o":"m 306 1115 l 288 789 l 82 789 l 63 1115 l 306 1115 m 618 1115 l 600 789 l 394 789 l 375 1115 l 618 1115 z "},"#":{"ha":1296,"x_min":14,"x_max":1282,"o":"m 1063 585 l 1035 453 l 1188 453 l 1188 172 l 974 172 l 938 0 l 651 0 l 688 172 l 494 172 l 458 0 l 174 0 l 210 172 l 14 172 l 14 453 l 271 453 l 299 585 l 108 585 l 108 865 l 358 865 l 393 1028 l 678 1028 l 643 865 l 836 865 l 871 1028 l 1157 1028 l 1122 865 l 1282 865 l 1282 585 l 1063 585 m 776 585 l 583 585 l 556 453 l 749 453 l 776 585 z "},"$":{"ha":924,"x_min":42,"x_max":885,"o":"m 885 290 q 838 139 885 207 q 703 31 792 71 q 493 -10 615 -10 l 493 -121 l 422 -121 l 422 -7 q 156 89 258 7 q 44 315 54 171 l 372 315 q 422 233 376 254 l 422 371 l 390 379 q 215 439 285 408 q 93 533 144 469 q 42 700 42 596 q 93 858 42 792 q 231 960 144 924 q 422 1000 317 996 l 422 1111 l 493 1111 l 493 999 q 760 908 661 989 q 868 682 858 826 l 536 682 q 493 758 531 739 l 493 621 l 547 604 q 719 541 651 572 q 835 449 786 510 q 885 290 885 388 m 372 714 q 422 649 372 676 l 422 765 q 372 714 372 757 m 493 225 q 538 242 521 228 q 556 283 556 257 q 493 349 556 321 l 493 225 z "},"%":{"ha":1244,"x_min":28,"x_max":1217,"o":"m 279 1001 q 459 937 390 1001 q 528 750 528 872 q 459 564 528 628 q 279 500 390 500 q 97 564 167 500 q 28 750 28 628 q 97 937 28 872 q 279 1001 167 1001 m 1029 988 l 511 0 l 217 0 l 735 988 l 1029 988 m 229 750 q 276 679 229 679 q 315 697 301 679 q 328 750 328 715 q 315 804 328 786 q 276 822 301 822 q 229 750 229 822 m 968 489 q 1149 424 1081 489 q 1217 238 1217 360 q 1149 51 1217 115 q 968 -14 1081 -14 q 788 51 857 -14 q 718 238 718 115 q 788 424 718 360 q 968 489 857 489 m 918 238 q 967 165 918 165 q 1003 183 990 165 q 1017 238 1017 201 q 1003 291 1017 272 q 967 310 990 310 q 918 238 918 310 z "},"&":{"ha":972,"x_min":35,"x_max":972,"o":"m 665 0 l 610 78 q 582 54 597 64 q 367 -10 493 -10 q 185 33 260 -10 q 72 146 110 75 q 35 303 35 217 q 89 489 35 413 q 232 590 143 565 l 214 625 q 192 746 192 679 q 228 867 192 811 q 334 958 264 924 q 501 993 404 993 q 811 811 740 993 q 833 644 838 738 l 547 644 q 543 701 547 679 q 532 730 540 721 q 507 739 524 739 q 487 731 494 739 q 479 711 479 724 q 485 688 479 700 q 508 650 492 675 l 972 0 l 665 0 m 369 244 q 422 263 401 244 q 442 311 442 281 q 422 358 442 340 q 369 375 401 375 q 317 358 338 375 q 297 311 297 340 q 317 263 297 281 q 369 244 338 244 z "},"'":{"ha":368,"x_min":63,"x_max":306,"o":"m 306 1115 l 288 789 l 82 789 l 63 1115 l 306 1115 z "},"(":{"ha":596,"x_min":19,"x_max":701,"o":"m 19 558 q 126 1034 19 821 q 404 1379 232 1247 l 701 1379 l 701 1350 q 411 991 507 1186 q 315 558 315 796 q 411 125 315 321 q 701 -235 507 -71 l 701 -262 l 404 -262 q 126 83 232 -129 q 19 558 19 294 z "},")":{"ha":600,"x_min":-103,"x_max":581,"o":"m 581 560 q 474 83 581 296 q 196 -262 368 -129 l -103 -262 l -103 -235 q 189 125 93 -71 q 285 558 285 321 q 189 991 285 796 q -103 1350 93 1186 l -103 1379 l 196 1379 q 474 1033 368 1246 q 581 560 581 821 z "},"*":{"ha":779,"x_min":117,"x_max":676,"o":"m 583 985 l 676 817 l 522 767 l 676 719 l 575 543 l 454 663 l 493 500 l 300 500 l 339 663 l 221 542 l 117 721 l 271 771 l 119 815 l 213 983 l 340 868 l 297 1033 l 494 1033 l 454 868 l 583 985 z "},"+":{"ha":765,"x_min":28,"x_max":738,"o":"m 738 331 l 531 331 l 531 118 l 235 118 l 235 331 l 28 331 l 28 613 l 235 613 l 235 826 l 531 826 l 531 613 l 738 613 l 738 331 z "},",":{"ha":383,"x_min":35,"x_max":329,"o":"m 272 182 q 314 82 299 139 q 329 -32 329 25 q 268 -217 329 -143 q 79 -292 207 -292 l 79 -183 q 138 -167 119 -183 q 156 -100 156 -150 l 156 -85 l 35 -85 l 35 182 l 272 182 z "},"-":{"ha":800,"x_min":28,"x_max":675,"o":"m 675 601 l 675 347 l 28 347 l 28 601 l 675 601 z "},".":{"ha":385,"x_min":39,"x_max":344,"o":"m 344 294 l 344 0 l 39 0 l 39 294 l 344 294 z "},"/":{"ha":554,"x_min":-50,"x_max":614,"o":"m 614 1326 l 246 -275 l -50 -275 l 319 1326 l 614 1326 z "},":":{"ha":461,"x_min":86,"x_max":392,"o":"m 392 838 l 392 543 l 86 543 l 86 838 l 392 838 m 392 294 l 392 0 l 86 0 l 86 294 l 392 294 z "},";":{"ha":601,"x_min":156,"x_max":467,"o":"m 461 824 l 461 529 l 156 529 l 156 824 l 461 824 m 410 182 q 451 82 436 139 q 467 -32 467 25 q 406 -217 467 -143 q 217 -292 344 -292 l 217 -183 q 275 -167 257 -183 q 293 -100 293 -150 l 293 -85 l 172 -85 l 172 182 l 410 182 z "},"<":{"ha":690,"x_min":28,"x_max":663,"o":"m 278 174 l 28 472 l 278 772 l 663 772 l 413 472 l 663 174 l 278 174 z "},"=":{"ha":869,"x_min":28,"x_max":842,"o":"m 842 806 l 842 526 l 28 526 l 28 806 l 842 806 m 842 417 l 842 138 l 28 138 l 28 417 l 842 417 z "},">":{"ha":690,"x_min":28,"x_max":663,"o":"m 28 772 l 413 772 l 663 472 l 413 174 l 28 174 l 278 472 l 28 772 z "},"?":{"ha":747,"x_min":24,"x_max":719,"o":"m 382 1074 q 628 998 536 1074 q 719 774 719 922 q 682 630 719 692 q 576 533 644 568 q 421 496 508 497 l 421 397 l 132 397 l 132 692 l 249 692 q 375 710 332 692 q 418 772 418 729 q 405 810 418 796 q 371 824 392 824 q 331 806 344 824 q 318 761 318 789 l 28 761 q 62 917 24 846 q 181 1031 100 989 q 382 1074 263 1074 m 431 294 l 431 0 l 125 0 l 125 294 l 431 294 z "},"@":{"ha":1879,"x_min":60,"x_max":1849,"o":"m 1058 1171 q 1474 1097 1296 1171 q 1750 874 1651 1022 q 1849 510 1849 725 q 1781 250 1849 369 q 1600 61 1713 131 q 1361 -8 1488 -8 q 1181 35 1254 -8 q 1083 167 1108 79 q 972 37 1039 82 q 807 -8 906 -8 q 657 32 722 -8 q 556 146 592 72 q 519 317 519 219 q 524 386 519 351 q 603 594 538 503 q 772 737 668 686 q 1001 788 875 788 q 1249 715 1153 788 q 1344 501 1344 643 q 1342 453 1344 486 l 1331 358 q 1329 325 1329 346 q 1342 274 1329 289 q 1383 260 1354 260 q 1456 285 1421 260 q 1513 365 1490 311 q 1536 499 1536 418 q 1476 722 1536 626 q 1297 869 1415 817 q 1010 921 1178 921 q 654 841 801 921 q 432 624 507 761 q 357 315 357 486 q 494 -24 357 103 q 917 -147 631 -151 l 858 -396 q 418 -305 597 -393 q 149 -58 239 -217 q 60 315 60 100 q 199 781 60 588 q 566 1072 338 974 q 1058 1171 794 1171 m 1044 392 q 1046 419 1046 401 q 1015 499 1046 476 q 946 522 985 522 q 864 493 901 522 q 818 390 826 464 q 817 363 817 381 q 847 282 817 304 q 918 260 878 260 q 999 289 961 260 q 1044 392 1036 318 z "},"A":{"ha":1074,"x_min":0,"x_max":1074,"o":"m 700 149 l 372 149 l 324 0 l 0 0 l 360 983 l 715 983 l 1074 0 l 749 0 l 700 149 m 625 381 l 536 654 l 447 381 l 625 381 z "},"B":{"ha":950,"x_min":69,"x_max":915,"o":"m 728 504 q 866 419 817 483 q 915 269 915 354 q 830 70 915 140 q 585 0 744 0 l 69 0 l 69 983 l 571 983 q 807 918 721 983 q 893 728 893 853 q 848 583 893 642 q 728 504 803 524 m 378 600 l 497 600 q 559 617 539 600 q 579 668 579 633 q 559 722 579 704 q 497 739 539 739 l 378 739 l 378 600 m 518 247 q 580 263 560 247 q 600 315 600 279 q 518 386 600 386 l 378 386 l 378 247 l 518 247 z "},"C":{"ha":1046,"x_min":42,"x_max":1004,"o":"m 528 993 q 756 945 656 993 q 920 810 857 897 q 1004 606 983 722 l 679 606 q 616 681 657 654 q 522 708 575 708 q 399 650 444 708 q 354 493 354 592 q 399 336 354 394 q 522 278 444 278 q 616 305 575 278 q 679 381 657 332 l 1004 381 q 920 176 983 264 q 756 41 857 89 q 528 -7 656 -7 q 269 56 379 -7 q 101 233 160 119 q 42 493 42 347 q 101 753 42 639 q 269 930 160 867 q 528 993 379 993 z "},"D":{"ha":1032,"x_min":69,"x_max":990,"o":"m 990 494 q 928 242 990 354 q 749 65 865 129 q 479 0 633 0 l 69 0 l 69 983 l 479 983 q 749 921 633 983 q 928 747 865 858 q 990 494 990 636 m 451 275 q 617 332 556 275 q 678 494 678 389 q 617 657 678 600 q 451 714 556 714 l 378 714 l 378 275 l 451 275 z "},"E":{"ha":772,"x_min":69,"x_max":725,"o":"m 378 739 l 378 617 l 683 617 l 683 385 l 378 385 l 378 246 l 725 246 l 725 0 l 69 0 l 69 983 l 725 983 l 725 739 l 378 739 z "},"F":{"ha":799,"x_min":69,"x_max":764,"o":"m 764 983 l 764 739 l 378 739 l 378 603 l 656 603 l 656 371 l 378 371 l 378 0 l 69 0 l 69 983 l 764 983 z "},"G":{"ha":1044,"x_min":42,"x_max":1003,"o":"m 539 993 q 853 900 732 993 q 997 647 975 807 l 672 647 q 621 692 654 676 q 540 708 588 708 q 403 651 451 708 q 354 493 354 593 q 408 321 354 378 q 575 264 463 264 q 747 350 682 264 l 501 350 l 501 568 l 1003 568 l 1003 260 q 826 72 939 150 q 542 -7 714 -7 q 276 56 389 -7 q 102 233 163 119 q 42 493 42 347 q 102 753 42 639 q 275 930 163 867 q 539 993 388 993 z "},"H":{"ha":1049,"x_min":69,"x_max":979,"o":"m 979 983 l 979 0 l 671 0 l 671 383 l 378 383 l 378 0 l 69 0 l 69 983 l 378 983 l 378 629 l 671 629 l 671 983 l 979 983 z "},"I":{"ha":447,"x_min":69,"x_max":378,"o":"m 378 983 l 378 0 l 69 0 l 69 983 l 378 983 z "},"J":{"ha":819,"x_min":14,"x_max":756,"o":"m 756 983 l 756 349 q 663 81 756 172 q 404 -10 571 -10 q 119 89 225 -10 q 14 376 14 188 l 318 376 q 338 292 318 317 q 390 268 357 268 q 433 286 418 268 q 449 349 449 304 l 449 983 l 756 983 z "},"K":{"ha":1049,"x_min":69,"x_max":1035,"o":"m 671 506 l 1035 0 l 664 0 l 378 426 l 378 0 l 69 0 l 69 983 l 378 983 l 378 568 l 667 983 l 1035 983 l 671 506 z "},"L":{"ha":703,"x_min":69,"x_max":675,"o":"m 378 233 l 675 233 l 675 0 l 69 0 l 69 983 l 378 983 l 378 233 z "},"M":{"ha":1321,"x_min":69,"x_max":1251,"o":"m 1251 983 l 1251 0 l 944 0 l 944 490 l 793 0 l 529 0 l 378 490 l 378 0 l 69 0 l 69 983 l 447 983 l 664 393 l 875 983 l 1251 983 z "},"N":{"ha":1082,"x_min":69,"x_max":1013,"o":"m 1013 0 l 704 0 l 378 494 l 378 0 l 69 0 l 69 983 l 378 983 l 704 481 l 704 983 l 1013 983 l 1013 0 z "},"O":{"ha":1094,"x_min":42,"x_max":1053,"o":"m 549 1000 q 803 935 688 1000 q 985 756 918 871 q 1053 496 1053 640 q 985 236 1053 351 q 802 56 918 121 q 549 -10 686 -10 q 294 56 410 -10 q 110 236 178 121 q 42 496 42 351 q 110 756 42 640 q 294 935 178 871 q 549 1000 410 1000 m 549 715 q 406 656 456 715 q 356 496 356 597 q 406 337 356 396 q 549 278 456 278 q 690 337 640 278 q 740 496 740 396 q 690 656 740 597 q 549 715 640 715 z "},"P":{"ha":901,"x_min":69,"x_max":874,"o":"m 378 313 l 378 0 l 69 0 l 69 983 l 500 983 q 777 892 681 983 q 874 646 874 800 q 831 477 874 553 q 703 357 788 401 q 500 313 619 313 l 378 313 m 465 556 q 561 646 561 556 q 465 736 561 736 l 378 736 l 378 556 l 465 556 z "},"Q":{"ha":1094,"x_min":42,"x_max":1081,"o":"m 717 -160 l 622 -4 q 549 -10 590 -10 q 294 56 410 -10 q 110 236 178 121 q 42 496 42 351 q 110 756 42 640 q 294 935 178 871 q 549 1000 410 1000 q 803 935 688 1000 q 985 756 918 871 q 1053 496 1053 640 q 1007 278 1053 378 q 881 110 961 179 l 1081 -160 l 717 -160 m 356 496 q 406 337 356 396 q 549 278 456 278 q 690 337 640 278 q 740 496 740 396 q 690 656 740 597 q 549 715 640 715 q 406 656 456 715 q 356 496 356 597 z "},"R":{"ha":931,"x_min":69,"x_max":903,"o":"m 564 0 l 378 353 l 378 0 l 69 0 l 69 983 l 528 983 q 732 941 647 983 q 859 826 817 899 q 901 661 901 753 q 847 486 901 563 q 689 376 792 410 l 903 0 l 564 0 m 378 558 l 500 558 q 567 578 544 558 q 589 642 589 599 q 566 703 589 681 q 500 725 543 725 l 378 725 l 378 558 z "},"S":{"ha":868,"x_min":42,"x_max":829,"o":"m 829 290 q 785 138 829 206 q 658 30 742 69 q 460 -10 575 -10 q 169 73 283 -10 q 44 315 54 156 l 372 315 q 447 231 379 231 q 485 243 471 231 q 500 279 500 256 q 465 334 500 314 q 350 381 429 354 q 195 443 257 411 q 88 538 133 475 q 42 700 42 600 q 91 863 42 796 q 226 965 140 931 q 418 1000 311 1000 q 699 918 594 1000 q 813 682 803 836 l 481 682 q 417 760 474 760 q 385 748 397 760 q 372 713 372 736 q 408 660 372 681 q 518 614 443 640 q 674 548 613 581 q 783 452 736 515 q 829 290 829 389 z "},"T":{"ha":856,"x_min":14,"x_max":842,"o":"m 842 983 l 842 739 l 581 739 l 581 0 l 272 0 l 272 739 l 14 739 l 14 983 l 842 983 z "},"U":{"ha":999,"x_min":64,"x_max":935,"o":"m 371 983 l 371 429 q 401 322 371 361 q 497 282 431 282 q 596 322 564 282 q 628 429 628 361 l 628 983 l 935 983 l 935 429 q 876 190 935 289 q 717 40 818 90 q 490 -10 615 -10 q 269 40 365 -10 q 118 189 172 90 q 64 429 64 288 l 64 983 l 371 983 z "},"V":{"ha":1060,"x_min":0,"x_max":1060,"o":"m 328 983 l 531 307 l 732 983 l 1060 983 l 729 0 l 331 0 l 0 983 l 328 983 z "},"W":{"ha":1528,"x_min":42,"x_max":1486,"o":"m 1486 983 l 1261 0 l 878 0 l 764 558 l 650 0 l 267 0 l 42 983 l 374 983 l 463 364 l 596 983 l 932 983 l 1065 364 l 1154 983 l 1486 983 z "},"X":{"ha":1061,"x_min":0,"x_max":1061,"o":"m 696 0 l 515 256 l 365 0 l 14 0 l 338 507 l 0 983 l 365 983 l 539 738 l 683 983 l 1035 983 l 717 486 l 1061 0 l 696 0 z "},"Y":{"ha":1014,"x_min":0,"x_max":1014,"o":"m 1014 983 l 661 299 l 661 0 l 353 0 l 353 299 l 0 983 l 353 983 l 510 635 l 667 983 l 1014 983 z "},"Z":{"ha":875,"x_min":69,"x_max":806,"o":"m 411 246 l 806 246 l 806 0 l 69 0 l 69 232 l 458 739 l 69 739 l 69 983 l 806 983 l 806 751 l 411 246 z "},"[":{"ha":740,"x_min":132,"x_max":663,"o":"m 663 1326 l 663 1079 l 421 1079 l 421 -29 l 663 -29 l 663 -276 l 132 -276 l 132 1326 l 663 1326 z "},"\\":{"ha":1219,"x_min":278,"x_max":906,"o":"m 611 -275 l 278 1326 l 572 1326 l 906 -275 l 611 -275 z "},"]":{"ha":736,"x_min":75,"x_max":606,"o":"m 75 -276 l 75 -29 l 318 -29 l 318 1079 l 75 1079 l 75 1326 l 606 1326 l 606 -276 l 75 -276 z "},"^":{"ha":1053,"x_min":35,"x_max":1018,"o":"m 340 225 l 35 225 l 376 988 l 679 988 l 1018 225 l 713 225 l 528 639 l 340 225 z "},"_":{"ha":1061,"x_min":68,"x_max":1006,"o":"m 1006 -58 l 1006 -358 l 68 -358 l 68 -58 l 1006 -58 z "},"`":{"ha":450,"x_min":14,"x_max":374,"o":"m 374 1042 l 374 836 l 14 967 l 14 1194 l 374 1042 z "},"a":{"ha":944,"x_min":28,"x_max":875,"o":"m 351 793 q 483 762 428 793 q 568 676 539 731 l 568 783 l 875 783 l 875 0 l 568 0 l 568 107 q 483 22 539 53 q 351 -10 428 -10 q 186 38 260 -10 q 70 177 113 86 q 28 392 28 268 q 70 606 28 515 q 186 745 113 697 q 351 793 260 793 m 454 524 q 372 489 404 524 q 340 392 340 454 q 372 294 340 329 q 454 260 404 260 q 536 294 504 260 q 568 392 568 329 q 536 489 568 454 q 454 524 504 524 z "},"b":{"ha":944,"x_min":69,"x_max":917,"o":"m 593 793 q 758 745 685 793 q 874 606 832 697 q 917 392 917 515 q 874 177 917 268 q 758 38 832 86 q 593 -10 685 -10 q 462 22 517 -10 q 378 107 407 53 l 378 0 l 69 0 l 69 1028 l 378 1028 l 378 676 q 462 762 407 731 q 593 793 517 793 m 490 524 q 408 489 440 524 q 376 392 376 454 q 408 294 376 329 q 490 260 440 260 q 572 294 540 260 q 604 392 604 329 q 572 489 604 454 q 490 524 540 524 z "},"c":{"ha":846,"x_min":28,"x_max":818,"o":"m 428 793 q 685 707 581 793 q 818 468 790 621 l 492 468 q 421 529 474 529 q 362 494 383 529 q 340 392 340 460 q 362 289 340 324 q 421 254 383 254 q 492 315 474 254 l 818 315 q 685 76 790 163 q 428 -10 581 -10 q 220 39 311 -10 q 78 178 129 88 q 28 392 28 269 q 78 605 28 514 q 220 744 129 696 q 428 793 311 793 z "},"d":{"ha":944,"x_min":28,"x_max":875,"o":"m 351 793 q 483 762 428 793 q 567 676 538 731 l 567 1028 l 875 1028 l 875 0 l 567 0 l 567 107 q 483 22 538 53 q 351 -10 428 -10 q 186 38 260 -10 q 70 177 113 86 q 28 392 28 268 q 70 606 28 515 q 186 745 113 697 q 351 793 260 793 m 454 524 q 372 489 404 524 q 340 392 340 454 q 372 294 340 329 q 454 260 404 260 q 536 294 504 260 q 568 392 568 329 q 536 489 568 454 q 454 524 504 524 z "},"e":{"ha":856,"x_min":28,"x_max":828,"o":"m 828 399 q 821 338 828 369 l 328 338 q 354 258 332 279 q 413 236 376 236 q 485 282 463 236 l 811 282 q 741 133 794 199 q 606 28 688 67 q 428 -10 525 -10 q 220 39 311 -10 q 78 178 129 88 q 28 392 28 269 q 78 605 28 514 q 220 744 129 696 q 428 793 311 793 q 635 745 544 793 q 777 608 726 697 q 828 399 828 519 m 515 464 q 490 530 515 508 q 428 551 465 551 q 331 464 343 551 l 515 464 z "},"f":{"ha":535,"x_min":14,"x_max":521,"o":"m 521 839 q 486 842 496 842 q 433 828 451 842 q 408 783 415 815 l 521 783 l 521 526 l 406 526 l 406 0 l 97 0 l 97 526 l 14 526 l 14 783 l 97 783 q 194 1020 100 936 q 457 1104 288 1104 q 521 1101 476 1104 l 521 839 z "},"g":{"ha":944,"x_min":28,"x_max":875,"o":"m 351 793 q 483 762 428 793 q 568 676 539 731 l 568 783 l 875 783 l 875 14 q 835 -186 875 -96 q 705 -331 794 -276 q 475 -385 615 -385 q 176 -297 286 -385 q 50 -57 65 -208 l 353 -57 q 453 -118 365 -118 q 538 -90 507 -118 q 568 14 568 -62 l 568 107 q 483 22 539 53 q 351 -10 428 -10 q 186 38 260 -10 q 70 177 113 86 q 28 392 28 268 q 70 606 28 515 q 186 745 113 697 q 351 793 260 793 m 454 524 q 372 489 404 524 q 340 392 340 454 q 372 294 340 329 q 454 260 404 260 q 536 294 504 260 q 568 392 568 329 q 536 489 568 454 q 454 524 504 524 z "},"h":{"ha":968,"x_min":69,"x_max":904,"o":"m 618 789 q 828 699 753 789 q 904 454 904 608 l 904 0 l 597 0 l 597 415 q 567 503 597 471 q 488 536 538 536 q 407 503 436 536 q 378 415 378 471 l 378 0 l 69 0 l 69 1028 l 378 1028 l 378 664 q 474 754 414 719 q 618 789 535 789 z "},"i":{"ha":447,"x_min":47,"x_max":401,"o":"m 47 997 q 96 1108 47 1064 q 225 1151 144 1151 q 353 1108 304 1151 q 401 997 401 1064 q 353 889 401 932 q 225 846 304 846 q 96 889 144 846 q 47 997 47 932 m 378 783 l 378 0 l 69 0 l 69 783 l 378 783 z "},"j":{"ha":444,"x_min":-47,"x_max":399,"o":"m 222 846 q 93 889 142 846 q 44 997 44 932 q 93 1108 44 1064 q 222 1151 142 1151 q 350 1108 301 1151 q 399 997 399 1064 q 350 889 399 932 q 222 846 301 846 m -47 -112 l 13 -112 q 56 -100 43 -112 q 69 -60 69 -87 l 69 783 l 378 783 l 378 -54 q 56 -375 378 -375 l -47 -375 l -47 -112 z "},"k":{"ha":939,"x_min":69,"x_max":939,"o":"m 571 0 l 378 313 l 378 0 l 69 0 l 69 1028 l 378 1028 l 378 490 l 574 783 l 932 783 l 639 389 l 939 0 l 571 0 z "},"l":{"ha":447,"x_min":69,"x_max":378,"o":"m 378 1028 l 378 0 l 69 0 l 69 1028 l 378 1028 z "},"m":{"ha":1494,"x_min":69,"x_max":1431,"o":"m 1115 789 q 1348 699 1265 789 q 1431 454 1431 608 l 1431 0 l 1124 0 l 1124 415 q 1094 494 1124 465 q 1014 522 1064 522 q 933 494 963 522 q 904 415 904 465 l 904 0 l 597 0 l 597 415 q 567 494 597 465 q 488 522 538 522 q 407 494 436 522 q 378 415 378 465 l 378 0 l 69 0 l 69 783 l 378 783 l 378 678 q 469 758 411 728 q 604 789 526 789 q 754 752 689 789 q 858 649 819 715 q 968 749 901 710 q 1115 789 1035 789 z "},"n":{"ha":968,"x_min":69,"x_max":904,"o":"m 618 789 q 828 699 753 789 q 904 454 904 608 l 904 0 l 597 0 l 597 415 q 567 503 597 471 q 488 536 538 536 q 407 503 436 536 q 378 415 378 471 l 378 0 l 69 0 l 69 783 l 378 783 l 378 664 q 474 754 414 719 q 618 789 535 789 z "},"o":{"ha":883,"x_min":28,"x_max":856,"o":"m 442 793 q 654 744 560 793 q 802 605 749 696 q 856 392 856 514 q 802 178 856 269 q 654 39 749 88 q 442 -10 560 -10 q 229 39 324 -10 q 81 178 135 88 q 28 392 28 269 q 81 605 28 514 q 229 744 135 696 q 442 793 324 793 m 442 526 q 369 492 399 526 q 340 392 340 458 q 369 291 340 325 q 442 257 397 257 q 514 291 485 257 q 543 392 543 325 q 514 492 543 458 q 442 526 485 526 z "},"p":{"ha":944,"x_min":69,"x_max":917,"o":"m 593 793 q 758 745 685 793 q 874 606 832 697 q 917 392 917 515 q 874 177 917 268 q 758 38 832 86 q 593 -10 685 -10 q 462 22 517 -10 q 378 107 407 53 l 378 -375 l 69 -375 l 69 783 l 378 783 l 378 676 q 462 762 407 731 q 593 793 517 793 m 490 524 q 408 489 440 524 q 376 392 376 454 q 408 294 376 329 q 490 260 440 260 q 572 294 540 260 q 604 392 604 329 q 572 489 604 454 q 490 524 540 524 z "},"q":{"ha":944,"x_min":28,"x_max":875,"o":"m 374 789 q 483 772 436 789 q 568 714 531 754 l 568 783 l 875 783 l 875 -375 l 568 -375 l 568 86 q 480 15 526 38 q 374 -8 433 -8 q 201 42 281 -8 q 75 181 122 92 q 28 386 28 271 q 75 593 28 501 q 202 737 122 685 q 374 789 282 789 m 454 522 q 376 488 413 522 q 340 386 340 454 q 376 290 340 319 q 454 260 411 260 q 533 292 497 260 q 568 392 568 324 q 533 491 568 460 q 454 522 497 522 z "},"r":{"ha":649,"x_min":69,"x_max":635,"o":"m 378 639 q 493 748 425 707 q 635 789 561 789 l 635 460 l 547 460 q 419 429 460 460 q 378 321 378 399 l 378 0 l 69 0 l 69 783 l 378 783 l 378 639 z "},"s":{"ha":804,"x_min":43,"x_max":765,"o":"m 378 793 q 633 716 538 793 q 753 513 728 639 l 465 513 q 371 579 447 579 q 328 546 328 579 q 359 510 328 522 q 458 483 390 497 q 610 444 547 467 q 719 369 674 421 q 765 229 765 318 q 726 106 765 160 q 613 21 688 51 q 436 -10 538 -10 q 167 63 267 -10 q 43 271 67 135 l 339 271 q 435 203 347 203 q 482 236 482 203 q 450 275 482 263 q 347 300 418 288 q 198 339 257 318 q 94 410 139 360 q 50 547 50 460 q 88 674 50 618 q 199 761 125 729 q 378 793 272 793 z "},"t":{"ha":606,"x_min":21,"x_max":557,"o":"m 557 263 l 557 0 l 440 0 q 118 321 118 0 l 118 526 l 21 526 l 21 783 l 118 783 l 118 972 l 426 972 l 426 783 l 554 783 l 554 526 l 426 526 l 426 315 q 440 275 426 288 q 483 263 453 263 l 557 263 z "},"u":{"ha":968,"x_min":64,"x_max":899,"o":"m 899 783 l 899 0 l 590 0 l 590 119 q 494 29 554 64 q 350 -6 433 -6 q 140 85 215 -6 q 64 329 64 175 l 64 783 l 371 783 l 371 368 q 401 280 371 313 q 481 247 431 247 q 561 280 532 247 q 590 368 590 313 l 590 783 l 899 783 z "},"v":{"ha":932,"x_min":13,"x_max":919,"o":"m 467 293 l 592 783 l 919 783 l 658 0 l 274 0 l 13 783 l 340 783 l 467 293 z "},"w":{"ha":1254,"x_min":-1,"x_max":1258,"o":"m 1258 783 l 1072 0 l 725 0 l 631 442 l 531 0 l 183 0 l -1 783 l 304 783 l 369 307 l 471 783 l 800 783 l 907 301 l 974 783 l 1258 783 z "},"x":{"ha":928,"x_min":0,"x_max":928,"o":"m 583 0 l 451 176 l 353 0 l 14 0 l 276 413 l 0 783 l 344 783 l 476 606 l 576 783 l 915 783 l 644 381 l 928 0 l 583 0 z "},"y":{"ha":940,"x_min":-14,"x_max":954,"o":"m 329 783 l 476 386 l 614 783 l 954 783 l 453 -375 l 115 -375 l 313 39 l -14 783 l 329 783 z "},"z":{"ha":719,"x_min":28,"x_max":692,"o":"m 365 256 l 692 256 l 692 0 l 28 0 l 28 242 l 326 528 l 32 528 l 32 783 l 678 783 l 678 542 l 365 256 z "},"{":{"ha":713,"x_min":79,"x_max":665,"o":"m 343 515 q 455 458 418 501 q 492 336 492 415 q 481 207 492 293 q 469 72 469 121 q 524 -158 469 -71 q 665 -279 578 -246 l 665 -301 l 378 -301 q 297 -243 340 -285 q 221 -121 254 -201 q 188 76 188 -40 q 200 214 188 136 q 211 344 211 297 q 178 431 211 396 q 79 467 146 467 l 79 567 q 181 601 150 567 q 211 689 211 636 q 200 819 211 736 q 188 957 188 897 q 221 1154 188 1074 q 297 1276 254 1235 q 378 1335 340 1318 l 665 1335 l 665 1313 q 524 1192 578 1279 q 469 961 469 1104 q 481 828 469 914 q 492 697 492 742 q 456 575 492 617 q 343 518 421 533 l 343 515 z "},"|":{"ha":364,"x_min":28,"x_max":336,"o":"m 336 -200 l 28 -200 l 28 1150 l 336 1150 l 336 -200 z "},"}":{"ha":679,"x_min":50,"x_max":635,"o":"m 372 518 q 259 568 294 533 q 224 669 224 603 q 235 800 224 714 q 246 933 246 886 q 220 1104 246 1025 q 149 1238 194 1183 q 50 1313 104 1292 l 50 1335 l 336 1335 q 417 1276 374 1318 q 493 1154 460 1235 q 526 957 526 1074 q 514 819 526 897 q 503 689 503 736 q 532 602 503 639 q 618 565 561 565 l 635 567 l 635 467 q 614 468 628 468 q 531 431 558 468 q 503 344 503 394 q 514 214 503 297 q 526 76 526 136 q 493 -121 526 -40 q 417 -243 460 -201 q 336 -301 374 -285 l 50 -301 l 50 -279 q 149 -204 104 -258 q 220 -71 194 -150 q 246 100 246 8 q 235 235 246 149 q 224 364 224 321 q 260 466 224 431 q 372 515 296 501 l 372 518 z "},"~":{"ha":988,"x_min":28,"x_max":960,"o":"m 354 618 q 446 603 404 618 q 538 563 488 589 q 599 534 575 543 q 647 525 624 525 q 703 547 685 525 q 729 621 722 568 l 960 621 q 844 344 931 433 q 632 254 758 254 q 541 269 582 254 q 450 310 500 283 q 385 339 408 331 q 339 347 363 347 q 283 325 301 347 q 256 251 264 303 l 28 251 q 143 529 58 440 q 354 618 228 618 z "}," ":{"ha":236,"x_min":0,"x_max":0,"o":""},"¡":{"ha":643,"x_min":150,"x_max":486,"o":"m 486 -260 l 450 399 l 186 399 l 150 -260 l 486 -260 m 471 494 l 471 789 l 165 789 l 165 494 l 471 494 z "},"¢":{"ha":804,"x_min":28,"x_max":776,"o":"m 418 236 q 466 249 443 236 q 494 285 489 261 l 776 285 q 684 84 768 160 q 478 -7 600 8 l 478 -115 l 351 -115 l 351 -7 q 114 101 200 8 q 28 353 28 194 q 114 602 28 510 q 351 710 200 694 l 351 818 l 478 818 l 478 710 q 684 619 600 694 q 776 419 768 543 l 494 419 q 464 457 485 446 q 418 468 443 468 q 347 438 371 468 q 322 351 322 407 q 347 266 322 296 q 418 236 371 236 z "},"£":{"ha":943,"x_min":43,"x_max":854,"o":"m 854 229 l 854 -8 l 88 -8 l 50 136 q 147 243 114 186 q 186 381 179 300 l 43 381 l 43 585 l 150 585 q 126 761 126 685 q 172 928 126 858 q 297 1034 217 997 q 481 1071 376 1071 q 747 979 653 1071 q 851 738 842 888 l 568 738 q 492 821 558 821 q 419 725 419 821 q 429 663 419 701 q 450 585 439 625 l 683 585 l 683 381 l 475 381 q 389 229 454 282 l 854 229 z "},"¤":{"ha":838,"x_min":83,"x_max":754,"o":"m 739 526 q 686 372 739 439 l 754 304 l 643 192 l 549 286 q 422 268 494 268 q 290 288 351 268 l 194 192 l 83 304 l 156 376 q 106 526 106 439 q 157 678 106 615 l 83 751 l 194 864 l 296 763 q 422 779 351 779 q 543 764 486 779 l 643 864 l 754 751 l 683 682 q 739 526 739 619 m 422 444 q 480 464 457 444 q 503 524 503 483 q 480 586 503 567 q 422 606 457 606 q 365 586 388 606 q 342 524 342 567 q 365 464 342 483 q 422 444 388 444 z "},"¥":{"ha":1014,"x_min":0,"x_max":1014,"o":"m 831 628 l 938 628 l 938 428 l 728 428 l 701 378 l 938 378 l 938 178 l 661 178 l 661 0 l 353 0 l 353 178 l 74 178 l 74 378 l 313 378 l 286 428 l 74 428 l 74 628 l 183 628 l 0 983 l 353 983 l 510 589 l 667 983 l 1014 983 l 831 628 z "},"¦":{"ha":600,"x_min":146,"x_max":454,"o":"m 146 1150 l 454 1150 l 454 553 l 146 553 l 146 1150 m 454 -200 l 146 -200 l 146 399 l 454 399 l 454 -200 z "},"§":{"ha":826,"x_min":29,"x_max":799,"o":"m 799 339 q 768 225 799 274 q 664 140 738 176 q 744 -61 744 51 q 655 -253 744 -181 q 404 -326 565 -326 q 169 -246 254 -326 q 74 -35 85 -165 l 378 -35 q 411 -110 381 -110 q 433 -76 433 -110 q 414 -28 433 -50 q 353 17 394 -7 q 226 86 313 42 q 81 199 132 135 q 29 339 29 263 q 161 539 29 483 q 101 635 121 583 q 82 739 82 686 q 172 931 82 858 q 422 1004 261 1004 q 657 924 572 1004 q 753 713 742 843 l 449 713 q 415 788 446 788 q 393 754 393 788 q 412 706 393 728 q 472 660 431 685 q 600 593 514 636 q 799 339 799 485 m 413 263 q 455 284 439 263 q 471 339 471 306 q 457 394 471 372 q 417 415 443 415 q 374 394 390 415 q 358 339 358 372 q 373 284 358 306 q 413 263 388 263 z "},"¨":{"ha":579,"x_min":14,"x_max":565,"o":"m 14 979 q 48 1065 14 1031 q 132 1100 82 1100 q 219 1066 185 1100 q 253 979 253 1032 q 218 895 253 929 q 132 861 183 861 q 48 895 82 861 q 14 979 14 929 m 326 979 q 360 1065 326 1031 q 444 1100 394 1100 q 531 1066 497 1100 q 565 979 565 1032 q 531 895 565 929 q 444 861 496 861 q 360 895 394 861 q 326 979 326 929 z "},"©":{"ha":1071,"x_min":42,"x_max":1029,"o":"m 536 1000 q 279 936 392 1000 q 104 758 167 872 q 42 497 42 643 q 104 236 42 351 q 279 56 167 121 q 536 -8 392 -8 q 792 56 681 -8 q 967 235 904 121 q 1029 497 1029 350 q 967 758 1029 643 q 793 936 906 872 q 536 1000 681 1000 m 536 910 q 747 859 657 910 q 885 715 836 808 q 933 497 933 622 q 885 279 933 374 q 747 133 836 185 q 536 82 657 82 q 325 133 415 82 q 187 278 235 185 q 139 497 139 372 q 187 715 139 622 q 324 859 235 808 q 536 910 414 910 m 542 803 q 738 735 656 803 q 836 553 819 667 l 581 553 q 528 601 567 601 q 481 575 497 601 q 465 496 465 549 q 481 417 465 443 q 528 390 497 390 q 581 439 567 390 l 836 439 q 738 257 819 325 q 542 189 656 189 q 377 226 449 189 q 267 333 306 264 q 228 496 228 403 q 267 658 228 589 q 377 765 306 728 q 542 803 449 803 z "},"ª":{"ha":668,"x_min":28,"x_max":640,"o":"m 256 989 q 349 971 311 989 q 413 914 386 953 l 413 983 l 640 983 l 640 493 l 413 493 l 413 561 q 350 504 386 522 q 258 486 314 486 q 92 551 157 486 q 28 736 28 617 q 92 922 28 856 q 256 989 156 989 m 338 808 q 284 789 306 808 q 263 735 263 769 q 283 685 263 701 q 338 668 304 668 q 391 687 369 668 q 413 739 413 706 q 391 790 413 772 q 338 808 369 808 z "},"«":{"ha":858,"x_min":63,"x_max":803,"o":"m 169 167 l 63 410 l 169 653 l 449 653 l 339 410 l 449 167 l 169 167 m 524 167 l 417 410 l 524 653 l 803 653 l 693 410 l 803 167 l 524 167 z "},"¬":{"ha":1103,"x_min":29,"x_max":1013,"o":"m 1013 622 l 1013 215 l 704 215 l 704 392 l 29 392 l 29 622 l 1013 622 z "},"­":{"ha":800,"x_min":28,"x_max":675,"o":"m 675 601 l 675 347 l 28 347 l 28 601 l 675 601 z "},"®":{"ha":1138,"x_min":42,"x_max":1096,"o":"m 569 1000 q 844 936 725 1000 q 1030 758 964 872 q 1096 497 1096 644 q 1030 235 1096 350 q 844 56 964 121 q 569 -8 724 -8 q 295 56 415 -8 q 108 235 175 121 q 42 497 42 350 q 108 758 42 643 q 294 936 175 872 q 569 1000 414 1000 m 569 82 q 798 133 700 82 q 948 278 896 185 q 1000 497 1000 372 q 948 715 1000 622 q 799 859 896 808 q 569 910 701 910 q 340 859 438 910 q 191 715 243 808 q 139 497 139 622 q 191 278 139 372 q 340 133 243 185 q 569 82 438 82 m 828 610 q 799 510 828 556 q 711 443 769 465 l 840 213 l 638 213 l 536 403 l 536 213 l 349 213 l 349 793 l 607 793 q 774 739 719 793 q 828 610 828 685 m 536 542 l 588 542 q 636 582 636 542 q 588 624 636 624 l 536 624 l 536 542 z "},"¯":{"ha":626,"x_min":14,"x_max":613,"o":"m 613 1068 l 613 864 l 14 864 l 14 1068 l 613 1068 z "},"°":{"ha":689,"x_min":32,"x_max":657,"o":"m 346 993 q 572 926 488 993 q 657 740 657 858 q 574 551 657 621 q 351 482 492 482 q 185 514 258 482 q 72 604 113 546 q 32 740 32 663 q 117 926 32 858 q 346 993 203 993 m 347 833 q 291 810 315 833 q 267 738 267 786 q 293 667 267 690 q 351 644 319 644 q 401 667 381 644 q 422 738 422 690 q 399 810 422 786 q 347 833 376 833 z "},"±":{"ha":765,"x_min":28,"x_max":738,"o":"m 531 478 l 531 413 l 738 413 l 738 133 l 28 133 l 28 413 l 235 413 l 235 478 l 28 478 l 28 757 l 235 757 l 235 875 l 531 875 l 531 757 l 738 757 l 738 478 l 531 478 z "},"²":{"ha":586,"x_min":56,"x_max":560,"o":"m 310 663 l 546 663 l 546 489 l 67 489 l 67 658 l 254 756 q 319 826 319 789 q 307 838 319 838 q 282 790 283 838 l 56 790 q 138 939 63 882 q 338 996 213 996 q 506 951 451 996 q 560 846 560 906 q 515 759 560 796 q 365 683 469 722 l 310 663 z "},"³":{"ha":560,"x_min":18,"x_max":535,"o":"m 290 996 q 461 956 400 996 q 522 849 522 915 q 418 746 522 763 l 418 740 q 508 699 481 726 q 535 628 535 672 q 471 522 535 558 q 296 485 407 485 q 88 532 150 485 q 18 669 26 579 l 257 669 q 262 648 257 654 q 276 642 267 642 q 294 671 294 642 q 285 698 294 690 q 257 706 276 706 l 215 706 l 215 781 l 244 781 q 272 789 264 781 q 281 817 281 797 q 264 840 281 840 q 249 831 254 840 q 244 801 244 822 l 28 801 q 90 940 28 883 q 290 996 151 996 z "},"´":{"ha":388,"x_min":14,"x_max":374,"o":"m 374 967 l 14 836 l 14 1042 l 374 1194 l 374 967 z "},"µ":{"ha":1043,"x_min":104,"x_max":939,"o":"m 939 783 l 939 0 l 631 0 l 631 107 q 542 27 597 58 q 411 -6 486 -4 l 411 -375 l 104 -375 l 104 783 l 411 783 l 411 369 q 441 290 411 319 q 521 261 471 261 q 601 290 572 261 q 631 369 631 319 l 631 783 l 939 783 z "},"¶":{"ha":1081,"x_min":31,"x_max":976,"o":"m 976 0 l 731 0 l 731 753 l 650 753 l 650 0 l 406 0 l 406 368 l 363 368 q 174 412 249 368 q 65 525 100 456 q 31 675 31 594 q 65 826 31 756 q 174 940 100 896 q 363 983 249 983 l 976 983 l 976 0 z "},"·":{"ha":426,"x_min":60,"x_max":365,"o":"m 365 565 l 365 271 l 60 271 l 60 565 l 365 565 z "},"¸":{"ha":476,"x_min":14,"x_max":463,"o":"m 282 -37 q 363 -53 321 -37 q 433 -108 404 -69 q 463 -207 463 -146 q 400 -337 463 -297 q 254 -376 338 -376 l 14 -376 l 14 -219 l 222 -219 q 249 -213 239 -219 q 258 -197 258 -207 q 222 -176 258 -176 l 104 -176 l 104 10 l 282 10 l 282 -37 z "},"¹":{"ha":396,"x_min":28,"x_max":347,"o":"m 28 801 l 28 978 l 347 978 l 347 489 l 119 489 l 119 801 l 28 801 z "},"º":{"ha":653,"x_min":28,"x_max":625,"o":"m 326 985 q 485 952 418 985 q 589 863 553 919 q 625 735 625 807 q 589 606 625 664 q 485 515 553 549 q 326 482 417 482 q 168 515 236 482 q 64 606 100 549 q 28 735 28 664 q 64 863 28 807 q 167 952 100 919 q 326 985 235 985 m 326 811 q 278 792 297 811 q 260 735 260 772 q 278 677 260 697 q 326 657 297 657 q 374 677 356 657 q 393 735 393 697 q 374 792 393 772 q 326 811 356 811 z "},"»":{"ha":858,"x_min":69,"x_max":810,"o":"m 181 410 l 69 653 l 350 653 l 456 410 l 350 167 l 69 167 l 181 410 m 535 410 l 424 653 l 704 653 l 810 410 l 704 167 l 424 167 l 535 410 z "},"¼":{"ha":1221,"x_min":63,"x_max":1190,"o":"m 992 983 l 454 0 l 153 0 l 692 983 l 992 983 m 63 801 l 63 978 l 382 978 l 382 489 l 154 489 l 154 801 l 63 801 m 1190 81 l 1142 81 l 1142 0 l 913 0 l 913 81 l 631 81 l 631 197 l 826 488 l 1142 488 l 1142 203 l 1190 203 l 1190 81 m 925 347 l 843 210 l 925 210 l 925 347 z "},"½":{"ha":1289,"x_min":63,"x_max":1190,"o":"m 1006 988 l 454 0 l 153 0 l 706 988 l 1006 988 m 154 801 l 63 801 l 63 978 l 382 978 l 382 489 l 154 489 l 154 801 m 940 172 l 1176 172 l 1176 -1 l 697 -1 l 697 168 l 885 265 q 950 336 950 299 q 938 347 950 347 q 913 300 914 347 l 686 300 q 768 449 693 392 q 968 506 843 506 q 1136 460 1082 506 q 1190 356 1190 415 q 1145 269 1190 306 q 996 193 1100 232 l 940 172 z "},"¾":{"ha":1422,"x_min":92,"x_max":1401,"o":"m 364 996 q 535 956 474 996 q 596 849 596 915 q 492 746 596 763 l 492 740 q 581 699 554 726 q 608 628 608 672 q 544 522 608 558 q 369 485 481 485 q 162 532 224 485 q 92 669 100 579 l 331 669 q 335 648 331 654 q 350 642 340 642 q 368 671 368 642 q 359 698 368 690 q 331 706 350 706 l 289 706 l 289 781 l 318 781 q 346 789 338 781 q 354 817 354 797 q 338 840 354 840 q 323 831 328 840 q 318 801 318 822 l 101 801 q 163 940 101 883 q 364 996 225 996 m 1176 988 l 663 0 l 363 0 l 875 988 l 1176 988 m 1401 81 l 1353 81 l 1353 0 l 1125 0 l 1125 81 l 842 81 l 842 197 l 1010 488 l 1353 488 l 1353 203 l 1401 203 l 1401 81 m 1138 375 l 1056 203 l 1138 203 l 1138 375 z "},"¿":{"ha":747,"x_min":118,"x_max":814,"o":"m 456 -278 q 210 -202 301 -278 q 118 22 118 -126 q 156 166 118 104 q 261 263 193 228 q 417 300 329 299 l 417 399 l 706 399 l 706 104 l 589 104 q 463 85 506 104 q 419 24 419 67 q 433 -14 419 0 q 467 -28 446 -28 q 506 -10 493 -28 q 519 35 519 7 l 810 35 q 776 -122 814 -50 q 656 -235 738 -193 q 456 -278 575 -278 m 407 501 l 407 796 l 713 796 l 713 501 l 407 501 z "},"À":{"ha":1074,"x_min":0,"x_max":1074,"o":"m 700 149 l 372 149 l 324 0 l 0 0 l 360 983 l 715 983 l 1074 0 l 749 0 l 700 149 m 625 381 l 536 654 l 447 381 l 625 381 m 717 1242 l 717 1036 l 357 1167 l 357 1394 l 717 1242 z "},"Á":{"ha":1074,"x_min":0,"x_max":1074,"o":"m 700 149 l 372 149 l 324 0 l 0 0 l 360 983 l 715 983 l 1074 0 l 749 0 l 700 149 m 625 381 l 536 654 l 447 381 l 625 381 m 717 1167 l 357 1036 l 357 1242 l 717 1394 l 717 1167 z "},"Â":{"ha":1074,"x_min":0,"x_max":1074,"o":"m 700 149 l 372 149 l 324 0 l 0 0 l 360 983 l 715 983 l 1074 0 l 749 0 l 700 149 m 625 381 l 536 654 l 447 381 l 625 381 m 538 1144 l 307 1022 l 307 1222 l 538 1340 l 767 1222 l 767 1022 l 538 1144 z "},"Ã":{"ha":1074,"x_min":0,"x_max":1074,"o":"m 700 149 l 372 149 l 324 0 l 0 0 l 360 983 l 715 983 l 1074 0 l 749 0 l 700 149 m 625 381 l 536 654 l 447 381 l 625 381 m 442 1294 q 504 1285 475 1294 q 567 1257 533 1275 q 609 1237 593 1243 q 642 1231 625 1231 q 703 1296 693 1231 l 854 1296 q 776 1110 832 1167 q 631 1053 719 1053 q 568 1063 597 1053 q 506 1090 539 1072 q 467 1108 486 1100 q 431 1115 447 1115 q 368 1050 381 1115 l 218 1050 q 297 1237 240 1179 q 442 1294 353 1294 z "},"Ä":{"ha":1074,"x_min":0,"x_max":1074,"o":"m 700 149 l 372 149 l 324 0 l 0 0 l 360 983 l 715 983 l 1074 0 l 749 0 l 700 149 m 625 381 l 536 654 l 447 381 l 625 381 m 261 1179 q 295 1265 261 1231 q 379 1300 329 1300 q 466 1266 432 1300 q 500 1179 500 1232 q 465 1095 500 1129 q 379 1061 431 1061 q 295 1095 329 1061 q 261 1179 261 1129 m 574 1179 q 608 1265 574 1231 q 692 1300 642 1300 q 778 1266 744 1300 q 813 1179 813 1232 q 778 1095 813 1129 q 692 1061 743 1061 q 608 1095 642 1061 q 574 1179 574 1129 z "},"Å":{"ha":1074,"x_min":0,"x_max":1074,"o":"m 700 149 l 372 149 l 324 0 l 0 0 l 360 983 l 715 983 l 1074 0 l 749 0 l 700 149 m 625 381 l 536 654 l 447 381 l 625 381 m 536 1390 q 667 1340 614 1390 q 719 1207 719 1290 q 667 1074 719 1124 q 536 1024 614 1024 q 406 1074 458 1024 q 353 1207 353 1124 q 406 1340 353 1290 q 536 1390 458 1390 m 536 1272 q 490 1254 508 1272 q 472 1207 472 1236 q 490 1160 472 1178 q 536 1142 508 1142 q 582 1160 564 1142 q 600 1207 600 1178 q 582 1254 600 1236 q 536 1272 564 1272 z "},"Æ":{"ha":1369,"x_min":0,"x_max":1322,"o":"m 989 739 l 989 621 l 1281 621 l 1281 389 l 989 389 l 989 246 l 1322 246 l 1322 0 l 681 0 l 681 135 l 397 135 l 335 0 l 0 0 l 471 983 l 1322 983 l 1322 739 l 989 739 m 681 367 l 681 746 l 504 367 l 681 367 z "},"Ç":{"ha":1046,"x_min":42,"x_max":1004,"o":"m 528 993 q 756 945 656 993 q 920 810 857 897 q 1004 606 983 722 l 679 606 q 616 681 657 654 q 522 708 575 708 q 399 650 444 708 q 354 493 354 592 q 399 336 354 394 q 522 278 444 278 q 616 305 575 278 q 679 381 657 332 l 1004 381 q 920 176 983 264 q 756 41 857 89 q 528 -7 656 -7 q 269 56 379 -7 q 101 233 160 119 q 42 493 42 347 q 101 753 42 639 q 269 930 160 867 q 528 993 379 993 m 622 -37 q 703 -53 661 -37 q 774 -108 744 -69 q 803 -207 803 -146 q 740 -337 803 -297 q 594 -376 678 -376 l 354 -376 l 354 -219 l 563 -219 q 589 -213 579 -219 q 599 -197 599 -207 q 563 -176 599 -176 l 444 -176 l 444 10 l 622 10 l 622 -37 z "},"È":{"ha":772,"x_min":69,"x_max":725,"o":"m 378 739 l 378 617 l 683 617 l 683 385 l 378 385 l 378 246 l 725 246 l 725 0 l 69 0 l 69 983 l 725 983 l 725 739 l 378 739 m 578 1242 l 578 1036 l 218 1167 l 218 1394 l 578 1242 z "},"É":{"ha":772,"x_min":69,"x_max":725,"o":"m 378 739 l 378 617 l 683 617 l 683 385 l 378 385 l 378 246 l 725 246 l 725 0 l 69 0 l 69 983 l 725 983 l 725 739 l 378 739 m 578 1167 l 218 1036 l 218 1242 l 578 1394 l 578 1167 z "},"Ê":{"ha":772,"x_min":69,"x_max":725,"o":"m 378 739 l 378 617 l 683 617 l 683 385 l 378 385 l 378 246 l 725 246 l 725 0 l 69 0 l 69 983 l 725 983 l 725 739 l 378 739 m 399 1144 l 168 1022 l 168 1222 l 399 1340 l 628 1222 l 628 1022 l 399 1144 z "},"Ë":{"ha":772,"x_min":69,"x_max":725,"o":"m 378 739 l 378 617 l 683 617 l 683 385 l 378 385 l 378 246 l 725 246 l 725 0 l 69 0 l 69 983 l 725 983 l 725 739 l 378 739 m 122 1179 q 156 1265 122 1231 q 240 1300 190 1300 q 327 1266 293 1300 q 361 1179 361 1232 q 326 1095 361 1129 q 240 1061 292 1061 q 156 1095 190 1061 q 122 1179 122 1129 m 435 1179 q 469 1265 435 1231 q 553 1300 503 1300 q 640 1266 606 1300 q 674 1179 674 1232 q 639 1095 674 1129 q 553 1061 604 1061 q 469 1095 503 1061 q 435 1179 435 1129 z "},"Ì":{"ha":447,"x_min":44,"x_max":404,"o":"m 378 983 l 378 0 l 69 0 l 69 983 l 378 983 m 404 1242 l 404 1036 l 44 1167 l 44 1394 l 404 1242 z "},"Í":{"ha":447,"x_min":44,"x_max":404,"o":"m 378 983 l 378 0 l 69 0 l 69 983 l 378 983 m 404 1167 l 44 1036 l 44 1242 l 404 1394 l 404 1167 z "},"Î":{"ha":447,"x_min":-6,"x_max":454,"o":"m 378 983 l 378 0 l 69 0 l 69 983 l 378 983 m 225 1144 l -6 1022 l -6 1222 l 225 1340 l 454 1222 l 454 1022 l 225 1144 z "},"Ï":{"ha":447,"x_min":-51,"x_max":500,"o":"m 378 983 l 378 0 l 69 0 l 69 983 l 378 983 m -51 1179 q -17 1265 -51 1231 q 67 1300 17 1300 q 153 1266 119 1300 q 188 1179 188 1232 q 153 1095 188 1129 q 67 1061 118 1061 q -17 1095 17 1061 q -51 1179 -51 1129 m 261 1179 q 295 1265 261 1231 q 379 1300 329 1300 q 466 1266 432 1300 q 500 1179 500 1232 q 465 1095 500 1129 q 379 1061 431 1061 q 295 1095 329 1061 q 261 1179 261 1129 z "},"Ð":{"ha":1032,"x_min":0,"x_max":990,"o":"m 479 983 q 749 921 633 983 q 928 747 865 858 q 990 494 990 636 q 928 242 990 354 q 749 65 865 129 q 479 0 633 0 l 69 0 l 69 372 l 0 372 l 0 617 l 69 617 l 69 983 l 479 983 m 451 275 q 617 332 556 275 q 678 494 678 389 q 617 657 678 600 q 451 714 556 714 l 378 714 l 378 617 l 558 617 l 558 372 l 378 372 l 378 275 l 451 275 z "},"Ñ":{"ha":1082,"x_min":69,"x_max":1013,"o":"m 1013 0 l 704 0 l 378 494 l 378 0 l 69 0 l 69 983 l 378 983 l 704 481 l 704 983 l 1013 983 l 1013 0 m 446 1294 q 508 1285 479 1294 q 571 1257 538 1275 q 613 1237 597 1243 q 646 1231 629 1231 q 707 1296 697 1231 l 858 1296 q 780 1110 836 1167 q 635 1053 724 1053 q 572 1063 601 1053 q 510 1090 543 1072 q 471 1108 490 1100 q 435 1115 451 1115 q 372 1050 385 1115 l 222 1050 q 301 1237 244 1179 q 446 1294 357 1294 z "},"Ò":{"ha":1094,"x_min":42,"x_max":1053,"o":"m 549 1000 q 803 935 688 1000 q 985 756 918 871 q 1053 496 1053 640 q 985 236 1053 351 q 802 56 918 121 q 549 -10 686 -10 q 294 56 410 -10 q 110 236 178 121 q 42 496 42 351 q 110 756 42 640 q 294 935 178 871 q 549 1000 410 1000 m 549 715 q 406 656 456 715 q 356 496 356 597 q 406 337 356 396 q 549 278 456 278 q 690 337 640 278 q 740 496 740 396 q 690 656 740 597 q 549 715 640 715 m 728 1242 l 728 1036 l 368 1167 l 368 1394 l 728 1242 z "},"Ó":{"ha":1094,"x_min":42,"x_max":1053,"o":"m 549 1000 q 803 935 688 1000 q 985 756 918 871 q 1053 496 1053 640 q 985 236 1053 351 q 802 56 918 121 q 549 -10 686 -10 q 294 56 410 -10 q 110 236 178 121 q 42 496 42 351 q 110 756 42 640 q 294 935 178 871 q 549 1000 410 1000 m 549 715 q 406 656 456 715 q 356 496 356 597 q 406 337 356 396 q 549 278 456 278 q 690 337 640 278 q 740 496 740 396 q 690 656 740 597 q 549 715 640 715 m 728 1167 l 368 1036 l 368 1242 l 728 1394 l 728 1167 z "},"Ô":{"ha":1094,"x_min":42,"x_max":1053,"o":"m 549 1000 q 803 935 688 1000 q 985 756 918 871 q 1053 496 1053 640 q 985 236 1053 351 q 802 56 918 121 q 549 -10 686 -10 q 294 56 410 -10 q 110 236 178 121 q 42 496 42 351 q 110 756 42 640 q 294 935 178 871 q 549 1000 410 1000 m 549 715 q 406 656 456 715 q 356 496 356 597 q 406 337 356 396 q 549 278 456 278 q 690 337 640 278 q 740 496 740 396 q 690 656 740 597 q 549 715 640 715 m 549 1144 l 318 1022 l 318 1222 l 549 1340 l 778 1222 l 778 1022 l 549 1144 z "},"Õ":{"ha":1094,"x_min":42,"x_max":1053,"o":"m 549 1000 q 803 935 688 1000 q 985 756 918 871 q 1053 496 1053 640 q 985 236 1053 351 q 802 56 918 121 q 549 -10 686 -10 q 294 56 410 -10 q 110 236 178 121 q 42 496 42 351 q 110 756 42 640 q 294 935 178 871 q 549 1000 410 1000 m 549 715 q 406 656 456 715 q 356 496 356 597 q 406 337 356 396 q 549 278 456 278 q 690 337 640 278 q 740 496 740 396 q 690 656 740 597 q 549 715 640 715 m 453 1294 q 515 1285 486 1294 q 578 1257 544 1275 q 620 1237 604 1243 q 653 1231 636 1231 q 714 1296 704 1231 l 865 1296 q 787 1110 843 1167 q 642 1053 731 1053 q 579 1063 608 1053 q 517 1090 550 1072 q 478 1108 497 1100 q 442 1115 458 1115 q 379 1050 392 1115 l 229 1050 q 308 1237 251 1179 q 453 1294 364 1294 z "},"Ö":{"ha":1094,"x_min":42,"x_max":1053,"o":"m 549 1000 q 803 935 688 1000 q 985 756 918 871 q 1053 496 1053 640 q 985 236 1053 351 q 802 56 918 121 q 549 -10 686 -10 q 294 56 410 -10 q 110 236 178 121 q 42 496 42 351 q 110 756 42 640 q 294 935 178 871 q 549 1000 410 1000 m 549 715 q 406 656 456 715 q 356 496 356 597 q 406 337 356 396 q 549 278 456 278 q 690 337 640 278 q 740 496 740 396 q 690 656 740 597 q 549 715 640 715 m 272 1179 q 306 1265 272 1231 q 390 1300 340 1300 q 477 1266 443 1300 q 511 1179 511 1232 q 476 1095 511 1129 q 390 1061 442 1061 q 306 1095 340 1061 q 272 1179 272 1129 m 585 1179 q 619 1265 585 1231 q 703 1300 653 1300 q 790 1266 756 1300 q 824 1179 824 1232 q 789 1095 824 1129 q 703 1061 754 1061 q 619 1095 653 1061 q 585 1179 585 1129 z "},"×":{"ha":807,"x_min":28,"x_max":779,"o":"m 575 108 l 399 283 l 226 110 l 28 307 l 200 482 l 33 649 l 238 850 l 401 686 l 564 850 l 764 653 l 600 488 l 779 310 l 575 108 z "},"Ø":{"ha":1094,"x_min":25,"x_max":1068,"o":"m 929 833 q 1019 681 988 767 q 1051 496 1051 594 q 984 236 1051 351 q 801 56 917 121 q 547 -10 685 -10 q 392 13 467 -10 q 256 78 318 36 l 186 1 l 25 1 l 165 157 q 73 310 106 224 q 40 496 40 397 q 108 756 40 640 q 292 935 176 871 q 547 1000 408 1000 q 840 913 708 1000 l 908 989 l 1068 989 l 929 833 m 354 496 q 372 390 354 435 l 643 693 q 547 715 601 715 q 404 656 454 715 q 354 496 354 597 m 739 496 q 721 601 739 557 l 451 299 q 547 278 493 278 q 689 337 639 278 q 739 496 739 396 z "},"Ù":{"ha":999,"x_min":64,"x_max":935,"o":"m 371 983 l 371 429 q 401 322 371 361 q 497 282 431 282 q 596 322 564 282 q 628 429 628 361 l 628 983 l 935 983 l 935 429 q 876 190 935 289 q 717 40 818 90 q 490 -10 615 -10 q 269 40 365 -10 q 118 189 172 90 q 64 429 64 288 l 64 983 l 371 983 m 679 1242 l 679 1036 l 319 1167 l 319 1394 l 679 1242 z "},"Ú":{"ha":999,"x_min":64,"x_max":935,"o":"m 371 983 l 371 429 q 401 322 371 361 q 497 282 431 282 q 596 322 564 282 q 628 429 628 361 l 628 983 l 935 983 l 935 429 q 876 190 935 289 q 717 40 818 90 q 490 -10 615 -10 q 269 40 365 -10 q 118 189 172 90 q 64 429 64 288 l 64 983 l 371 983 m 679 1167 l 319 1036 l 319 1242 l 679 1394 l 679 1167 z "},"Û":{"ha":999,"x_min":64,"x_max":935,"o":"m 371 983 l 371 429 q 401 322 371 361 q 497 282 431 282 q 596 322 564 282 q 628 429 628 361 l 628 983 l 935 983 l 935 429 q 876 190 935 289 q 717 40 818 90 q 490 -10 615 -10 q 269 40 365 -10 q 118 189 172 90 q 64 429 64 288 l 64 983 l 371 983 m 500 1144 l 269 1022 l 269 1222 l 500 1340 l 729 1222 l 729 1022 l 500 1144 z "},"Ü":{"ha":999,"x_min":64,"x_max":935,"o":"m 371 983 l 371 429 q 401 322 371 361 q 497 282 431 282 q 596 322 564 282 q 628 429 628 361 l 628 983 l 935 983 l 935 429 q 876 190 935 289 q 717 40 818 90 q 490 -10 615 -10 q 269 40 365 -10 q 118 189 172 90 q 64 429 64 288 l 64 983 l 371 983 m 224 1179 q 258 1265 224 1231 q 342 1300 292 1300 q 428 1266 394 1300 q 463 1179 463 1232 q 428 1095 463 1129 q 342 1061 393 1061 q 258 1095 292 1061 q 224 1179 224 1129 m 536 1179 q 570 1265 536 1231 q 654 1300 604 1300 q 741 1266 707 1300 q 775 1179 775 1232 q 740 1095 775 1129 q 654 1061 706 1061 q 570 1095 604 1061 q 536 1179 536 1129 z "},"Ý":{"ha":1014,"x_min":0,"x_max":1014,"o":"m 1014 983 l 661 299 l 661 0 l 353 0 l 353 299 l 0 983 l 353 983 l 510 635 l 667 983 l 1014 983 m 688 1167 l 328 1036 l 328 1242 l 688 1394 l 688 1167 z "},"Þ":{"ha":901,"x_min":69,"x_max":874,"o":"m 378 174 l 378 0 l 69 0 l 69 983 l 375 983 l 375 817 l 500 817 q 777 728 681 817 q 874 493 874 640 q 831 331 874 404 q 703 216 788 258 q 500 174 619 174 l 378 174 m 465 403 q 561 493 561 403 q 465 583 561 583 l 378 583 l 378 403 l 465 403 z "},"ß":{"ha":1074,"x_min":69,"x_max":1060,"o":"m 835 588 q 1008 451 957 522 q 1060 274 1060 381 q 1023 131 1060 194 q 917 29 986 67 q 754 -8 849 -8 q 510 74 592 -8 q 426 304 429 157 l 676 304 q 694 269 681 279 q 724 258 707 258 q 752 269 743 258 q 761 299 761 281 q 745 340 761 325 q 685 378 729 356 l 485 481 l 485 597 l 500 608 q 540 679 540 638 q 519 738 540 715 q 463 761 499 761 q 400 735 425 761 q 375 661 375 710 l 378 0 l 69 0 l 69 594 q 177 933 69 825 q 500 1042 285 1042 q 696 1007 615 1042 q 816 916 776 972 q 856 796 856 860 q 833 701 856 742 q 757 629 811 661 l 835 588 z "},"à":{"ha":944,"x_min":28,"x_max":875,"o":"m 351 793 q 483 762 428 793 q 568 676 539 731 l 568 783 l 875 783 l 875 0 l 568 0 l 568 107 q 483 22 539 53 q 351 -10 428 -10 q 186 38 260 -10 q 70 177 113 86 q 28 392 28 268 q 70 606 28 515 q 186 745 113 697 q 351 793 260 793 m 454 524 q 372 489 404 524 q 340 392 340 454 q 372 294 340 329 q 454 260 404 260 q 536 294 504 260 q 568 392 568 329 q 536 489 568 454 q 454 524 504 524 m 632 1042 l 632 836 l 272 967 l 272 1194 l 632 1042 z "},"á":{"ha":944,"x_min":28,"x_max":875,"o":"m 351 793 q 483 762 428 793 q 568 676 539 731 l 568 783 l 875 783 l 875 0 l 568 0 l 568 107 q 483 22 539 53 q 351 -10 428 -10 q 186 38 260 -10 q 70 177 113 86 q 28 392 28 268 q 70 606 28 515 q 186 745 113 697 q 351 793 260 793 m 454 524 q 372 489 404 524 q 340 392 340 454 q 372 294 340 329 q 454 260 404 260 q 536 294 504 260 q 568 392 568 329 q 536 489 568 454 q 454 524 504 524 m 632 967 l 272 836 l 272 1042 l 632 1194 l 632 967 z "},"â":{"ha":944,"x_min":28,"x_max":875,"o":"m 351 793 q 483 762 428 793 q 568 676 539 731 l 568 783 l 875 783 l 875 0 l 568 0 l 568 107 q 483 22 539 53 q 351 -10 428 -10 q 186 38 260 -10 q 70 177 113 86 q 28 392 28 268 q 70 606 28 515 q 186 745 113 697 q 351 793 260 793 m 454 524 q 372 489 404 524 q 340 392 340 454 q 372 294 340 329 q 454 260 404 260 q 536 294 504 260 q 568 392 568 329 q 536 489 568 454 q 454 524 504 524 m 453 944 l 222 822 l 222 1022 l 453 1140 l 682 1022 l 682 822 l 453 944 z "},"ã":{"ha":944,"x_min":28,"x_max":875,"o":"m 351 793 q 483 762 428 793 q 568 676 539 731 l 568 783 l 875 783 l 875 0 l 568 0 l 568 107 q 483 22 539 53 q 351 -10 428 -10 q 186 38 260 -10 q 70 177 113 86 q 28 392 28 268 q 70 606 28 515 q 186 745 113 697 q 351 793 260 793 m 454 524 q 372 489 404 524 q 340 392 340 454 q 372 294 340 329 q 454 260 404 260 q 536 294 504 260 q 568 392 568 329 q 536 489 568 454 q 454 524 504 524 m 357 1094 q 419 1085 390 1094 q 482 1057 449 1075 q 524 1037 508 1043 q 557 1031 540 1031 q 618 1096 608 1031 l 769 1096 q 691 910 747 967 q 546 853 635 853 q 483 863 513 853 q 421 890 454 872 q 382 908 401 900 q 346 915 363 915 q 283 850 296 915 l 133 850 q 212 1037 156 979 q 357 1094 268 1094 z "},"ä":{"ha":944,"x_min":28,"x_max":875,"o":"m 351 793 q 483 762 428 793 q 568 676 539 731 l 568 783 l 875 783 l 875 0 l 568 0 l 568 107 q 483 22 539 53 q 351 -10 428 -10 q 186 38 260 -10 q 70 177 113 86 q 28 392 28 268 q 70 606 28 515 q 186 745 113 697 q 351 793 260 793 m 454 524 q 372 489 404 524 q 340 392 340 454 q 372 294 340 329 q 454 260 404 260 q 536 294 504 260 q 568 392 568 329 q 536 489 568 454 q 454 524 504 524 m 176 979 q 210 1065 176 1031 q 294 1100 244 1100 q 381 1066 347 1100 q 415 979 415 1032 q 381 895 415 929 q 294 861 346 861 q 210 895 244 861 q 176 979 176 929 m 489 979 q 523 1065 489 1031 q 607 1100 557 1100 q 694 1066 660 1100 q 728 979 728 1032 q 693 895 728 929 q 607 861 658 861 q 523 895 557 861 q 489 979 489 929 z "},"å":{"ha":944,"x_min":28,"x_max":875,"o":"m 351 793 q 483 762 428 793 q 568 676 539 731 l 568 783 l 875 783 l 875 0 l 568 0 l 568 107 q 483 22 539 53 q 351 -10 428 -10 q 186 38 260 -10 q 70 177 113 86 q 28 392 28 268 q 70 606 28 515 q 186 745 113 697 q 351 793 260 793 m 454 524 q 372 489 404 524 q 340 392 340 454 q 372 294 340 329 q 454 260 404 260 q 536 294 504 260 q 568 392 568 329 q 536 489 568 454 q 454 524 504 524 m 451 1190 q 582 1140 529 1190 q 635 1007 635 1090 q 582 874 635 924 q 451 824 529 824 q 321 874 374 824 q 268 1007 268 924 q 321 1140 268 1090 q 451 1190 374 1190 m 451 1072 q 406 1054 424 1072 q 388 1007 388 1036 q 406 960 388 978 q 451 942 424 942 q 497 960 479 942 q 515 1007 515 978 q 497 1054 515 1036 q 451 1072 479 1072 z "},"æ":{"ha":1464,"x_min":28,"x_max":1436,"o":"m 1436 399 q 1429 338 1436 369 l 886 338 q 922 256 893 279 q 996 232 950 232 q 1093 282 1071 232 l 1419 282 q 1310 72 1394 154 q 1106 -10 1225 -10 q 963 21 1022 -10 q 875 107 904 51 l 875 0 l 568 0 l 568 107 q 483 22 539 53 q 351 -10 428 -10 q 186 38 260 -10 q 70 177 113 86 q 28 392 28 268 q 70 606 28 515 q 186 745 113 697 q 351 793 260 793 q 483 762 428 793 q 568 676 539 731 l 568 783 l 875 783 l 875 676 q 963 763 903 732 q 1106 793 1022 793 q 1277 745 1203 793 q 1394 608 1351 697 q 1436 399 1436 519 m 1124 464 q 1090 529 1124 507 q 1006 551 1057 551 q 888 464 906 551 l 1124 464 m 454 260 q 536 294 504 260 q 568 392 568 329 q 536 489 568 454 q 454 524 504 524 q 372 489 404 524 q 340 392 340 454 q 372 294 340 329 q 454 260 404 260 z "},"ç":{"ha":846,"x_min":28,"x_max":818,"o":"m 428 793 q 685 707 581 793 q 818 468 790 621 l 492 468 q 421 529 474 529 q 362 494 383 529 q 340 392 340 460 q 362 289 340 324 q 421 254 383 254 q 492 315 474 254 l 818 315 q 685 76 790 163 q 428 -10 581 -10 q 220 39 311 -10 q 78 178 129 88 q 28 392 28 269 q 78 605 28 514 q 220 744 129 696 q 428 793 311 793 m 467 -37 q 547 -53 506 -37 q 618 -108 589 -69 q 647 -207 647 -146 q 585 -337 647 -297 q 439 -376 522 -376 l 199 -376 l 199 -219 l 407 -219 q 433 -213 424 -219 q 443 -197 443 -207 q 407 -176 443 -176 l 289 -176 l 289 10 l 467 10 l 467 -37 z "},"è":{"ha":856,"x_min":28,"x_max":828,"o":"m 828 399 q 821 338 828 369 l 328 338 q 354 258 332 279 q 413 236 376 236 q 485 282 463 236 l 811 282 q 741 133 794 199 q 606 28 688 67 q 428 -10 525 -10 q 220 39 311 -10 q 78 178 129 88 q 28 392 28 269 q 78 605 28 514 q 220 744 129 696 q 428 793 311 793 q 635 745 544 793 q 777 608 726 697 q 828 399 828 519 m 515 464 q 490 530 515 508 q 428 551 465 551 q 331 464 343 551 l 515 464 m 608 1042 l 608 836 l 249 967 l 249 1194 l 608 1042 z "},"é":{"ha":856,"x_min":28,"x_max":828,"o":"m 828 399 q 821 338 828 369 l 328 338 q 354 258 332 279 q 413 236 376 236 q 485 282 463 236 l 811 282 q 741 133 794 199 q 606 28 688 67 q 428 -10 525 -10 q 220 39 311 -10 q 78 178 129 88 q 28 392 28 269 q 78 605 28 514 q 220 744 129 696 q 428 793 311 793 q 635 745 544 793 q 777 608 726 697 q 828 399 828 519 m 515 464 q 490 530 515 508 q 428 551 465 551 q 331 464 343 551 l 515 464 m 608 967 l 249 836 l 249 1042 l 608 1194 l 608 967 z "},"ê":{"ha":856,"x_min":28,"x_max":828,"o":"m 828 399 q 821 338 828 369 l 328 338 q 354 258 332 279 q 413 236 376 236 q 485 282 463 236 l 811 282 q 741 133 794 199 q 606 28 688 67 q 428 -10 525 -10 q 220 39 311 -10 q 78 178 129 88 q 28 392 28 269 q 78 605 28 514 q 220 744 129 696 q 428 793 311 793 q 635 745 544 793 q 777 608 726 697 q 828 399 828 519 m 515 464 q 490 530 515 508 q 428 551 465 551 q 331 464 343 551 l 515 464 m 429 944 l 199 822 l 199 1022 l 429 1140 l 658 1022 l 658 822 l 429 944 z "},"ë":{"ha":856,"x_min":28,"x_max":828,"o":"m 828 399 q 821 338 828 369 l 328 338 q 354 258 332 279 q 413 236 376 236 q 485 282 463 236 l 811 282 q 741 133 794 199 q 606 28 688 67 q 428 -10 525 -10 q 220 39 311 -10 q 78 178 129 88 q 28 392 28 269 q 78 605 28 514 q 220 744 129 696 q 428 793 311 793 q 635 745 544 793 q 777 608 726 697 q 828 399 828 519 m 515 464 q 490 530 515 508 q 428 551 465 551 q 331 464 343 551 l 515 464 m 153 979 q 187 1065 153 1031 q 271 1100 221 1100 q 358 1066 324 1100 q 392 979 392 1032 q 357 895 392 929 q 271 861 322 861 q 187 895 221 861 q 153 979 153 929 m 465 979 q 499 1065 465 1031 q 583 1100 533 1100 q 670 1066 636 1100 q 704 979 704 1032 q 669 895 704 929 q 583 861 635 861 q 499 895 533 861 q 465 979 465 929 z "},"ì":{"ha":517,"x_min":79,"x_max":439,"o":"m 413 783 l 413 0 l 104 0 l 104 783 l 413 783 m 439 1042 l 439 836 l 79 967 l 79 1194 l 439 1042 z "},"í":{"ha":517,"x_min":79,"x_max":439,"o":"m 413 783 l 413 0 l 104 0 l 104 783 l 413 783 m 439 967 l 79 836 l 79 1042 l 439 1194 l 439 967 z "},"î":{"ha":517,"x_min":29,"x_max":489,"o":"m 413 783 l 413 0 l 104 0 l 104 783 l 413 783 m 260 944 l 29 822 l 29 1022 l 260 1140 l 489 1022 l 489 822 l 260 944 z "},"ï":{"ha":517,"x_min":-17,"x_max":535,"o":"m 413 783 l 413 0 l 104 0 l 104 783 l 413 783 m -17 979 q 17 1065 -17 1031 q 101 1100 51 1100 q 188 1066 154 1100 q 222 979 222 1032 q 188 895 222 929 q 101 861 153 861 q 17 895 51 861 q -17 979 -17 929 m 296 979 q 330 1065 296 1031 q 414 1100 364 1100 q 501 1066 467 1100 q 535 979 535 1032 q 500 895 535 929 q 414 861 465 861 q 330 895 364 861 q 296 979 296 929 z "},"ð":{"ha":893,"x_min":28,"x_max":865,"o":"m 706 913 q 822 684 779 807 q 865 440 865 561 q 810 197 865 299 q 663 44 756 96 q 456 -8 569 -8 q 242 41 340 -8 q 86 182 144 90 q 28 394 28 274 q 79 604 28 515 q 219 741 131 693 q 418 789 308 789 q 528 778 464 789 q 486 850 514 807 l 367 817 l 367 917 l 428 935 q 343 1028 383 992 l 611 1028 l 642 994 l 735 1021 l 735 921 l 706 913 m 456 258 q 524 290 496 258 q 551 392 551 322 q 520 492 551 460 q 450 524 489 524 q 374 492 407 524 q 342 392 342 460 q 378 291 342 324 q 456 258 414 258 z "},"ñ":{"ha":968,"x_min":69,"x_max":904,"o":"m 618 789 q 828 699 753 789 q 904 454 904 608 l 904 0 l 597 0 l 597 415 q 567 503 597 471 q 488 536 538 536 q 407 503 436 536 q 378 415 378 471 l 378 0 l 69 0 l 69 783 l 378 783 l 378 664 q 474 754 414 719 q 618 789 535 789 m 392 1094 q 454 1085 425 1094 q 517 1057 483 1075 q 559 1037 543 1043 q 592 1031 575 1031 q 653 1096 643 1031 l 804 1096 q 726 910 782 967 q 581 853 669 853 q 518 863 547 853 q 456 890 489 872 q 417 908 436 900 q 381 915 397 915 q 318 850 331 915 l 168 850 q 247 1037 190 979 q 392 1094 303 1094 z "},"ò":{"ha":883,"x_min":28,"x_max":856,"o":"m 442 793 q 654 744 560 793 q 802 605 749 696 q 856 392 856 514 q 802 178 856 269 q 654 39 749 88 q 442 -10 560 -10 q 229 39 324 -10 q 81 178 135 88 q 28 392 28 269 q 81 605 28 514 q 229 744 135 696 q 442 793 324 793 m 442 526 q 369 492 399 526 q 340 392 340 458 q 369 291 340 325 q 442 257 397 257 q 514 291 485 257 q 543 392 543 325 q 514 492 543 458 q 442 526 485 526 m 622 1042 l 622 836 l 263 967 l 263 1194 l 622 1042 z "},"ó":{"ha":883,"x_min":28,"x_max":856,"o":"m 442 793 q 654 744 560 793 q 802 605 749 696 q 856 392 856 514 q 802 178 856 269 q 654 39 749 88 q 442 -10 560 -10 q 229 39 324 -10 q 81 178 135 88 q 28 392 28 269 q 81 605 28 514 q 229 744 135 696 q 442 793 324 793 m 442 526 q 369 492 399 526 q 340 392 340 458 q 369 291 340 325 q 442 257 397 257 q 514 291 485 257 q 543 392 543 325 q 514 492 543 458 q 442 526 485 526 m 622 967 l 263 836 l 263 1042 l 622 1194 l 622 967 z "},"ô":{"ha":883,"x_min":28,"x_max":856,"o":"m 442 793 q 654 744 560 793 q 802 605 749 696 q 856 392 856 514 q 802 178 856 269 q 654 39 749 88 q 442 -10 560 -10 q 229 39 324 -10 q 81 178 135 88 q 28 392 28 269 q 81 605 28 514 q 229 744 135 696 q 442 793 324 793 m 442 526 q 369 492 399 526 q 340 392 340 458 q 369 291 340 325 q 442 257 397 257 q 514 291 485 257 q 543 392 543 325 q 514 492 543 458 q 442 526 485 526 m 443 944 l 213 822 l 213 1022 l 443 1140 l 672 1022 l 672 822 l 443 944 z "},"õ":{"ha":883,"x_min":28,"x_max":856,"o":"m 442 793 q 654 744 560 793 q 802 605 749 696 q 856 392 856 514 q 802 178 856 269 q 654 39 749 88 q 442 -10 560 -10 q 229 39 324 -10 q 81 178 135 88 q 28 392 28 269 q 81 605 28 514 q 229 744 135 696 q 442 793 324 793 m 442 526 q 369 492 399 526 q 340 392 340 458 q 369 291 340 325 q 442 257 397 257 q 514 291 485 257 q 543 392 543 325 q 514 492 543 458 q 442 526 485 526 m 347 1094 q 410 1085 381 1094 q 472 1057 439 1075 q 515 1037 499 1043 q 547 1031 531 1031 q 608 1096 599 1031 l 760 1096 q 681 910 738 967 q 536 853 625 853 q 474 863 503 853 q 411 890 444 872 q 372 908 392 900 q 336 915 353 915 q 274 850 286 915 l 124 850 q 202 1037 146 979 q 347 1094 258 1094 z "},"ö":{"ha":883,"x_min":28,"x_max":856,"o":"m 442 793 q 654 744 560 793 q 802 605 749 696 q 856 392 856 514 q 802 178 856 269 q 654 39 749 88 q 442 -10 560 -10 q 229 39 324 -10 q 81 178 135 88 q 28 392 28 269 q 81 605 28 514 q 229 744 135 696 q 442 793 324 793 m 442 526 q 369 492 399 526 q 340 392 340 458 q 369 291 340 325 q 442 257 397 257 q 514 291 485 257 q 543 392 543 325 q 514 492 543 458 q 442 526 485 526 m 167 979 q 201 1065 167 1031 q 285 1100 235 1100 q 372 1066 338 1100 q 406 979 406 1032 q 371 895 406 929 q 285 861 336 861 q 201 895 235 861 q 167 979 167 929 m 479 979 q 513 1065 479 1031 q 597 1100 547 1100 q 684 1066 650 1100 q 718 979 718 1032 q 683 895 718 929 q 597 861 649 861 q 513 895 547 861 q 479 979 479 929 z "},"÷":{"ha":765,"x_min":28,"x_max":738,"o":"m 533 946 l 533 651 l 228 651 l 228 946 l 533 946 m 738 613 l 738 333 l 28 333 l 28 613 l 738 613 m 533 294 l 533 0 l 228 0 l 228 294 l 533 294 z "},"ø":{"ha":863,"x_min":0,"x_max":863,"o":"m 750 661 q 844 392 844 554 q 791 178 844 269 q 643 39 738 88 q 431 -10 549 -10 q 192 54 294 -10 l 143 0 l 0 0 l 111 121 q 17 392 17 228 q 70 605 17 514 q 218 744 124 696 q 431 793 313 793 q 669 729 567 793 l 719 783 l 863 783 l 750 661 m 329 392 q 331 361 329 371 l 474 517 q 431 526 456 526 q 358 492 388 526 q 329 392 329 458 m 532 392 q 531 421 532 413 l 388 267 q 431 257 407 257 q 503 291 474 257 q 532 392 532 325 z "},"ù":{"ha":968,"x_min":64,"x_max":899,"o":"m 899 783 l 899 0 l 590 0 l 590 119 q 494 29 554 64 q 350 -6 433 -6 q 140 85 215 -6 q 64 329 64 175 l 64 783 l 371 783 l 371 368 q 401 280 371 313 q 481 247 431 247 q 561 280 532 247 q 590 368 590 313 l 590 783 l 899 783 m 661 1042 l 661 836 l 301 967 l 301 1194 l 661 1042 z "},"ú":{"ha":968,"x_min":64,"x_max":899,"o":"m 899 783 l 899 0 l 590 0 l 590 119 q 494 29 554 64 q 350 -6 433 -6 q 140 85 215 -6 q 64 329 64 175 l 64 783 l 371 783 l 371 368 q 401 280 371 313 q 481 247 431 247 q 561 280 532 247 q 590 368 590 313 l 590 783 l 899 783 m 661 967 l 301 836 l 301 1042 l 661 1194 l 661 967 z "},"û":{"ha":968,"x_min":64,"x_max":899,"o":"m 899 783 l 899 0 l 590 0 l 590 119 q 494 29 554 64 q 350 -6 433 -6 q 140 85 215 -6 q 64 329 64 175 l 64 783 l 371 783 l 371 368 q 401 280 371 313 q 481 247 431 247 q 561 280 532 247 q 590 368 590 313 l 590 783 l 899 783 m 482 944 l 251 822 l 251 1022 l 482 1140 l 711 1022 l 711 822 l 482 944 z "},"ü":{"ha":968,"x_min":64,"x_max":899,"o":"m 899 783 l 899 0 l 590 0 l 590 119 q 494 29 554 64 q 350 -6 433 -6 q 140 85 215 -6 q 64 329 64 175 l 64 783 l 371 783 l 371 368 q 401 280 371 313 q 481 247 431 247 q 561 280 532 247 q 590 368 590 313 l 590 783 l 899 783 m 206 979 q 240 1065 206 1031 q 324 1100 274 1100 q 410 1066 376 1100 q 444 979 444 1032 q 410 895 444 929 q 324 861 375 861 q 240 895 274 861 q 206 979 206 929 m 518 979 q 552 1065 518 1031 q 636 1100 586 1100 q 723 1066 689 1100 q 757 979 757 1032 q 722 895 757 929 q 636 861 688 861 q 552 895 586 861 q 518 979 518 929 z "},"ý":{"ha":940,"x_min":-14,"x_max":954,"o":"m 329 783 l 476 386 l 614 783 l 954 783 l 453 -375 l 115 -375 l 313 39 l -14 783 l 329 783 m 650 967 l 290 836 l 290 1042 l 650 1194 l 650 967 z "},"þ":{"ha":944,"x_min":69,"x_max":917,"o":"m 571 789 q 743 737 664 789 q 869 593 822 685 q 917 386 917 501 q 869 181 917 271 q 743 42 822 92 q 571 -8 664 -8 q 464 15 510 -8 q 378 86 418 38 l 378 -375 l 69 -375 l 69 1028 l 378 1028 l 378 714 q 461 772 415 754 q 571 789 507 789 m 492 522 q 413 491 449 522 q 378 392 378 460 q 413 292 378 324 q 492 260 449 260 q 569 289 535 260 q 604 386 604 318 q 569 488 604 454 q 492 522 533 522 z "},"ÿ":{"ha":940,"x_min":-14,"x_max":954,"o":"m 329 783 l 476 386 l 614 783 l 954 783 l 453 -375 l 115 -375 l 313 39 l -14 783 l 329 783 m 194 979 q 228 1065 194 1031 q 313 1100 263 1100 q 399 1066 365 1100 q 433 979 433 1032 q 399 895 433 929 q 313 861 364 861 q 228 895 263 861 q 194 979 194 929 m 507 979 q 541 1065 507 1031 q 625 1100 575 1100 q 712 1066 678 1100 q 746 979 746 1032 q 711 895 746 929 q 625 861 676 861 q 541 895 575 861 q 507 979 507 929 z "},"Ā":{"ha":1074,"x_min":0,"x_max":1074,"o":"m 700 149 l 372 149 l 324 0 l 0 0 l 360 983 l 715 983 l 1074 0 l 749 0 l 700 149 m 625 381 l 536 654 l 447 381 l 625 381 m 836 1268 l 836 1064 l 238 1064 l 238 1268 l 836 1268 z "},"ā":{"ha":944,"x_min":28,"x_max":875,"o":"m 351 793 q 483 762 428 793 q 568 676 539 731 l 568 783 l 875 783 l 875 0 l 568 0 l 568 107 q 483 22 539 53 q 351 -10 428 -10 q 186 38 260 -10 q 70 177 113 86 q 28 392 28 268 q 70 606 28 515 q 186 745 113 697 q 351 793 260 793 m 454 524 q 372 489 404 524 q 340 392 340 454 q 372 294 340 329 q 454 260 404 260 q 536 294 504 260 q 568 392 568 329 q 536 489 568 454 q 454 524 504 524 m 751 1068 l 751 864 l 153 864 l 153 1068 l 751 1068 z "},"Ă":{"ha":1074,"x_min":0,"x_max":1074,"o":"m 700 149 l 372 149 l 324 0 l 0 0 l 360 983 l 715 983 l 1074 0 l 749 0 l 700 149 m 625 381 l 536 654 l 447 381 l 625 381 m 536 1033 q 348 1106 421 1033 q 275 1315 275 1178 l 275 1339 l 418 1339 q 444 1274 418 1296 q 536 1253 471 1253 q 628 1274 601 1253 q 654 1339 654 1296 l 797 1339 l 797 1315 q 724 1106 797 1178 q 536 1033 651 1033 z "},"ă":{"ha":944,"x_min":28,"x_max":875,"o":"m 351 793 q 483 762 428 793 q 568 676 539 731 l 568 783 l 875 783 l 875 0 l 568 0 l 568 107 q 483 22 539 53 q 351 -10 428 -10 q 186 38 260 -10 q 70 177 113 86 q 28 392 28 268 q 70 606 28 515 q 186 745 113 697 q 351 793 260 793 m 454 524 q 372 489 404 524 q 340 392 340 454 q 372 294 340 329 q 454 260 404 260 q 536 294 504 260 q 568 392 568 329 q 536 489 568 454 q 454 524 504 524 m 451 833 q 263 906 336 833 q 190 1115 190 978 l 190 1139 l 333 1139 q 360 1074 333 1096 q 451 1053 386 1053 q 543 1074 517 1053 q 569 1139 569 1096 l 713 1139 l 713 1115 q 640 906 713 978 q 451 833 567 833 z "},"Ą":{"ha":1074,"x_min":0,"x_max":1128,"o":"m 1128 -147 l 1128 -304 l 894 -304 q 749 -265 811 -304 q 686 -135 686 -225 q 750 -3 686 -53 l 701 149 l 372 149 l 324 0 l 0 0 l 360 983 l 715 983 l 1065 21 l 1065 -104 l 926 -104 q 890 -125 890 -104 q 900 -141 890 -135 q 926 -147 910 -147 l 1128 -147 m 625 381 l 536 654 l 447 381 l 625 381 z "},"ą":{"ha":944,"x_min":28,"x_max":938,"o":"m 351 793 q 483 762 428 793 q 568 676 539 731 l 568 783 l 875 783 l 875 0 l 568 0 l 568 107 q 483 22 539 53 q 351 -10 428 -10 q 186 38 260 -10 q 70 177 113 86 q 28 392 28 268 q 70 606 28 515 q 186 745 113 697 q 351 793 260 793 m 454 524 q 372 489 404 524 q 340 392 340 454 q 372 294 340 329 q 454 260 404 260 q 536 294 504 260 q 568 392 568 329 q 536 489 568 454 q 454 524 504 524 m 875 35 l 875 -104 l 736 -104 q 700 -125 700 -104 q 710 -141 700 -135 q 736 -147 719 -147 l 938 -147 l 938 -304 l 704 -304 q 558 -265 621 -304 q 496 -135 496 -225 q 525 -35 496 -74 q 596 19 554 3 q 676 35 638 35 l 875 35 z "},"Ć":{"ha":1046,"x_min":42,"x_max":1004,"o":"m 528 993 q 756 945 656 993 q 920 810 857 897 q 1004 606 983 722 l 679 606 q 616 681 657 654 q 522 708 575 708 q 399 650 444 708 q 354 493 354 592 q 399 336 354 394 q 522 278 444 278 q 616 305 575 278 q 679 381 657 332 l 1004 381 q 920 176 983 264 q 756 41 857 89 q 528 -7 656 -7 q 269 56 379 -7 q 101 233 160 119 q 42 493 42 347 q 101 753 42 639 q 269 930 160 867 q 528 993 379 993 m 703 1167 l 343 1036 l 343 1242 l 703 1394 l 703 1167 z "},"ć":{"ha":846,"x_min":28,"x_max":818,"o":"m 428 793 q 685 707 581 793 q 818 468 790 621 l 492 468 q 421 529 474 529 q 362 494 383 529 q 340 392 340 460 q 362 289 340 324 q 421 254 383 254 q 492 315 474 254 l 818 315 q 685 76 790 163 q 428 -10 581 -10 q 220 39 311 -10 q 78 178 129 88 q 28 392 28 269 q 78 605 28 514 q 220 744 129 696 q 428 793 311 793 m 603 967 l 243 836 l 243 1042 l 603 1194 l 603 967 z "},"Ċ":{"ha":1046,"x_min":42,"x_max":1004,"o":"m 528 993 q 756 945 656 993 q 920 810 857 897 q 1004 606 983 722 l 679 606 q 616 681 657 654 q 522 708 575 708 q 399 650 444 708 q 354 493 354 592 q 399 336 354 394 q 522 278 444 278 q 616 305 575 278 q 679 381 657 332 l 1004 381 q 920 176 983 264 q 756 41 857 89 q 528 -7 656 -7 q 269 56 379 -7 q 101 233 160 119 q 42 493 42 347 q 101 753 42 639 q 269 930 160 867 q 528 993 379 993 m 403 1179 q 437 1265 403 1231 q 521 1300 471 1300 q 608 1266 574 1300 q 642 1179 642 1232 q 607 1095 642 1129 q 521 1061 572 1061 q 437 1095 471 1061 q 403 1179 403 1129 z "},"ċ":{"ha":846,"x_min":28,"x_max":818,"o":"m 428 793 q 685 707 581 793 q 818 468 790 621 l 492 468 q 421 529 474 529 q 362 494 383 529 q 340 392 340 460 q 362 289 340 324 q 421 254 383 254 q 492 315 474 254 l 818 315 q 685 76 790 163 q 428 -10 581 -10 q 220 39 311 -10 q 78 178 129 88 q 28 392 28 269 q 78 605 28 514 q 220 744 129 696 q 428 793 311 793 m 303 979 q 337 1065 303 1031 q 421 1100 371 1100 q 508 1066 474 1100 q 542 979 542 1032 q 507 895 542 929 q 421 861 472 861 q 337 895 371 861 q 303 979 303 929 z "},"Č":{"ha":1046,"x_min":42,"x_max":1004,"o":"m 528 993 q 756 945 656 993 q 920 810 857 897 q 1004 606 983 722 l 679 606 q 616 681 657 654 q 522 708 575 708 q 399 650 444 708 q 354 493 354 592 q 399 336 354 394 q 522 278 444 278 q 616 305 575 278 q 679 381 657 332 l 1004 381 q 920 176 983 264 q 756 41 857 89 q 528 -7 656 -7 q 269 56 379 -7 q 101 233 160 119 q 42 493 42 347 q 101 753 42 639 q 269 930 160 867 q 528 993 379 993 m 753 1140 l 524 1022 l 293 1140 l 293 1340 l 524 1218 l 753 1340 l 753 1140 z "},"č":{"ha":846,"x_min":28,"x_max":818,"o":"m 428 793 q 685 707 581 793 q 818 468 790 621 l 492 468 q 421 529 474 529 q 362 494 383 529 q 340 392 340 460 q 362 289 340 324 q 421 254 383 254 q 492 315 474 254 l 818 315 q 685 76 790 163 q 428 -10 581 -10 q 220 39 311 -10 q 78 178 129 88 q 28 392 28 269 q 78 605 28 514 q 220 744 129 696 q 428 793 311 793 m 653 940 l 424 822 l 193 940 l 193 1140 l 424 1018 l 653 1140 l 653 940 z "},"Ď":{"ha":1032,"x_min":69,"x_max":990,"o":"m 990 494 q 928 242 990 354 q 749 65 865 129 q 479 0 633 0 l 69 0 l 69 983 l 479 983 q 749 921 633 983 q 928 747 865 858 q 990 494 990 636 m 451 275 q 617 332 556 275 q 678 494 678 389 q 617 657 678 600 q 451 714 556 714 l 378 714 l 378 275 l 451 275 m 760 1140 l 531 1022 l 300 1140 l 300 1340 l 531 1218 l 760 1340 l 760 1140 z "},"ď":{"ha":1225,"x_min":28,"x_max":1211,"o":"m 351 793 q 483 762 428 793 q 567 676 538 731 l 567 1028 l 875 1028 l 875 0 l 567 0 l 567 107 q 483 22 538 53 q 351 -10 428 -10 q 186 38 260 -10 q 70 177 113 86 q 28 392 28 268 q 70 606 28 515 q 186 745 113 697 q 351 793 260 793 m 1175 1028 q 1211 842 1211 936 q 1153 665 1211 733 q 982 596 1094 596 l 982 706 q 1058 808 1058 706 l 1058 825 l 958 825 l 958 1028 l 1175 1028 m 454 524 q 372 489 404 524 q 340 392 340 454 q 372 294 340 329 q 454 260 404 260 q 536 294 504 260 q 568 392 568 329 q 536 489 568 454 q 454 524 504 524 z "},"Đ":{"ha":1032,"x_min":0,"x_max":990,"o":"m 479 983 q 749 921 633 983 q 928 747 865 858 q 990 494 990 636 q 928 242 990 354 q 749 65 865 129 q 479 0 633 0 l 69 0 l 69 372 l 0 372 l 0 617 l 69 617 l 69 983 l 479 983 m 451 275 q 617 332 556 275 q 678 494 678 389 q 617 657 678 600 q 451 714 556 714 l 378 714 l 378 617 l 558 617 l 558 372 l 378 372 l 378 275 l 451 275 z "},"đ":{"ha":978,"x_min":28,"x_max":964,"o":"m 964 822 l 875 822 l 875 0 l 567 0 l 567 107 q 483 22 538 53 q 351 -10 428 -10 q 186 38 260 -10 q 70 177 113 86 q 28 392 28 268 q 70 606 28 515 q 186 745 113 697 q 351 793 260 793 q 483 762 428 793 q 567 676 538 731 l 567 822 l 485 822 l 485 956 l 567 956 l 567 1028 l 875 1028 l 875 956 l 964 956 l 964 822 m 454 260 q 536 294 504 260 q 568 392 568 329 q 536 489 568 454 q 454 524 504 524 q 372 489 404 524 q 340 392 340 454 q 372 294 340 329 q 454 260 404 260 z "},"Ē":{"ha":772,"x_min":69,"x_max":725,"o":"m 378 739 l 378 617 l 683 617 l 683 385 l 378 385 l 378 246 l 725 246 l 725 0 l 69 0 l 69 983 l 725 983 l 725 739 l 378 739 m 697 1268 l 697 1064 l 99 1064 l 99 1268 l 697 1268 z "},"ē":{"ha":856,"x_min":28,"x_max":828,"o":"m 828 399 q 821 338 828 369 l 328 338 q 354 258 332 279 q 413 236 376 236 q 485 282 463 236 l 811 282 q 741 133 794 199 q 606 28 688 67 q 428 -10 525 -10 q 220 39 311 -10 q 78 178 129 88 q 28 392 28 269 q 78 605 28 514 q 220 744 129 696 q 428 793 311 793 q 635 745 544 793 q 777 608 726 697 q 828 399 828 519 m 515 464 q 490 530 515 508 q 428 551 465 551 q 331 464 343 551 l 515 464 m 728 1068 l 728 864 l 129 864 l 129 1068 l 728 1068 z "},"Ĕ":{"ha":772,"x_min":69,"x_max":725,"o":"m 378 739 l 378 617 l 683 617 l 683 385 l 378 385 l 378 246 l 725 246 l 725 0 l 69 0 l 69 983 l 725 983 l 725 739 l 378 739 m 397 1033 q 209 1106 282 1033 q 136 1315 136 1178 l 136 1339 l 279 1339 q 306 1274 279 1296 q 397 1253 332 1253 q 489 1274 463 1253 q 515 1339 515 1296 l 658 1339 l 658 1315 q 585 1106 658 1178 q 397 1033 513 1033 z "},"ĕ":{"ha":856,"x_min":28,"x_max":828,"o":"m 828 399 q 821 338 828 369 l 328 338 q 354 258 332 279 q 413 236 376 236 q 485 282 463 236 l 811 282 q 741 133 794 199 q 606 28 688 67 q 428 -10 525 -10 q 220 39 311 -10 q 78 178 129 88 q 28 392 28 269 q 78 605 28 514 q 220 744 129 696 q 428 793 311 793 q 635 745 544 793 q 777 608 726 697 q 828 399 828 519 m 515 464 q 490 530 515 508 q 428 551 465 551 q 331 464 343 551 l 515 464 m 428 833 q 240 906 313 833 q 167 1115 167 978 l 167 1139 l 310 1139 q 336 1074 310 1096 q 428 1053 363 1053 q 519 1074 493 1053 q 546 1139 546 1096 l 689 1139 l 689 1115 q 616 906 689 978 q 428 833 543 833 z "},"Ė":{"ha":772,"x_min":69,"x_max":725,"o":"m 378 739 l 378 617 l 683 617 l 683 385 l 378 385 l 378 246 l 725 246 l 725 0 l 69 0 l 69 983 l 725 983 l 725 739 l 378 739 m 278 1179 q 312 1265 278 1231 q 396 1300 346 1300 q 483 1266 449 1300 q 517 1179 517 1232 q 482 1095 517 1129 q 396 1061 447 1061 q 312 1095 346 1061 q 278 1179 278 1129 z "},"ė":{"ha":856,"x_min":28,"x_max":828,"o":"m 828 399 q 821 338 828 369 l 328 338 q 354 258 332 279 q 413 236 376 236 q 485 282 463 236 l 811 282 q 741 133 794 199 q 606 28 688 67 q 428 -10 525 -10 q 220 39 311 -10 q 78 178 129 88 q 28 392 28 269 q 78 605 28 514 q 220 744 129 696 q 428 793 311 793 q 635 745 544 793 q 777 608 726 697 q 828 399 828 519 m 515 464 q 490 530 515 508 q 428 551 465 551 q 331 464 343 551 l 515 464 m 308 979 q 342 1065 308 1031 q 426 1100 376 1100 q 513 1066 479 1100 q 547 979 547 1032 q 513 895 547 929 q 426 861 478 861 q 342 895 376 861 q 308 979 308 929 z "},"Ę":{"ha":772,"x_min":69,"x_max":725,"o":"m 378 739 l 378 617 l 683 617 l 683 385 l 378 385 l 378 246 l 725 246 l 725 0 l 69 0 l 69 983 l 725 983 l 725 739 l 378 739 m 663 139 l 663 0 l 524 0 q 488 -21 488 0 q 497 -37 488 -31 q 524 -43 507 -43 l 725 -43 l 725 -200 l 492 -200 q 346 -160 408 -200 q 283 -31 283 -121 q 313 69 283 31 q 383 123 342 107 q 464 139 425 139 l 663 139 z "},"ę":{"ha":856,"x_min":28,"x_max":828,"o":"m 828 399 q 821 338 828 369 l 329 338 q 414 236 336 236 q 485 282 463 236 l 811 282 q 717 106 790 181 q 539 4 644 31 q 510 -24 510 -3 q 560 -50 510 -50 l 733 -50 l 733 -207 l 514 -207 q 368 -167 431 -207 q 306 -37 306 -128 l 306 6 q 102 140 176 39 q 28 392 28 242 q 78 605 28 514 q 220 744 129 696 q 428 793 311 793 q 635 745 544 793 q 777 608 726 697 q 828 399 828 519 m 515 464 q 490 530 515 508 q 428 551 465 551 q 331 464 343 551 l 515 464 z "},"Ě":{"ha":772,"x_min":69,"x_max":725,"o":"m 378 739 l 378 617 l 683 617 l 683 385 l 378 385 l 378 246 l 725 246 l 725 0 l 69 0 l 69 983 l 725 983 l 725 739 l 378 739 m 628 1140 l 399 1022 l 168 1140 l 168 1340 l 399 1218 l 628 1340 l 628 1140 z "},"ě":{"ha":856,"x_min":28,"x_max":828,"o":"m 828 399 q 821 338 828 369 l 328 338 q 354 258 332 279 q 413 236 376 236 q 485 282 463 236 l 811 282 q 741 133 794 199 q 606 28 688 67 q 428 -10 525 -10 q 220 39 311 -10 q 78 178 129 88 q 28 392 28 269 q 78 605 28 514 q 220 744 129 696 q 428 793 311 793 q 635 745 544 793 q 777 608 726 697 q 828 399 828 519 m 515 464 q 490 530 515 508 q 428 551 465 551 q 331 464 343 551 l 515 464 m 658 940 l 429 822 l 199 940 l 199 1140 l 429 1018 l 658 1140 l 658 940 z "},"Ğ":{"ha":1044,"x_min":42,"x_max":1003,"o":"m 539 993 q 853 900 732 993 q 997 647 975 807 l 672 647 q 621 692 654 676 q 540 708 588 708 q 403 651 451 708 q 354 493 354 593 q 408 321 354 378 q 575 264 463 264 q 747 350 682 264 l 501 350 l 501 568 l 1003 568 l 1003 260 q 826 72 939 150 q 542 -7 714 -7 q 276 56 389 -7 q 102 233 163 119 q 42 493 42 347 q 102 753 42 639 q 275 930 163 867 q 539 993 388 993 m 522 1033 q 334 1106 407 1033 q 261 1315 261 1178 l 261 1339 l 404 1339 q 431 1274 404 1296 q 522 1253 457 1253 q 614 1274 588 1253 q 640 1339 640 1296 l 783 1339 l 783 1315 q 710 1106 783 1178 q 522 1033 638 1033 z "},"ğ":{"ha":944,"x_min":28,"x_max":875,"o":"m 351 793 q 483 762 428 793 q 568 676 539 731 l 568 783 l 875 783 l 875 14 q 835 -186 875 -96 q 705 -331 794 -276 q 475 -385 615 -385 q 176 -297 286 -385 q 50 -57 65 -208 l 353 -57 q 453 -118 365 -118 q 538 -90 507 -118 q 568 14 568 -62 l 568 107 q 483 22 539 53 q 351 -10 428 -10 q 186 38 260 -10 q 70 177 113 86 q 28 392 28 268 q 70 606 28 515 q 186 745 113 697 q 351 793 260 793 m 454 524 q 372 489 404 524 q 340 392 340 454 q 372 294 340 329 q 454 260 404 260 q 536 294 504 260 q 568 392 568 329 q 536 489 568 454 q 454 524 504 524 m 451 833 q 263 906 336 833 q 190 1115 190 978 l 190 1139 l 333 1139 q 360 1074 333 1096 q 451 1053 386 1053 q 543 1074 517 1053 q 569 1139 569 1096 l 713 1139 l 713 1115 q 640 906 713 978 q 451 833 567 833 z "},"Ġ":{"ha":1044,"x_min":42,"x_max":1003,"o":"m 539 993 q 853 900 732 993 q 997 647 975 807 l 672 647 q 621 692 654 676 q 540 708 588 708 q 403 651 451 708 q 354 493 354 593 q 408 321 354 378 q 575 264 463 264 q 747 350 682 264 l 501 350 l 501 568 l 1003 568 l 1003 260 q 826 72 939 150 q 542 -7 714 -7 q 276 56 389 -7 q 102 233 163 119 q 42 493 42 347 q 102 753 42 639 q 275 930 163 867 q 539 993 388 993 m 403 1179 q 437 1265 403 1231 q 521 1300 471 1300 q 608 1266 574 1300 q 642 1179 642 1232 q 607 1095 642 1129 q 521 1061 572 1061 q 437 1095 471 1061 q 403 1179 403 1129 z "},"ġ":{"ha":944,"x_min":28,"x_max":875,"o":"m 351 793 q 483 762 428 793 q 568 676 539 731 l 568 783 l 875 783 l 875 14 q 835 -186 875 -96 q 705 -331 794 -276 q 475 -385 615 -385 q 176 -297 286 -385 q 50 -57 65 -208 l 353 -57 q 453 -118 365 -118 q 538 -90 507 -118 q 568 14 568 -62 l 568 107 q 483 22 539 53 q 351 -10 428 -10 q 186 38 260 -10 q 70 177 113 86 q 28 392 28 268 q 70 606 28 515 q 186 745 113 697 q 351 793 260 793 m 454 524 q 372 489 404 524 q 340 392 340 454 q 372 294 340 329 q 454 260 404 260 q 536 294 504 260 q 568 392 568 329 q 536 489 568 454 q 454 524 504 524 m 332 979 q 366 1065 332 1031 q 450 1100 400 1100 q 537 1066 503 1100 q 571 979 571 1032 q 536 895 571 929 q 450 861 501 861 q 366 895 400 861 q 332 979 332 929 z "},"Ģ":{"ha":1050,"x_min":42,"x_max":1003,"o":"m 539 993 q 853 900 732 993 q 997 647 975 807 l 672 647 q 621 692 654 676 q 540 708 588 708 q 403 651 451 708 q 354 493 354 593 q 408 321 354 378 q 575 264 463 264 q 747 350 682 264 l 501 350 l 501 568 l 1003 568 l 1003 260 q 826 72 939 150 q 542 -7 714 -7 q 276 56 389 -7 q 102 233 163 119 q 42 493 42 347 q 102 753 42 639 q 275 930 163 867 q 539 993 388 993 m 631 -49 q 667 -236 667 -143 q 608 -412 667 -343 q 438 -481 550 -481 l 438 -372 q 514 -268 514 -372 l 514 -253 l 414 -253 l 414 -49 l 631 -49 z "},"ģ":{"ha":944,"x_min":28,"x_max":875,"o":"m 392 832 q 357 1019 357 922 q 415 1195 357 1126 q 585 1264 472 1264 l 585 1156 q 508 1051 508 1156 l 508 1036 l 608 1036 l 608 832 l 392 832 m 351 793 q 483 762 428 793 q 568 676 539 731 l 568 783 l 875 783 l 875 14 q 835 -186 875 -96 q 705 -331 794 -276 q 475 -385 615 -385 q 176 -297 286 -385 q 50 -57 65 -208 l 353 -57 q 453 -118 365 -118 q 538 -90 507 -118 q 568 14 568 -62 l 568 107 q 483 22 539 53 q 351 -10 428 -10 q 186 38 260 -10 q 70 177 113 86 q 28 392 28 268 q 70 606 28 515 q 186 745 113 697 q 351 793 260 793 m 454 524 q 372 489 404 524 q 340 392 340 454 q 372 294 340 329 q 454 260 404 260 q 536 294 504 260 q 568 392 568 329 q 536 489 568 454 q 454 524 504 524 z "},"Ĩ":{"ha":447,"x_min":-94,"x_max":542,"o":"m 378 983 l 378 0 l 69 0 l 69 983 l 378 983 m 129 1294 q 192 1285 163 1294 q 254 1257 221 1275 q 297 1237 281 1243 q 329 1231 313 1231 q 390 1296 381 1231 l 542 1296 q 463 1110 519 1167 q 318 1053 407 1053 q 256 1063 285 1053 q 193 1090 226 1072 q 154 1108 174 1100 q 118 1115 135 1115 q 56 1050 68 1115 l -94 1050 q -16 1237 -72 1179 q 129 1294 40 1294 z "},"ĩ":{"ha":517,"x_min":-60,"x_max":576,"o":"m 413 783 l 413 0 l 104 0 l 104 783 l 413 783 m 164 1094 q 226 1085 197 1094 q 289 1057 256 1075 q 331 1037 315 1043 q 364 1031 347 1031 q 425 1096 415 1031 l 576 1096 q 498 910 554 967 q 353 853 442 853 q 290 863 319 853 q 228 890 261 872 q 189 908 208 900 q 153 915 169 915 q 90 850 103 915 l -60 850 q 19 1037 -37 979 q 164 1094 75 1094 z "},"Ī":{"ha":447,"x_min":-75,"x_max":524,"o":"m 378 983 l 378 0 l 69 0 l 69 983 l 378 983 m 524 1268 l 524 1064 l -75 1064 l -75 1268 l 524 1268 z "},"ī":{"ha":517,"x_min":-40,"x_max":558,"o":"m 413 783 l 413 0 l 104 0 l 104 783 l 413 783 m 558 1068 l 558 864 l -40 864 l -40 1068 l 558 1068 z "},"Ĭ":{"ha":447,"x_min":-37,"x_max":485,"o":"m 378 983 l 378 0 l 69 0 l 69 983 l 378 983 m 224 1033 q 35 1106 108 1033 q -37 1315 -37 1178 l -37 1339 l 106 1339 q 132 1274 106 1296 q 224 1253 158 1253 q 315 1274 289 1253 q 342 1339 342 1296 l 485 1339 l 485 1315 q 412 1106 485 1178 q 224 1033 339 1033 z "},"ĭ":{"ha":517,"x_min":-3,"x_max":519,"o":"m 413 783 l 413 0 l 104 0 l 104 783 l 413 783 m 258 833 q 70 906 143 833 q -3 1115 -3 978 l -3 1139 l 140 1139 q 167 1074 140 1096 q 258 1053 193 1053 q 350 1074 324 1053 q 376 1139 376 1096 l 519 1139 l 519 1115 q 447 906 519 978 q 258 833 374 833 z "},"Į":{"ha":447,"x_min":-1,"x_max":440,"o":"m 378 983 l 378 0 l 69 0 l 69 983 l 378 983 m 378 35 l 378 -104 l 239 -104 q 203 -125 203 -104 q 213 -141 203 -135 q 239 -147 222 -147 l 440 -147 l 440 -304 l 207 -304 q 61 -265 124 -304 q -1 -135 -1 -225 q 28 -35 -1 -74 q 99 19 57 3 q 179 35 140 35 l 378 35 z "},"į":{"ha":447,"x_min":-1,"x_max":440,"o":"m 47 997 q 96 1108 47 1064 q 225 1151 144 1151 q 353 1108 304 1151 q 401 997 401 1064 q 353 889 401 932 q 225 846 304 846 q 96 889 144 846 q 47 997 47 932 m 378 783 l 378 0 l 69 0 l 69 783 l 378 783 m 378 35 l 378 -104 l 239 -104 q 203 -125 203 -104 q 213 -141 203 -135 q 239 -147 222 -147 l 440 -147 l 440 -304 l 207 -304 q 61 -265 124 -304 q -1 -135 -1 -225 q 28 -35 -1 -74 q 99 19 57 3 q 179 35 140 35 l 378 35 z "},"İ":{"ha":447,"x_min":69,"x_max":378,"o":"m 378 983 l 378 0 l 69 0 l 69 983 l 378 983 m 104 1179 q 138 1265 104 1231 q 222 1300 172 1300 q 309 1266 275 1300 q 343 1179 343 1232 q 308 1095 343 1129 q 222 1061 274 1061 q 138 1095 172 1061 q 104 1179 104 1129 z "},"ı":{"ha":517,"x_min":104,"x_max":413,"o":"m 413 783 l 413 0 l 104 0 l 104 783 l 413 783 z "},"Ķ":{"ha":1108,"x_min":69,"x_max":1035,"o":"m 671 506 l 1035 0 l 664 0 l 378 426 l 378 0 l 69 0 l 69 983 l 378 983 l 378 568 l 667 983 l 1035 983 l 671 506 m 660 -49 q 694 -236 694 -139 q 637 -412 694 -343 q 467 -481 579 -481 l 467 -372 q 543 -268 543 -372 l 543 -253 l 443 -253 l 443 -49 l 660 -49 z "},"ķ":{"ha":939,"x_min":69,"x_max":939,"o":"m 378 0 l 69 0 l 69 1028 l 378 1028 l 378 490 l 574 783 l 932 783 l 639 389 l 939 0 l 571 0 l 378 313 l 378 0 m 581 -49 q 615 -236 615 -139 q 558 -412 615 -343 q 388 -481 500 -481 l 388 -372 q 464 -268 464 -372 l 464 -253 l 364 -253 l 364 -49 l 581 -49 z "},"Ĺ":{"ha":703,"x_min":69,"x_max":675,"o":"m 378 233 l 675 233 l 675 0 l 69 0 l 69 983 l 378 983 l 378 233 m 553 1167 l 193 1036 l 193 1242 l 553 1394 l 553 1167 z "},"ĺ":{"ha":447,"x_min":69,"x_max":429,"o":"m 378 1028 l 378 0 l 69 0 l 69 1028 l 378 1028 m 429 1175 l 69 1044 l 69 1250 l 429 1403 l 429 1175 z "},"Ļ":{"ha":710,"x_min":69,"x_max":675,"o":"m 378 233 l 675 233 l 675 0 l 69 0 l 69 983 l 378 983 l 378 233 m 508 -49 q 544 -236 544 -143 q 486 -412 544 -343 q 315 -481 428 -481 l 315 -372 q 392 -268 392 -372 l 392 -253 l 292 -253 l 292 -49 l 508 -49 z "},"ļ":{"ha":447,"x_min":69,"x_max":378,"o":"m 378 1028 l 378 0 l 69 0 l 69 1028 l 378 1028 m 338 -49 q 372 -236 372 -139 q 315 -412 372 -343 q 144 -481 257 -481 l 144 -372 q 221 -268 221 -372 l 221 -253 l 121 -253 l 121 -49 l 338 -49 z "},"Ľ":{"ha":801,"x_min":69,"x_max":764,"o":"m 378 233 l 675 233 l 675 0 l 69 0 l 69 983 l 378 983 l 378 233 m 729 983 q 764 797 764 894 q 706 620 764 689 q 536 551 649 551 l 536 661 q 592 687 572 661 q 613 764 613 713 l 613 781 l 513 781 l 513 983 l 729 983 z "},"ľ":{"ha":717,"x_min":69,"x_max":703,"o":"m 378 1028 l 378 0 l 69 0 l 69 1028 l 378 1028 m 668 1028 q 703 842 703 939 q 645 665 703 733 q 475 596 588 596 l 475 706 q 531 731 511 706 q 551 808 551 757 l 551 825 l 451 825 l 451 1028 l 668 1028 z "},"Ŀ":{"ha":703,"x_min":69,"x_max":675,"o":"m 378 233 l 675 233 l 675 0 l 69 0 l 69 983 l 378 983 l 378 233 m 436 490 q 470 576 436 542 q 554 611 504 611 q 641 577 607 611 q 675 490 675 543 q 640 406 675 440 q 554 372 606 372 q 470 406 504 372 q 436 490 436 440 z "},"ŀ":{"ha":547,"x_min":69,"x_max":617,"o":"m 378 1028 l 378 0 l 69 0 l 69 1028 l 378 1028 m 378 513 q 412 599 378 564 q 496 633 446 633 q 583 599 549 633 q 617 513 617 565 q 582 428 617 463 q 496 394 547 394 q 412 428 446 394 q 378 513 378 463 z "},"Ł":{"ha":724,"x_min":14,"x_max":696,"o":"m 696 233 l 696 0 l 90 0 l 90 328 l 14 307 l 14 607 l 90 628 l 90 983 l 399 983 l 399 713 l 503 742 l 503 442 l 399 413 l 399 233 l 696 233 z "},"ł":{"ha":517,"x_min":14,"x_max":503,"o":"m 503 442 l 413 417 l 413 0 l 104 0 l 104 332 l 14 307 l 14 607 l 104 632 l 104 1028 l 413 1028 l 413 717 l 503 742 l 503 442 z "},"Ń":{"ha":1082,"x_min":69,"x_max":1013,"o":"m 1013 0 l 704 0 l 378 494 l 378 0 l 69 0 l 69 983 l 378 983 l 704 481 l 704 983 l 1013 983 l 1013 0 m 721 1167 l 361 1036 l 361 1242 l 721 1394 l 721 1167 z "},"ń":{"ha":968,"x_min":69,"x_max":904,"o":"m 618 789 q 828 699 753 789 q 904 454 904 608 l 904 0 l 597 0 l 597 415 q 567 503 597 471 q 488 536 538 536 q 407 503 436 536 q 378 415 378 471 l 378 0 l 69 0 l 69 783 l 378 783 l 378 664 q 474 754 414 719 q 618 789 535 789 m 667 967 l 307 836 l 307 1042 l 667 1194 l 667 967 z "},"Ņ":{"ha":1151,"x_min":69,"x_max":1013,"o":"m 1013 0 l 704 0 l 378 494 l 378 0 l 69 0 l 69 983 l 378 983 l 704 481 l 704 983 l 1013 983 l 1013 0 m 681 -49 q 717 -236 717 -143 q 658 -412 717 -343 q 488 -481 600 -481 l 488 -372 q 564 -268 564 -372 l 564 -253 l 464 -253 l 464 -49 l 681 -49 z "},"ņ":{"ha":968,"x_min":69,"x_max":904,"o":"m 618 789 q 828 699 753 789 q 904 454 904 608 l 904 0 l 597 0 l 597 415 q 567 503 597 471 q 488 536 538 536 q 407 503 436 536 q 378 415 378 471 l 378 0 l 69 0 l 69 783 l 378 783 l 378 664 q 474 754 414 719 q 618 789 535 789 m 624 -49 q 658 -236 658 -139 q 601 -412 658 -343 q 431 -481 543 -481 l 431 -372 q 507 -268 507 -372 l 507 -253 l 407 -253 l 407 -49 l 624 -49 z "},"Ň":{"ha":1082,"x_min":69,"x_max":1013,"o":"m 1013 0 l 704 0 l 378 494 l 378 0 l 69 0 l 69 983 l 378 983 l 704 481 l 704 983 l 1013 983 l 1013 0 m 771 1140 l 542 1022 l 311 1140 l 311 1340 l 542 1218 l 771 1340 l 771 1140 z "},"ň":{"ha":968,"x_min":69,"x_max":904,"o":"m 618 789 q 828 699 753 789 q 904 454 904 608 l 904 0 l 597 0 l 597 415 q 567 503 597 471 q 488 536 538 536 q 407 503 436 536 q 378 415 378 471 l 378 0 l 69 0 l 69 783 l 378 783 l 378 664 q 474 754 414 719 q 618 789 535 789 m 717 940 l 488 822 l 257 940 l 257 1140 l 488 1018 l 717 1140 l 717 940 z "},"Ō":{"ha":1094,"x_min":42,"x_max":1053,"o":"m 549 1000 q 803 935 688 1000 q 985 756 918 871 q 1053 496 1053 640 q 985 236 1053 351 q 802 56 918 121 q 549 -10 686 -10 q 294 56 410 -10 q 110 236 178 121 q 42 496 42 351 q 110 756 42 640 q 294 935 178 871 q 549 1000 410 1000 m 549 715 q 406 656 456 715 q 356 496 356 597 q 406 337 356 396 q 549 278 456 278 q 690 337 640 278 q 740 496 740 396 q 690 656 740 597 q 549 715 640 715 m 847 1268 l 847 1064 l 249 1064 l 249 1268 l 847 1268 z "},"ō":{"ha":883,"x_min":28,"x_max":856,"o":"m 442 793 q 654 744 560 793 q 802 605 749 696 q 856 392 856 514 q 802 178 856 269 q 654 39 749 88 q 442 -10 560 -10 q 229 39 324 -10 q 81 178 135 88 q 28 392 28 269 q 81 605 28 514 q 229 744 135 696 q 442 793 324 793 m 442 526 q 369 492 399 526 q 340 392 340 458 q 369 291 340 325 q 442 257 397 257 q 514 291 485 257 q 543 392 543 325 q 514 492 543 458 q 442 526 485 526 m 742 1068 l 742 864 l 143 864 l 143 1068 l 742 1068 z "},"Ŏ":{"ha":1094,"x_min":42,"x_max":1053,"o":"m 549 1000 q 803 935 688 1000 q 985 756 918 871 q 1053 496 1053 640 q 985 236 1053 351 q 802 56 918 121 q 549 -10 686 -10 q 294 56 410 -10 q 110 236 178 121 q 42 496 42 351 q 110 756 42 640 q 294 935 178 871 q 549 1000 410 1000 m 549 715 q 406 656 456 715 q 356 496 356 597 q 406 337 356 396 q 549 278 456 278 q 690 337 640 278 q 740 496 740 396 q 690 656 740 597 q 549 715 640 715 m 547 1033 q 359 1106 432 1033 q 286 1315 286 1178 l 286 1339 l 429 1339 q 456 1274 429 1296 q 547 1253 482 1253 q 639 1274 613 1253 q 665 1339 665 1296 l 808 1339 l 808 1315 q 735 1106 808 1178 q 547 1033 663 1033 z "},"ŏ":{"ha":883,"x_min":28,"x_max":856,"o":"m 442 793 q 654 744 560 793 q 802 605 749 696 q 856 392 856 514 q 802 178 856 269 q 654 39 749 88 q 442 -10 560 -10 q 229 39 324 -10 q 81 178 135 88 q 28 392 28 269 q 81 605 28 514 q 229 744 135 696 q 442 793 324 793 m 442 526 q 369 492 399 526 q 340 392 340 458 q 369 291 340 325 q 442 257 397 257 q 514 291 485 257 q 543 392 543 325 q 514 492 543 458 q 442 526 485 526 m 442 833 q 253 906 326 833 q 181 1115 181 978 l 181 1139 l 324 1139 q 350 1074 324 1096 q 442 1053 376 1053 q 533 1074 507 1053 q 560 1139 560 1096 l 703 1139 l 703 1115 q 630 906 703 978 q 442 833 557 833 z "},"Ő":{"ha":1094,"x_min":42,"x_max":1053,"o":"m 549 1000 q 803 935 688 1000 q 985 756 918 871 q 1053 496 1053 640 q 985 236 1053 351 q 802 56 918 121 q 549 -10 686 -10 q 294 56 410 -10 q 110 236 178 121 q 42 496 42 351 q 110 756 42 640 q 294 935 178 871 q 549 1000 410 1000 m 549 715 q 406 656 456 715 q 356 496 356 597 q 406 337 356 396 q 549 278 456 278 q 690 337 640 278 q 740 496 740 396 q 690 656 740 597 q 549 715 640 715 m 472 1035 l 288 1035 l 399 1374 l 632 1374 l 472 1035 m 778 1035 l 593 1035 l 739 1374 l 972 1374 l 778 1035 z "},"ő":{"ha":883,"x_min":28,"x_max":882,"o":"m 442 793 q 654 744 560 793 q 802 605 749 696 q 856 392 856 514 q 802 178 856 269 q 654 39 749 88 q 442 -10 560 -10 q 229 39 324 -10 q 81 178 135 88 q 28 392 28 269 q 81 605 28 514 q 229 744 135 696 q 442 793 324 793 m 442 526 q 369 492 399 526 q 340 392 340 458 q 369 291 340 325 q 442 257 397 257 q 514 291 485 257 q 543 392 543 325 q 514 492 543 458 q 442 526 485 526 m 382 835 l 197 835 l 308 1174 l 542 1174 l 382 835 m 688 835 l 503 835 l 649 1174 l 882 1174 l 688 835 z "},"Œ":{"ha":1457,"x_min":42,"x_max":1410,"o":"m 1063 617 l 1368 617 l 1368 385 l 1063 385 l 1063 246 l 1410 246 l 1410 0 l 754 0 l 754 51 q 525 -17 674 -10 q 276 48 386 -17 q 103 228 165 113 q 42 492 42 344 q 103 755 42 639 q 276 935 165 871 q 525 1000 386 1000 q 649 983 589 1000 q 754 932 710 965 l 754 983 l 1410 983 l 1410 739 l 1063 739 l 1063 617 m 549 268 q 690 328 640 268 q 740 492 740 388 q 690 656 740 596 q 549 715 640 715 q 406 656 456 715 q 356 492 356 596 q 406 328 356 388 q 549 268 456 268 z "},"œ":{"ha":1419,"x_min":28,"x_max":1356,"o":"m 1356 399 q 1349 338 1356 369 l 856 338 q 882 258 860 279 q 940 236 904 236 q 1013 282 990 236 l 1339 282 q 1269 133 1322 199 q 1134 28 1215 67 q 956 -10 1053 -10 q 701 68 807 -10 q 583 10 649 31 q 442 -10 517 -10 q 229 39 324 -10 q 81 178 135 88 q 28 392 28 269 q 81 605 28 514 q 229 744 135 696 q 442 793 324 793 q 583 773 517 793 q 701 715 649 753 q 956 793 807 793 q 1163 745 1072 793 q 1305 608 1254 697 q 1356 399 1356 519 m 1043 464 q 1018 530 1043 508 q 956 551 993 551 q 858 464 871 551 l 1043 464 m 442 257 q 514 291 485 257 q 543 392 543 325 q 514 492 543 458 q 442 526 485 526 q 369 492 399 526 q 340 392 340 458 q 369 291 340 325 q 442 257 397 257 z "},"Ŕ":{"ha":931,"x_min":69,"x_max":903,"o":"m 564 0 l 378 353 l 378 0 l 69 0 l 69 983 l 528 983 q 732 941 647 983 q 859 826 817 899 q 901 661 901 753 q 847 486 901 563 q 689 376 792 410 l 903 0 l 564 0 m 378 558 l 500 558 q 567 578 544 558 q 589 642 589 599 q 566 703 589 681 q 500 725 543 725 l 378 725 l 378 558 m 667 1167 l 307 1036 l 307 1242 l 667 1394 l 667 1167 z "},"ŕ":{"ha":649,"x_min":69,"x_max":635,"o":"m 378 639 q 493 748 425 707 q 635 789 561 789 l 635 460 l 547 460 q 419 429 460 460 q 378 321 378 399 l 378 0 l 69 0 l 69 783 l 378 783 l 378 639 m 532 967 l 172 836 l 172 1042 l 532 1194 l 532 967 z "},"Ŗ":{"ha":974,"x_min":69,"x_max":903,"o":"m 378 0 l 69 0 l 69 983 l 528 983 q 732 941 647 983 q 859 826 817 899 q 901 661 901 753 q 847 486 901 563 q 689 376 792 410 l 903 0 l 564 0 l 378 353 l 378 0 m 378 558 l 500 558 q 567 578 544 558 q 589 642 589 599 q 566 703 589 681 q 500 725 543 725 l 378 725 l 378 558 m 592 -49 q 628 -236 628 -143 q 569 -412 628 -343 q 399 -481 511 -481 l 399 -372 q 475 -268 475 -372 l 475 -253 l 375 -253 l 375 -49 l 592 -49 z "},"ŗ":{"ha":649,"x_min":69,"x_max":635,"o":"m 378 639 q 493 748 425 707 q 635 789 561 789 l 635 460 l 547 460 q 419 429 460 460 q 378 321 378 399 l 378 0 l 69 0 l 69 783 l 378 783 l 378 639 m 328 -49 q 363 -236 363 -139 q 305 -412 363 -343 q 135 -481 247 -481 l 135 -372 q 211 -268 211 -372 l 211 -253 l 111 -253 l 111 -49 l 328 -49 z "},"Ř":{"ha":931,"x_min":69,"x_max":903,"o":"m 564 0 l 378 353 l 378 0 l 69 0 l 69 983 l 528 983 q 732 941 647 983 q 859 826 817 899 q 901 661 901 753 q 847 486 901 563 q 689 376 792 410 l 903 0 l 564 0 m 378 558 l 500 558 q 567 578 544 558 q 589 642 589 599 q 566 703 589 681 q 500 725 543 725 l 378 725 l 378 558 m 717 1140 l 488 1022 l 257 1140 l 257 1340 l 488 1218 l 717 1340 l 717 1140 z "},"ř":{"ha":649,"x_min":69,"x_max":635,"o":"m 378 639 q 493 748 425 707 q 635 789 561 789 l 635 460 l 547 460 q 419 429 460 460 q 378 321 378 399 l 378 0 l 69 0 l 69 783 l 378 783 l 378 639 m 582 940 l 353 822 l 122 940 l 122 1140 l 353 1018 l 582 1140 l 582 940 z "},"Ś":{"ha":868,"x_min":42,"x_max":829,"o":"m 829 290 q 785 138 829 206 q 658 30 742 69 q 460 -10 575 -10 q 169 73 283 -10 q 44 315 54 156 l 372 315 q 447 231 379 231 q 485 243 471 231 q 500 279 500 256 q 465 334 500 314 q 350 381 429 354 q 195 443 257 411 q 88 538 133 475 q 42 700 42 600 q 91 863 42 796 q 226 965 140 931 q 418 1000 311 1000 q 699 918 594 1000 q 813 682 803 836 l 481 682 q 417 760 474 760 q 385 748 397 760 q 372 713 372 736 q 408 660 372 681 q 518 614 443 640 q 674 548 613 581 q 783 452 736 515 q 829 290 829 389 m 615 1167 l 256 1036 l 256 1242 l 615 1394 l 615 1167 z "},"ś":{"ha":804,"x_min":43,"x_max":765,"o":"m 378 793 q 633 716 538 793 q 753 513 728 639 l 465 513 q 371 579 447 579 q 328 546 328 579 q 359 510 328 522 q 458 483 390 497 q 610 444 547 467 q 719 369 674 421 q 765 229 765 318 q 726 106 765 160 q 613 21 688 51 q 436 -10 538 -10 q 167 63 267 -10 q 43 271 67 135 l 339 271 q 435 203 347 203 q 482 236 482 203 q 450 275 482 263 q 347 300 418 288 q 198 339 257 318 q 94 410 139 360 q 50 547 50 460 q 88 674 50 618 q 199 761 125 729 q 378 793 272 793 m 585 967 l 225 836 l 225 1042 l 585 1194 l 585 967 z "},"Ş":{"ha":868,"x_min":42,"x_max":829,"o":"m 829 290 q 785 138 829 206 q 658 30 742 69 q 460 -10 575 -10 q 169 73 283 -10 q 44 315 54 156 l 372 315 q 447 231 379 231 q 485 243 471 231 q 500 279 500 256 q 465 334 500 314 q 350 381 429 354 q 195 443 257 411 q 88 538 133 475 q 42 700 42 600 q 91 863 42 796 q 226 965 140 931 q 418 1000 311 1000 q 699 918 594 1000 q 813 682 803 836 l 481 682 q 417 760 474 760 q 385 748 397 760 q 372 713 372 736 q 408 660 372 681 q 518 614 443 640 q 674 548 613 581 q 783 452 736 515 q 829 290 829 389 m 546 -37 q 626 -53 585 -37 q 697 -108 668 -69 q 726 -207 726 -146 q 664 -337 726 -297 q 518 -376 601 -376 l 278 -376 l 278 -219 l 486 -219 q 513 -213 503 -219 q 522 -197 522 -207 q 486 -176 522 -176 l 368 -176 l 368 10 l 546 10 l 546 -37 z "},"ş":{"ha":804,"x_min":43,"x_max":765,"o":"m 378 793 q 633 716 538 793 q 753 513 728 639 l 465 513 q 371 579 447 579 q 328 546 328 579 q 359 510 328 522 q 458 483 390 497 q 610 444 547 467 q 719 369 674 421 q 765 229 765 318 q 726 106 765 160 q 613 21 688 51 q 436 -10 538 -10 q 167 63 267 -10 q 43 271 67 135 l 339 271 q 435 203 347 203 q 482 236 482 203 q 450 275 482 263 q 347 300 418 288 q 198 339 257 318 q 94 410 139 360 q 50 547 50 460 q 88 674 50 618 q 199 761 125 729 q 378 793 272 793 m 504 -37 q 585 -53 543 -37 q 656 -108 626 -69 q 685 -207 685 -146 q 622 -337 685 -297 q 476 -376 560 -376 l 236 -376 l 236 -219 l 444 -219 q 471 -213 461 -219 q 481 -197 481 -207 q 444 -176 481 -176 l 326 -176 l 326 10 l 504 10 l 504 -37 z "},"Š":{"ha":868,"x_min":42,"x_max":829,"o":"m 829 290 q 785 138 829 206 q 658 30 742 69 q 460 -10 575 -10 q 169 73 283 -10 q 44 315 54 156 l 372 315 q 447 231 379 231 q 485 243 471 231 q 500 279 500 256 q 465 334 500 314 q 350 381 429 354 q 195 443 257 411 q 88 538 133 475 q 42 700 42 600 q 91 863 42 796 q 226 965 140 931 q 418 1000 311 1000 q 699 918 594 1000 q 813 682 803 836 l 481 682 q 417 760 474 760 q 385 748 397 760 q 372 713 372 736 q 408 660 372 681 q 518 614 443 640 q 674 548 613 581 q 783 452 736 515 q 829 290 829 389 m 665 1140 l 436 1022 l 206 1140 l 206 1340 l 436 1218 l 665 1340 l 665 1140 z "},"š":{"ha":804,"x_min":43,"x_max":765,"o":"m 378 793 q 633 716 538 793 q 753 513 728 639 l 465 513 q 371 579 447 579 q 328 546 328 579 q 359 510 328 522 q 458 483 390 497 q 610 444 547 467 q 719 369 674 421 q 765 229 765 318 q 726 106 765 160 q 613 21 688 51 q 436 -10 538 -10 q 167 63 267 -10 q 43 271 67 135 l 339 271 q 435 203 347 203 q 482 236 482 203 q 450 275 482 263 q 347 300 418 288 q 198 339 257 318 q 94 410 139 360 q 50 547 50 460 q 88 674 50 618 q 199 761 125 729 q 378 793 272 793 m 635 940 l 406 822 l 175 940 l 175 1140 l 406 1018 l 635 1140 l 635 940 z "},"Ţ":{"ha":856,"x_min":14,"x_max":842,"o":"m 581 739 l 581 0 q 634 -60 617 -28 q 651 -135 651 -93 q 589 -265 651 -225 q 443 -304 526 -304 l 210 -304 l 210 -147 l 418 -147 q 447 -125 447 -147 q 441 -109 447 -114 q 418 -104 435 -104 l 272 -104 l 272 739 l 14 739 l 14 983 l 842 983 l 842 739 l 581 739 z "},"ţ":{"ha":606,"x_min":21,"x_max":614,"o":"m 433 -37 q 514 -53 472 -37 q 585 -108 556 -69 q 614 -207 614 -146 q 551 -337 614 -297 q 406 -376 489 -376 l 165 -376 l 165 -219 l 374 -219 q 400 -213 390 -219 q 410 -197 410 -207 q 374 -176 410 -176 l 256 -176 l 256 39 q 118 321 118 111 l 118 526 l 21 526 l 21 783 l 118 783 l 118 972 l 426 972 l 426 783 l 554 783 l 554 526 l 426 526 l 426 315 q 440 275 426 288 q 483 263 453 263 l 557 263 l 557 0 l 440 0 l 433 0 l 433 -37 z "},"Ť":{"ha":856,"x_min":14,"x_max":842,"o":"m 842 983 l 842 739 l 581 739 l 581 0 l 272 0 l 272 739 l 14 739 l 14 983 l 842 983 m 658 1140 l 429 1022 l 199 1140 l 199 1340 l 429 1218 l 658 1340 l 658 1140 z "},"ť":{"ha":606,"x_min":21,"x_max":722,"o":"m 686 1236 q 714 1147 706 1188 q 722 1064 722 1107 q 665 906 722 967 q 493 846 607 846 l 493 956 q 569 1010 569 956 l 569 1033 l 469 1033 l 469 1236 l 686 1236 m 426 315 q 440 275 426 288 q 483 263 453 263 l 557 263 l 557 0 l 440 0 q 118 321 118 0 l 118 526 l 21 526 l 21 783 l 118 783 l 118 972 l 426 972 l 426 783 l 554 783 l 554 526 l 426 526 l 426 315 z "},"Ũ":{"ha":999,"x_min":64,"x_max":935,"o":"m 371 983 l 371 429 q 401 322 371 361 q 497 282 431 282 q 596 322 564 282 q 628 429 628 361 l 628 983 l 935 983 l 935 429 q 876 190 935 289 q 717 40 818 90 q 490 -10 615 -10 q 269 40 365 -10 q 118 189 172 90 q 64 429 64 288 l 64 983 l 371 983 m 404 1294 q 467 1285 438 1294 q 529 1257 496 1275 q 572 1237 556 1243 q 604 1231 588 1231 q 665 1296 656 1231 l 817 1296 q 738 1110 794 1167 q 593 1053 682 1053 q 531 1063 560 1053 q 468 1090 501 1072 q 429 1108 449 1100 q 393 1115 410 1115 q 331 1050 343 1115 l 181 1050 q 259 1237 203 1179 q 404 1294 315 1294 z "},"ũ":{"ha":968,"x_min":64,"x_max":899,"o":"m 899 783 l 899 0 l 590 0 l 590 119 q 494 29 554 64 q 350 -6 433 -6 q 140 85 215 -6 q 64 329 64 175 l 64 783 l 371 783 l 371 368 q 401 280 371 313 q 481 247 431 247 q 561 280 532 247 q 590 368 590 313 l 590 783 l 899 783 m 386 1094 q 449 1085 419 1094 q 511 1057 478 1075 q 553 1037 538 1043 q 586 1031 569 1031 q 647 1096 638 1031 l 799 1096 q 720 910 776 967 q 575 853 664 853 q 513 863 542 853 q 450 890 483 872 q 411 908 431 900 q 375 915 392 915 q 313 850 325 915 l 163 850 q 241 1037 185 979 q 386 1094 297 1094 z "},"Ū":{"ha":999,"x_min":64,"x_max":935,"o":"m 371 983 l 371 429 q 401 322 371 361 q 497 282 431 282 q 596 322 564 282 q 628 429 628 361 l 628 983 l 935 983 l 935 429 q 876 190 935 289 q 717 40 818 90 q 490 -10 615 -10 q 269 40 365 -10 q 118 189 172 90 q 64 429 64 288 l 64 983 l 371 983 m 799 1268 l 799 1064 l 200 1064 l 200 1268 l 799 1268 z "},"ū":{"ha":968,"x_min":64,"x_max":899,"o":"m 899 783 l 899 0 l 590 0 l 590 119 q 494 29 554 64 q 350 -6 433 -6 q 140 85 215 -6 q 64 329 64 175 l 64 783 l 371 783 l 371 368 q 401 280 371 313 q 481 247 431 247 q 561 280 532 247 q 590 368 590 313 l 590 783 l 899 783 m 781 1068 l 781 864 l 182 864 l 182 1068 l 781 1068 z "},"Ŭ":{"ha":999,"x_min":64,"x_max":935,"o":"m 371 983 l 371 429 q 401 322 371 361 q 497 282 431 282 q 596 322 564 282 q 628 429 628 361 l 628 983 l 935 983 l 935 429 q 876 190 935 289 q 717 40 818 90 q 490 -10 615 -10 q 269 40 365 -10 q 118 189 172 90 q 64 429 64 288 l 64 983 l 371 983 m 499 1033 q 310 1106 383 1033 q 238 1315 238 1178 l 238 1339 l 381 1339 q 407 1274 381 1296 q 499 1253 433 1253 q 590 1274 564 1253 q 617 1339 617 1296 l 760 1339 l 760 1315 q 687 1106 760 1178 q 499 1033 614 1033 z "},"ŭ":{"ha":968,"x_min":64,"x_max":899,"o":"m 899 783 l 899 0 l 590 0 l 590 119 q 494 29 554 64 q 350 -6 433 -6 q 140 85 215 -6 q 64 329 64 175 l 64 783 l 371 783 l 371 368 q 401 280 371 313 q 481 247 431 247 q 561 280 532 247 q 590 368 590 313 l 590 783 l 899 783 m 481 833 q 292 906 365 833 q 219 1115 219 978 l 219 1139 l 363 1139 q 389 1074 363 1096 q 481 1053 415 1053 q 572 1074 546 1053 q 599 1139 599 1096 l 742 1139 l 742 1115 q 669 906 742 978 q 481 833 596 833 z "},"Ů":{"ha":999,"x_min":64,"x_max":935,"o":"m 371 983 l 371 429 q 401 322 371 361 q 497 282 431 282 q 596 322 564 282 q 628 429 628 361 l 628 983 l 935 983 l 935 429 q 876 190 935 289 q 717 40 818 90 q 490 -10 615 -10 q 269 40 365 -10 q 118 189 172 90 q 64 429 64 288 l 64 983 l 371 983 m 499 1390 q 629 1340 576 1390 q 682 1207 682 1290 q 629 1074 682 1124 q 499 1024 576 1024 q 368 1074 421 1024 q 315 1207 315 1124 q 368 1340 315 1290 q 499 1390 421 1390 m 499 1272 q 453 1254 471 1272 q 435 1207 435 1236 q 453 1160 435 1178 q 499 1142 471 1142 q 544 1160 526 1142 q 563 1207 563 1178 q 544 1254 563 1236 q 499 1272 526 1272 z "},"ů":{"ha":968,"x_min":64,"x_max":899,"o":"m 899 783 l 899 0 l 590 0 l 590 119 q 494 29 554 64 q 350 -6 433 -6 q 140 85 215 -6 q 64 329 64 175 l 64 783 l 371 783 l 371 368 q 401 280 371 313 q 481 247 431 247 q 561 280 532 247 q 590 368 590 313 l 590 783 l 899 783 m 481 1190 q 611 1140 558 1190 q 664 1007 664 1090 q 611 874 664 924 q 481 824 558 824 q 350 874 403 824 q 297 1007 297 924 q 350 1140 297 1090 q 481 1190 403 1190 m 481 1072 q 435 1054 453 1072 q 417 1007 417 1036 q 435 960 417 978 q 481 942 453 942 q 526 960 508 942 q 544 1007 544 978 q 526 1054 544 1036 q 481 1072 508 1072 z "},"Ű":{"ha":999,"x_min":64,"x_max":935,"o":"m 371 983 l 371 429 q 401 322 371 361 q 497 282 431 282 q 596 322 564 282 q 628 429 628 361 l 628 983 l 935 983 l 935 429 q 876 190 935 289 q 717 40 818 90 q 490 -10 615 -10 q 269 40 365 -10 q 118 189 172 90 q 64 429 64 288 l 64 983 l 371 983 m 342 1035 l 157 1035 l 268 1374 l 501 1374 l 342 1035 m 647 1035 l 463 1035 l 608 1374 l 842 1374 l 647 1035 z "},"ű":{"ha":968,"x_min":64,"x_max":899,"o":"m 899 783 l 899 0 l 590 0 l 590 119 q 494 29 554 64 q 350 -6 433 -6 q 140 85 215 -6 q 64 329 64 175 l 64 783 l 371 783 l 371 368 q 401 280 371 313 q 481 247 431 247 q 561 280 532 247 q 590 368 590 313 l 590 783 l 899 783 m 324 835 l 139 835 l 250 1174 l 483 1174 l 324 835 m 629 835 l 444 835 l 590 1174 l 824 1174 l 629 835 z "},"Ų":{"ha":1067,"x_min":99,"x_max":969,"o":"m 604 -196 q 517 -176 560 -196 q 447 -117 475 -157 q 419 -18 419 -76 l 419 1 q 256 78 329 22 q 141 223 183 133 q 99 429 99 313 l 99 983 l 406 983 l 406 429 q 435 322 406 361 q 532 282 465 282 q 631 322 599 282 q 663 429 663 361 l 663 983 l 969 983 l 969 429 q 927 231 969 318 q 817 90 885 144 q 672 14 750 36 q 635 -2 644 6 q 625 -19 625 -10 q 664 -40 625 -40 l 849 -40 l 849 -196 l 604 -196 z "},"ų":{"ha":968,"x_min":64,"x_max":961,"o":"m 899 783 l 899 0 l 590 0 l 590 119 q 494 29 554 64 q 350 -6 433 -6 q 140 85 215 -6 q 64 329 64 175 l 64 783 l 371 783 l 371 368 q 401 280 371 313 q 481 247 431 247 q 561 280 532 247 q 590 368 590 313 l 590 783 l 899 783 m 899 35 l 899 -104 l 760 -104 q 724 -125 724 -104 q 733 -141 724 -135 q 760 -147 743 -147 l 961 -147 l 961 -304 l 728 -304 q 582 -265 644 -304 q 519 -135 519 -225 q 549 -35 519 -74 q 619 19 578 3 q 700 35 661 35 l 899 35 z "},"Ŵ":{"ha":1528,"x_min":42,"x_max":1486,"o":"m 1486 983 l 1261 0 l 878 0 l 764 558 l 650 0 l 267 0 l 42 983 l 374 983 l 463 364 l 596 983 l 932 983 l 1065 364 l 1154 983 l 1486 983 m 765 1144 l 535 1022 l 535 1222 l 765 1340 l 994 1222 l 994 1022 l 765 1144 z "},"ŵ":{"ha":1254,"x_min":-1,"x_max":1258,"o":"m 1258 783 l 1072 0 l 725 0 l 631 442 l 531 0 l 183 0 l -1 783 l 304 783 l 369 307 l 471 783 l 800 783 l 907 301 l 974 783 l 1258 783 m 629 944 l 399 822 l 399 1022 l 629 1140 l 858 1022 l 858 822 l 629 944 z "},"Ŷ":{"ha":1014,"x_min":0,"x_max":1014,"o":"m 1014 983 l 661 299 l 661 0 l 353 0 l 353 299 l 0 983 l 353 983 l 510 635 l 667 983 l 1014 983 m 508 1144 l 278 1022 l 278 1222 l 508 1340 l 738 1222 l 738 1022 l 508 1144 z "},"ŷ":{"ha":940,"x_min":-14,"x_max":954,"o":"m 329 783 l 476 386 l 614 783 l 954 783 l 453 -375 l 115 -375 l 313 39 l -14 783 l 329 783 m 471 944 l 240 822 l 240 1022 l 471 1140 l 700 1022 l 700 822 l 471 944 z "},"Ÿ":{"ha":1014,"x_min":0,"x_max":1014,"o":"m 1014 983 l 661 299 l 661 0 l 353 0 l 353 299 l 0 983 l 353 983 l 510 635 l 667 983 l 1014 983 m 232 1179 q 266 1265 232 1231 q 350 1300 300 1300 q 437 1266 403 1300 q 471 1179 471 1232 q 436 1095 471 1129 q 350 1061 401 1061 q 266 1095 300 1061 q 232 1179 232 1129 m 544 1179 q 578 1265 544 1231 q 663 1300 613 1300 q 749 1266 715 1300 q 783 1179 783 1232 q 749 1095 783 1129 q 663 1061 714 1061 q 578 1095 613 1061 q 544 1179 544 1129 z "},"Ź":{"ha":875,"x_min":69,"x_max":806,"o":"m 411 246 l 806 246 l 806 0 l 69 0 l 69 232 l 458 739 l 69 739 l 69 983 l 806 983 l 806 751 l 411 246 m 618 1167 l 258 1036 l 258 1242 l 618 1394 l 618 1167 z "},"ź":{"ha":719,"x_min":28,"x_max":692,"o":"m 365 256 l 692 256 l 692 0 l 28 0 l 28 242 l 326 528 l 32 528 l 32 783 l 678 783 l 678 542 l 365 256 m 540 967 l 181 836 l 181 1042 l 540 1194 l 540 967 z "},"Ż":{"ha":875,"x_min":69,"x_max":806,"o":"m 411 246 l 806 246 l 806 0 l 69 0 l 69 232 l 458 739 l 69 739 l 69 983 l 806 983 l 806 751 l 411 246 m 318 1179 q 352 1265 318 1231 q 436 1300 386 1300 q 523 1266 489 1300 q 557 1179 557 1232 q 522 1095 557 1129 q 436 1061 488 1061 q 352 1095 386 1061 q 318 1179 318 1129 z "},"ż":{"ha":719,"x_min":28,"x_max":692,"o":"m 365 256 l 692 256 l 692 0 l 28 0 l 28 242 l 326 528 l 32 528 l 32 783 l 678 783 l 678 542 l 365 256 m 240 979 q 274 1065 240 1031 q 358 1100 308 1100 q 445 1066 411 1100 q 479 979 479 1032 q 444 895 479 929 q 358 861 410 861 q 274 895 308 861 q 240 979 240 929 z "},"Ž":{"ha":875,"x_min":69,"x_max":806,"o":"m 411 246 l 806 246 l 806 0 l 69 0 l 69 232 l 458 739 l 69 739 l 69 983 l 806 983 l 806 751 l 411 246 m 668 1140 l 439 1022 l 208 1140 l 208 1340 l 439 1218 l 668 1340 l 668 1140 z "},"ž":{"ha":719,"x_min":28,"x_max":692,"o":"m 365 256 l 692 256 l 692 0 l 28 0 l 28 242 l 326 528 l 32 528 l 32 783 l 678 783 l 678 542 l 365 256 m 590 940 l 361 822 l 131 940 l 131 1140 l 361 1018 l 590 1140 l 590 940 z "},"ƒ":{"ha":472,"x_min":-97,"x_max":525,"o":"m 415 783 l 503 783 l 476 526 l 389 526 l 319 -136 q 203 -365 301 -300 q -51 -431 106 -431 l -97 -431 l -72 -167 l -19 -167 q 11 -136 6 -167 l 82 526 l 25 526 l 51 783 l 108 783 l 110 790 q 228 1026 128 951 q 525 1101 329 1101 l 499 839 q 440 828 460 839 q 417 790 419 818 l 415 783 z "},"Ǽ":{"ha":1369,"x_min":0,"x_max":1322,"o":"m 989 739 l 989 621 l 1281 621 l 1281 389 l 989 389 l 989 246 l 1322 246 l 1322 0 l 681 0 l 681 135 l 397 135 l 335 0 l 0 0 l 471 983 l 1322 983 l 1322 739 l 989 739 m 681 367 l 681 746 l 504 367 l 681 367 m 842 1167 l 482 1036 l 482 1242 l 842 1394 l 842 1167 z "},"ǽ":{"ha":1464,"x_min":28,"x_max":1436,"o":"m 1436 399 q 1429 338 1436 369 l 886 338 q 922 256 893 279 q 996 232 950 232 q 1093 282 1071 232 l 1419 282 q 1310 72 1394 154 q 1106 -10 1225 -10 q 963 21 1022 -10 q 875 107 904 51 l 875 0 l 568 0 l 568 107 q 483 22 539 53 q 351 -10 428 -10 q 186 38 260 -10 q 70 177 113 86 q 28 392 28 268 q 70 606 28 515 q 186 745 113 697 q 351 793 260 793 q 483 762 428 793 q 568 676 539 731 l 568 783 l 875 783 l 875 676 q 963 763 903 732 q 1106 793 1022 793 q 1277 745 1203 793 q 1394 608 1351 697 q 1436 399 1436 519 m 1124 464 q 1090 529 1124 507 q 1006 551 1057 551 q 888 464 906 551 l 1124 464 m 454 260 q 536 294 504 260 q 568 392 568 329 q 536 489 568 454 q 454 524 504 524 q 372 489 404 524 q 340 392 340 454 q 372 294 340 329 q 454 260 404 260 m 913 967 l 553 836 l 553 1042 l 913 1194 l 913 967 z "},"Ș":{"ha":951,"x_min":42,"x_max":829,"o":"m 829 290 q 785 138 829 206 q 658 30 742 69 q 460 -10 575 -10 q 169 73 283 -10 q 44 315 54 156 l 372 315 q 447 231 379 231 q 485 243 471 231 q 500 279 500 256 q 465 334 500 314 q 350 381 429 354 q 195 443 257 411 q 88 538 133 475 q 42 700 42 600 q 91 863 42 796 q 226 965 140 931 q 418 1000 311 1000 q 699 918 594 1000 q 813 682 803 836 l 481 682 q 417 760 474 760 q 385 748 397 760 q 372 713 372 736 q 408 660 372 681 q 518 614 443 640 q 674 548 613 581 q 783 452 736 515 q 829 290 829 389 m 582 -49 q 618 -236 618 -143 q 560 -412 618 -343 q 389 -481 501 -481 l 389 -372 q 465 -268 465 -372 l 465 -253 l 365 -253 l 365 -49 l 582 -49 z "},"ș":{"ha":804,"x_min":43,"x_max":765,"o":"m 378 793 q 633 716 538 793 q 753 513 728 639 l 465 513 q 371 579 447 579 q 328 546 328 579 q 359 510 328 522 q 458 483 390 497 q 610 444 547 467 q 719 369 674 421 q 765 229 765 318 q 726 106 765 160 q 613 21 688 51 q 436 -10 538 -10 q 167 63 267 -10 q 43 271 67 135 l 339 271 q 435 203 347 203 q 482 236 482 203 q 450 275 482 263 q 347 300 418 288 q 198 339 257 318 q 94 410 139 360 q 50 547 50 460 q 88 674 50 618 q 199 761 125 729 q 378 793 272 793 m 506 -49 q 540 -236 540 -139 q 483 -412 540 -343 q 313 -481 425 -481 l 313 -372 q 389 -268 389 -372 l 389 -253 l 289 -253 l 289 -49 l 506 -49 z "},"Ț":{"ha":856,"x_min":14,"x_max":842,"o":"m 842 983 l 842 739 l 581 739 l 581 0 l 272 0 l 272 739 l 14 739 l 14 983 l 842 983 m 535 -49 q 569 -236 569 -139 q 512 -412 569 -343 q 342 -481 454 -481 l 342 -372 q 418 -268 418 -372 l 418 -253 l 318 -253 l 318 -49 l 535 -49 z "},"ț":{"ha":606,"x_min":21,"x_max":557,"o":"m 557 263 l 557 0 l 440 0 q 118 321 118 0 l 118 526 l 21 526 l 21 783 l 118 783 l 118 972 l 426 972 l 426 783 l 554 783 l 554 526 l 426 526 l 426 315 q 440 275 426 288 q 483 263 453 263 l 557 263 m 421 -49 q 457 -236 457 -143 q 399 -412 457 -343 q 228 -481 340 -481 l 228 -372 q 304 -268 304 -372 l 304 -253 l 204 -253 l 204 -49 l 421 -49 z "},"ʼ":{"ha":390,"x_min":69,"x_max":321,"o":"m 286 1217 q 321 1031 321 1128 q 263 853 321 922 q 93 785 206 785 l 93 894 q 149 920 129 894 q 169 997 169 946 l 169 1014 l 69 1014 l 69 1217 l 286 1217 z "},"ˆ":{"ha":488,"x_min":14,"x_max":474,"o":"m 244 944 l 14 822 l 14 1022 l 244 1140 l 474 1022 l 474 822 l 244 944 z "},"ˇ":{"ha":488,"x_min":14,"x_max":474,"o":"m 474 940 l 244 822 l 14 940 l 14 1140 l 244 1018 l 474 1140 l 474 940 z "},"ˉ":{"ha":626,"x_min":14,"x_max":613,"o":"m 613 1068 l 613 864 l 14 864 l 14 1068 l 613 1068 z "},"˘":{"ha":549,"x_min":14,"x_max":536,"o":"m 275 833 q 87 906 160 833 q 14 1115 14 978 l 14 1139 l 157 1139 q 183 1074 157 1096 q 275 1053 210 1053 q 367 1074 340 1053 q 393 1139 393 1096 l 536 1139 l 536 1115 q 463 906 536 978 q 275 833 390 833 z "},"˙":{"ha":267,"x_min":14,"x_max":253,"o":"m 14 979 q 48 1065 14 1031 q 132 1100 82 1100 q 219 1066 185 1100 q 253 979 253 1032 q 218 895 253 929 q 132 861 183 861 q 48 895 82 861 q 14 979 14 929 z "},"˚":{"ha":393,"x_min":14,"x_max":381,"o":"m 197 1190 q 328 1140 275 1190 q 381 1007 381 1090 q 328 874 381 924 q 197 824 275 824 q 67 874 119 824 q 14 1007 14 924 q 67 1140 14 1090 q 197 1190 119 1190 m 197 1072 q 151 1054 169 1072 q 133 1007 133 1036 q 151 960 133 978 q 197 942 169 942 q 243 960 225 942 q 261 1007 261 978 q 243 1054 261 1036 q 197 1072 225 1072 z "},"˛":{"ha":442,"x_min":0,"x_max":442,"o":"m 379 35 l 379 -104 l 240 -104 q 204 -125 204 -104 q 214 -141 204 -135 q 240 -147 224 -147 l 442 -147 l 442 -304 l 208 -304 q 63 -265 125 -304 q 0 -135 0 -225 q 29 -35 0 -74 q 100 19 58 3 q 181 35 142 35 l 379 35 z "},"˜":{"ha":636,"x_min":0,"x_max":636,"o":"m 224 1094 q 286 1085 257 1094 q 349 1057 315 1075 q 391 1037 375 1043 q 424 1031 407 1031 q 485 1096 475 1031 l 636 1096 q 558 910 614 967 q 413 853 501 853 q 350 863 379 853 q 288 890 321 872 q 249 908 268 900 q 213 915 229 915 q 150 850 163 915 l 0 850 q 78 1037 22 979 q 224 1094 135 1094 z "},"˝":{"ha":713,"x_min":14,"x_max":699,"o":"m 199 835 l 14 835 l 125 1174 l 358 1174 l 199 835 m 504 835 l 319 835 l 465 1174 l 699 1174 l 504 835 z "},"π":{"ha":983,"x_min":14,"x_max":976,"o":"m 976 783 l 976 553 l 886 553 l 886 0 l 578 0 l 578 553 l 413 553 l 413 0 l 104 0 l 104 553 l 14 553 l 14 783 l 976 783 z "},"Ẁ":{"ha":1528,"x_min":42,"x_max":1486,"o":"m 1486 983 l 1261 0 l 878 0 l 764 558 l 650 0 l 267 0 l 42 983 l 374 983 l 463 364 l 596 983 l 932 983 l 1065 364 l 1154 983 l 1486 983 m 944 1242 l 944 1036 l 585 1167 l 585 1394 l 944 1242 z "},"ẁ":{"ha":1254,"x_min":-1,"x_max":1258,"o":"m 1258 783 l 1072 0 l 725 0 l 631 442 l 531 0 l 183 0 l -1 783 l 304 783 l 369 307 l 471 783 l 800 783 l 907 301 l 974 783 l 1258 783 m 808 1042 l 808 836 l 449 967 l 449 1194 l 808 1042 z "},"Ẃ":{"ha":1528,"x_min":42,"x_max":1486,"o":"m 1486 983 l 1261 0 l 878 0 l 764 558 l 650 0 l 267 0 l 42 983 l 374 983 l 463 364 l 596 983 l 932 983 l 1065 364 l 1154 983 l 1486 983 m 944 1167 l 585 1036 l 585 1242 l 944 1394 l 944 1167 z "},"ẃ":{"ha":1254,"x_min":-1,"x_max":1258,"o":"m 1258 783 l 1072 0 l 725 0 l 631 442 l 531 0 l 183 0 l -1 783 l 304 783 l 369 307 l 471 783 l 800 783 l 907 301 l 974 783 l 1258 783 m 808 967 l 449 836 l 449 1042 l 808 1194 l 808 967 z "},"Ẅ":{"ha":1528,"x_min":42,"x_max":1486,"o":"m 1486 983 l 1261 0 l 878 0 l 764 558 l 650 0 l 267 0 l 42 983 l 374 983 l 463 364 l 596 983 l 932 983 l 1065 364 l 1154 983 l 1486 983 m 489 1179 q 523 1265 489 1231 q 607 1300 557 1300 q 694 1266 660 1300 q 728 1179 728 1232 q 693 1095 728 1129 q 607 1061 658 1061 q 523 1095 557 1061 q 489 1179 489 1129 m 801 1179 q 835 1265 801 1231 q 919 1300 869 1300 q 1006 1266 972 1300 q 1040 1179 1040 1232 q 1006 1095 1040 1129 q 919 1061 971 1061 q 835 1095 869 1061 q 801 1179 801 1129 z "},"ẅ":{"ha":1254,"x_min":-1,"x_max":1258,"o":"m 1258 783 l 1072 0 l 725 0 l 631 442 l 531 0 l 183 0 l -1 783 l 304 783 l 369 307 l 471 783 l 800 783 l 907 301 l 974 783 l 1258 783 m 353 979 q 387 1065 353 1031 q 471 1100 421 1100 q 558 1066 524 1100 q 592 979 592 1032 q 557 895 592 929 q 471 861 522 861 q 387 895 421 861 q 353 979 353 929 m 665 979 q 699 1065 665 1031 q 783 1100 733 1100 q 870 1066 836 1100 q 904 979 904 1032 q 869 895 904 929 q 783 861 835 861 q 699 895 733 861 q 665 979 665 929 z "},"Ẽ":{"ha":772,"x_min":69,"x_max":725,"o":"m 378 739 l 378 617 l 683 617 l 683 385 l 378 385 l 378 246 l 725 246 l 725 0 l 69 0 l 69 983 l 725 983 l 725 739 l 378 739 m 303 1294 q 365 1285 336 1294 q 428 1257 394 1275 q 470 1237 454 1243 q 503 1231 486 1231 q 564 1296 554 1231 l 715 1296 q 637 1110 693 1167 q 492 1053 581 1053 q 429 1063 458 1053 q 367 1090 400 1072 q 328 1108 347 1100 q 292 1115 308 1115 q 229 1050 242 1115 l 79 1050 q 158 1237 101 1179 q 303 1294 214 1294 z "},"ẽ":{"ha":856,"x_min":28,"x_max":828,"o":"m 828 399 q 821 338 828 369 l 328 338 q 354 258 332 279 q 413 236 376 236 q 485 282 463 236 l 811 282 q 741 133 794 199 q 606 28 688 67 q 428 -10 525 -10 q 220 39 311 -10 q 78 178 129 88 q 28 392 28 269 q 78 605 28 514 q 220 744 129 696 q 428 793 311 793 q 635 745 544 793 q 777 608 726 697 q 828 399 828 519 m 515 464 q 490 530 515 508 q 428 551 465 551 q 331 464 343 551 l 515 464 m 333 1094 q 396 1085 367 1094 q 458 1057 425 1075 q 501 1037 485 1043 q 533 1031 517 1031 q 594 1096 585 1031 l 746 1096 q 667 910 724 967 q 522 853 611 853 q 460 863 489 853 q 397 890 431 872 q 358 908 378 900 q 322 915 339 915 q 260 850 272 915 l 110 850 q 188 1037 132 979 q 333 1094 244 1094 z "},"Ỳ":{"ha":1014,"x_min":0,"x_max":1014,"o":"m 1014 983 l 661 299 l 661 0 l 353 0 l 353 299 l 0 983 l 353 983 l 510 635 l 667 983 l 1014 983 m 688 1242 l 688 1036 l 328 1167 l 328 1394 l 688 1242 z "},"ỳ":{"ha":940,"x_min":-14,"x_max":954,"o":"m 329 783 l 476 386 l 614 783 l 954 783 l 453 -375 l 115 -375 l 313 39 l -14 783 l 329 783 m 650 1042 l 650 836 l 290 967 l 290 1194 l 650 1042 z "},"Ỹ":{"ha":1014,"x_min":0,"x_max":1014,"o":"m 1014 983 l 661 299 l 661 0 l 353 0 l 353 299 l 0 983 l 353 983 l 510 635 l 667 983 l 1014 983 m 413 1294 q 475 1285 446 1294 q 538 1257 504 1275 q 580 1237 564 1243 q 613 1231 596 1231 q 674 1296 664 1231 l 825 1296 q 747 1110 803 1167 q 601 1053 690 1053 q 539 1063 568 1053 q 476 1090 510 1072 q 438 1108 457 1100 q 401 1115 418 1115 q 339 1050 351 1115 l 189 1050 q 267 1237 211 1179 q 413 1294 324 1294 z "},"ỹ":{"ha":940,"x_min":-14,"x_max":954,"o":"m 329 783 l 476 386 l 614 783 l 954 783 l 453 -375 l 115 -375 l 313 39 l -14 783 l 329 783 m 375 1094 q 438 1085 408 1094 q 500 1057 467 1075 q 542 1037 526 1043 q 575 1031 558 1031 q 636 1096 626 1031 l 788 1096 q 709 910 765 967 q 564 853 653 853 q 501 863 531 853 q 439 890 472 872 q 400 908 419 900 q 364 915 381 915 q 301 850 314 915 l 151 850 q 230 1037 174 979 q 375 1094 286 1094 z "},"–":{"ha":949,"x_min":76,"x_max":872,"o":"m 872 601 l 872 347 l 76 347 l 76 601 l 872 601 z "},"—":{"ha":1300,"x_min":76,"x_max":1224,"o":"m 1224 601 l 1224 347 l 76 347 l 76 601 l 1224 601 z "},"‘":{"ha":390,"x_min":69,"x_max":322,"o":"m 106 785 q 69 972 69 879 q 128 1148 69 1079 q 299 1217 186 1217 l 299 1108 q 222 1004 222 1108 l 222 989 l 322 989 l 322 785 l 106 785 z "},"’":{"ha":390,"x_min":69,"x_max":321,"o":"m 286 1217 q 321 1031 321 1128 q 263 853 321 922 q 93 785 206 785 l 93 894 q 149 920 129 894 q 169 997 169 946 l 169 1014 l 69 1014 l 69 1217 l 286 1217 z "},"‚":{"ha":383,"x_min":35,"x_max":329,"o":"m 272 182 q 314 82 299 139 q 329 -32 329 25 q 268 -217 329 -143 q 79 -292 207 -292 l 79 -183 q 138 -167 119 -183 q 156 -100 156 -150 l 156 -85 l 35 -85 l 35 182 l 272 182 z "},"“":{"ha":703,"x_min":69,"x_max":633,"o":"m 106 785 q 69 972 69 879 q 128 1148 69 1079 q 299 1217 186 1217 l 299 1108 q 222 1004 222 1108 l 222 989 l 322 989 l 322 785 l 106 785 m 417 785 q 382 972 382 875 q 440 1148 382 1079 q 610 1217 497 1217 l 610 1108 q 533 1004 533 1108 l 533 989 l 633 989 l 633 785 l 417 785 z "},"”":{"ha":703,"x_min":69,"x_max":633,"o":"m 286 1217 q 321 1031 321 1128 q 263 853 321 922 q 93 785 206 785 l 93 894 q 149 920 129 894 q 169 997 169 946 l 169 1014 l 69 1014 l 69 1217 l 286 1217 m 597 1217 q 633 1031 633 1125 q 575 853 633 922 q 404 785 517 785 l 404 894 q 481 997 481 894 l 481 1014 l 381 1014 l 381 1217 l 597 1217 z "},"„":{"ha":703,"x_min":69,"x_max":633,"o":"m 286 203 q 321 17 321 114 q 263 -160 321 -92 q 93 -229 206 -229 l 93 -119 q 149 -94 129 -119 q 169 -17 169 -68 l 169 0 l 69 0 l 69 203 l 286 203 m 597 203 q 633 17 633 111 q 575 -160 633 -92 q 404 -229 517 -229 l 404 -119 q 481 -17 481 -119 l 481 0 l 381 0 l 381 203 l 597 203 z "},"†":{"ha":996,"x_min":71,"x_max":925,"o":"m 925 553 l 621 574 l 651 -375 l 343 -375 l 372 574 l 71 553 l 71 783 l 372 763 l 343 1103 l 651 1103 l 621 763 l 925 783 l 925 553 z "},"‡":{"ha":994,"x_min":69,"x_max":925,"o":"m 621 574 l 621 154 l 925 176 l 925 -56 l 621 -35 l 650 -375 l 342 -375 l 372 -35 l 69 -56 l 69 176 l 372 154 l 372 574 l 69 553 l 69 783 l 372 763 l 342 1103 l 650 1103 l 621 763 l 925 783 l 925 553 l 621 574 z "},"•":{"ha":744,"x_min":139,"x_max":606,"o":"m 139 463 q 170 581 139 528 q 255 666 201 635 q 372 697 308 697 q 491 666 438 697 q 575 581 544 635 q 606 463 606 528 q 575 345 606 399 q 491 261 544 292 q 372 231 438 231 q 255 261 308 231 q 170 345 201 292 q 139 463 139 399 z "},"…":{"ha":1149,"x_min":39,"x_max":1108,"o":"m 726 294 l 726 0 l 421 0 l 421 294 l 726 294 m 1108 294 l 1108 0 l 803 0 l 803 294 l 1108 294 m 344 294 l 344 0 l 39 0 l 39 294 l 344 294 z "},"‰":{"ha":1783,"x_min":28,"x_max":1756,"o":"m 279 1001 q 459 937 390 1001 q 528 750 528 872 q 459 564 528 628 q 279 500 390 500 q 97 564 167 500 q 28 750 28 628 q 97 937 28 872 q 279 1001 167 1001 m 1029 988 l 511 0 l 217 0 l 735 988 l 1029 988 m 229 750 q 276 679 229 679 q 315 697 301 679 q 328 750 328 715 q 315 804 328 786 q 276 822 301 822 q 229 750 229 822 m 968 489 q 1149 424 1081 489 q 1217 238 1217 360 q 1149 51 1217 115 q 968 -14 1081 -14 q 788 51 857 -14 q 718 238 718 115 q 788 424 718 360 q 968 489 857 489 m 1507 489 q 1687 424 1618 489 q 1756 238 1756 360 q 1687 51 1756 115 q 1507 -14 1618 -14 q 1325 51 1394 -14 q 1256 238 1256 115 q 1325 424 1256 360 q 1507 489 1394 489 m 918 238 q 967 165 918 165 q 1003 183 990 165 q 1017 238 1017 201 q 1003 291 1017 272 q 967 310 990 310 q 918 238 918 310 m 1457 238 q 1504 165 1457 165 q 1542 183 1529 165 q 1556 238 1556 201 q 1542 291 1556 272 q 1504 310 1528 310 q 1457 238 1457 310 z "},"‹":{"ha":518,"x_min":63,"x_max":449,"o":"m 169 167 l 63 410 l 169 653 l 449 653 l 339 410 l 449 167 l 169 167 z "},"›":{"ha":518,"x_min":69,"x_max":456,"o":"m 181 410 l 69 653 l 350 653 l 456 410 l 350 167 l 69 167 l 181 410 z "},"⁄":{"ha":771,"x_min":-37,"x_max":775,"o":"m 775 988 l 257 0 l -37 0 l 481 988 l 775 988 z "},"€":{"ha":1097,"x_min":21,"x_max":1056,"o":"m 574 278 q 667 305 626 278 q 731 381 708 332 l 1056 381 q 972 176 1035 264 q 808 41 908 89 q 579 -7 707 -7 q 276 86 399 -7 q 113 339 154 179 l 21 339 l 21 476 l 93 476 l 93 493 l 93 515 l 21 515 l 21 654 l 114 654 q 278 902 157 811 q 579 993 400 993 q 808 945 707 993 q 972 810 908 897 q 1056 606 1035 722 l 731 606 q 667 681 708 654 q 574 708 626 708 q 454 654 500 708 l 626 654 l 626 515 l 406 515 l 406 493 l 406 476 l 626 476 l 626 339 l 449 339 q 574 278 494 278 z "},"₺":{"ha":1138,"x_min":14,"x_max":1124,"o":"m 1124 668 q 1071 280 1124 426 q 900 65 1018 133 q 582 -3 782 -3 q 158 43 417 -3 l 158 346 l 14 326 l 14 506 l 158 526 l 158 572 l 14 551 l 14 725 l 158 747 l 158 989 l 471 989 l 471 794 l 621 817 l 621 638 l 471 617 l 471 569 l 626 592 l 626 411 l 471 390 l 471 296 q 579 286 517 286 q 739 340 689 286 q 800 467 789 393 q 811 668 811 542 l 1124 668 z "},"₽":{"ha":985,"x_min":14,"x_max":957,"o":"m 461 367 l 461 310 l 619 310 l 619 81 l 461 81 l 461 0 l 153 0 l 153 81 l 14 81 l 14 310 l 153 310 l 153 367 l 14 367 l 14 600 l 153 600 l 153 983 l 583 983 q 860 899 764 983 q 957 675 957 814 q 860 451 957 536 q 583 367 764 367 l 461 367 m 461 600 l 564 600 q 624 621 603 600 q 644 676 644 642 q 623 730 644 707 q 564 753 601 753 l 461 753 l 461 600 z "},"ℓ":{"ha":517,"x_min":69,"x_max":378,"o":"m 378 1028 l 378 0 l 69 0 l 69 1028 l 378 1028 z "},"™":{"ha":1315,"x_min":42,"x_max":1274,"o":"m 42 983 l 494 983 l 494 807 l 375 807 l 375 497 l 161 497 l 161 807 l 42 807 l 42 983 m 1274 983 l 1274 497 l 1078 497 l 1074 729 l 979 497 l 836 497 l 743 747 l 743 497 l 557 497 l 557 983 l 850 983 l 919 767 l 1007 983 l 1274 983 z "},"Ω":{"ha":1099,"x_min":46,"x_max":1054,"o":"m 1054 538 q 1029 365 1054 440 q 942 232 1004 290 l 1054 232 l 1054 0 l 683 0 l 683 239 q 726 368 713 311 q 740 493 740 425 q 692 659 740 603 q 550 715 643 715 q 408 659 457 715 q 358 493 358 603 q 372 369 358 425 q 417 239 386 314 l 417 0 l 46 0 l 46 232 l 158 232 q 71 365 96 290 q 46 538 46 440 q 112 787 46 682 q 292 946 178 892 q 550 1000 407 1000 q 806 946 692 1000 q 988 787 921 892 q 1054 538 1054 682 z "},"℮":{"ha":1028,"x_min":39,"x_max":990,"o":"m 526 -10 q 276 47 386 -10 q 102 213 165 104 q 39 472 39 322 q 94 744 39 624 q 258 933 150 864 q 514 1001 365 1001 q 769 937 661 1001 q 933 767 876 872 q 990 539 990 661 l 990 450 l 351 450 l 351 194 q 526 163 444 163 q 851 300 714 163 l 949 185 q 526 -10 767 -10 m 681 814 q 514 838 619 838 q 432 830 467 838 q 351 808 397 822 l 351 593 l 681 593 l 681 814 z "},"∂":{"ha":892,"x_min":42,"x_max":850,"o":"m 421 779 q 565 732 517 779 q 492 826 542 796 q 350 857 443 857 q 276 853 315 857 l 276 1001 q 463 1028 376 1028 q 751 903 651 1028 q 850 557 850 778 q 734 141 850 290 q 404 -8 618 -8 q 222 33 304 -8 q 90 160 139 75 q 42 369 42 246 q 92 590 42 497 q 229 731 143 683 q 421 779 315 779 m 453 524 q 354 371 354 524 q 376 286 354 314 q 432 258 399 258 q 503 303 481 258 q 525 432 525 347 q 504 501 525 478 q 453 524 483 524 z "},"∆":{"ha":1069,"x_min":28,"x_max":1042,"o":"m 660 988 l 1042 233 l 1042 0 l 28 0 l 28 233 l 411 988 l 660 988 m 346 233 l 724 233 l 536 639 l 346 233 z "},"∏":{"ha":1046,"x_min":14,"x_max":1032,"o":"m 1032 988 l 1032 757 l 942 757 l 942 0 l 633 0 l 633 757 l 413 757 l 413 0 l 104 0 l 104 757 l 14 757 l 14 988 l 1032 988 z "},"∑":{"ha":814,"x_min":56,"x_max":758,"o":"m 758 756 l 382 756 l 657 604 l 657 372 l 353 171 l 758 171 l 758 -62 l 56 -62 l 56 297 l 358 481 l 56 629 l 56 988 l 758 988 l 758 756 z "},"−":{"ha":703,"x_min":28,"x_max":675,"o":"m 675 601 l 675 347 l 28 347 l 28 601 l 675 601 z "},"∕":{"ha":554,"x_min":-50,"x_max":614,"o":"m 614 1326 l 246 -275 l -50 -275 l 319 1326 l 614 1326 z "},"∙":{"ha":426,"x_min":60,"x_max":365,"o":"m 365 565 l 365 271 l 60 271 l 60 565 l 365 565 z "},"√":{"ha":1417,"x_min":26,"x_max":1379,"o":"m 1379 1288 l 615 -56 l 469 -56 l 240 354 l 111 279 l 26 418 l 429 656 l 635 286 l 1207 1288 l 1379 1288 z "},"∞":{"ha":1172,"x_min":46,"x_max":1128,"o":"m 847 743 q 1055 676 982 743 q 1128 483 1128 608 q 1092 344 1128 404 q 994 253 1056 285 q 858 222 933 222 q 698 253 767 222 q 571 336 629 283 q 463 253 526 283 q 325 222 400 222 q 119 290 193 222 q 46 482 46 358 q 82 622 46 563 q 179 712 118 681 q 314 743 240 743 q 477 710 411 743 q 594 619 543 676 q 704 710 639 676 q 847 743 769 743 m 343 421 q 454 469 407 421 q 397 526 422 507 q 343 546 371 546 q 300 529 317 546 q 283 482 283 513 q 300 437 283 453 q 343 421 317 421 m 829 421 q 873 438 856 421 q 890 483 890 454 q 874 530 890 514 q 829 546 857 546 q 762 530 794 546 q 706 482 729 514 q 763 437 733 453 q 829 421 792 421 z "},"∫":{"ha":433,"x_min":-79,"x_max":506,"o":"m 118 1036 q 233 1265 135 1200 q 488 1331 332 1331 l 506 1331 l 481 1067 l 456 1067 q 425 1036 431 1067 l 308 -136 q 193 -365 292 -300 q -61 -431 94 -431 l -79 -431 l -54 -167 l -31 -167 q 1 -136 -4 -167 l 118 1036 z "},"≈":{"ha":988,"x_min":28,"x_max":960,"o":"m 354 464 q 446 449 404 464 q 538 408 488 435 q 599 380 575 389 q 647 371 624 371 q 703 392 685 371 q 729 467 722 414 l 960 467 q 844 190 931 279 q 632 100 758 100 q 541 115 582 100 q 450 156 500 129 q 385 185 408 176 q 339 193 363 193 q 283 171 301 193 q 256 97 264 149 l 28 97 q 143 375 58 286 q 354 464 228 464 m 354 846 q 446 831 404 846 q 538 790 488 817 q 599 762 575 771 q 647 753 624 753 q 703 774 685 753 q 729 849 722 796 l 960 849 q 844 572 931 661 q 632 482 758 482 q 541 497 582 482 q 450 538 500 511 q 385 567 408 558 q 339 575 363 575 q 283 553 301 575 q 256 479 264 531 l 28 479 q 143 757 58 668 q 354 846 228 846 z "},"≠":{"ha":869,"x_min":28,"x_max":842,"o":"m 744 806 l 842 806 l 842 526 l 549 526 l 471 417 l 842 417 l 842 138 l 275 138 l 178 -1 l 29 -1 l 126 138 l 28 138 l 28 417 l 324 417 l 400 526 l 28 526 l 28 806 l 597 806 l 694 944 l 842 944 l 744 806 z "},"≤":{"ha":683,"x_min":28,"x_max":656,"o":"m 407 521 l 656 271 l 278 271 l 28 521 l 278 772 l 656 772 l 407 521 m 67 154 l 656 154 l 656 -83 l 67 -83 l 67 154 z "},"≥":{"ha":683,"x_min":28,"x_max":656,"o":"m 28 271 l 276 521 l 28 772 l 406 772 l 656 521 l 406 271 l 28 271 m 28 154 l 617 154 l 617 -83 l 28 -83 l 28 154 z "},"◊":{"ha":794,"x_min":14,"x_max":781,"o":"m 781 493 l 399 110 l 14 493 l 399 875 l 781 493 m 303 493 l 399 397 l 493 493 l 399 588 l 303 493 z "},"ﬁ":{"ha":989,"x_min":14,"x_max":908,"o":"m 501 839 q 476 840 492 840 q 428 827 444 840 q 408 783 413 814 l 885 783 l 885 0 l 576 0 l 576 526 l 406 526 l 406 0 l 97 0 l 97 526 l 14 526 l 14 783 l 97 783 q 190 1020 99 936 q 443 1104 281 1104 q 501 1101 460 1104 l 501 839 m 732 818 q 602 858 650 818 q 554 964 554 899 q 603 1069 554 1028 q 732 1110 651 1110 q 860 1069 813 1110 q 908 964 908 1028 q 860 858 908 899 q 732 818 813 818 z "},"ﬂ":{"ha":947,"x_min":14,"x_max":878,"o":"m 521 839 q 486 842 496 842 q 433 828 451 842 q 408 783 415 815 l 521 783 l 521 526 l 406 526 l 406 0 l 97 0 l 97 526 l 14 526 l 14 783 l 97 783 q 194 1020 100 936 q 457 1104 288 1104 q 521 1101 476 1104 l 521 839 m 878 1028 l 878 0 l 569 0 l 569 1028 l 878 1028 z "}}}
